%TF.GenerationSoftware,KiCad,Pcbnew,9.0.1*%
%TF.CreationDate,2025-04-14T14:12:29-03:00*%
%TF.ProjectId,SRAD_computer,53524144-5f63-46f6-9d70-757465722e6b,rev?*%
%TF.SameCoordinates,Original*%
%TF.FileFunction,Drillmap*%
%TF.FilePolarity,Positive*%
%FSLAX45Y45*%
G04 Gerber Fmt 4.5, Leading zero omitted, Abs format (unit mm)*
G04 Created by KiCad (PCBNEW 9.0.1) date 2025-04-14 14:12:29*
%MOMM*%
%LPD*%
G01*
G04 APERTURE LIST*
%ADD10C,0.200000*%
%ADD11C,0.010000*%
%ADD12C,0.100000*%
%ADD13C,0.350000*%
G04 APERTURE END LIST*
D10*
X5588000Y-3532298D02*
X13588000Y-3532298D01*
X13588000Y-12532298D01*
X5588000Y-12532298D01*
X5588000Y-3532298D01*
D11*
X9948000Y-4364000D02*
G75*
G02*
X9915500Y-4396500I-32500J0D01*
G01*
X9915500Y-4331500D02*
G75*
G02*
X9948000Y-4364000I0J-32500D01*
G01*
X9880500Y-4396500D02*
G75*
G02*
X9848000Y-4364000I0J32500D01*
G01*
X9848000Y-4364000D02*
G75*
G02*
X9880500Y-4331500I32500J0D01*
G01*
X9915500Y-4396500D02*
X9880500Y-4396500D01*
X9880500Y-4331500D02*
X9915500Y-4331500D01*
D10*
D12*
X9865500Y-4331500D02*
X9930500Y-4396500D01*
X9930500Y-4331500D02*
X9865500Y-4396500D01*
X10585500Y-4331500D02*
X10650500Y-4396500D01*
X10650500Y-4331500D02*
X10585500Y-4396500D01*
D13*
X6513000Y-4282298D02*
G75*
G02*
X6163000Y-4282298I-175000J0D01*
G01*
X6163000Y-4282298D02*
G75*
G02*
X6513000Y-4282298I175000J0D01*
G01*
X6513000Y-11782298D02*
G75*
G02*
X6163000Y-11782298I-175000J0D01*
G01*
X6163000Y-11782298D02*
G75*
G02*
X6513000Y-11782298I175000J0D01*
G01*
X13013000Y-4282298D02*
G75*
G02*
X12663000Y-4282298I-175000J0D01*
G01*
X12663000Y-4282298D02*
G75*
G02*
X13013000Y-4282298I175000J0D01*
G01*
X13013000Y-11782298D02*
G75*
G02*
X12663000Y-11782298I-175000J0D01*
G01*
X12663000Y-11782298D02*
G75*
G02*
X13013000Y-11782298I175000J0D01*
G01*
D10*
X5838777Y-12853782D02*
X5838777Y-12653782D01*
X5838777Y-12653782D02*
X5886396Y-12653782D01*
X5886396Y-12653782D02*
X5914967Y-12663306D01*
X5914967Y-12663306D02*
X5934015Y-12682354D01*
X5934015Y-12682354D02*
X5943539Y-12701401D01*
X5943539Y-12701401D02*
X5953062Y-12739496D01*
X5953062Y-12739496D02*
X5953062Y-12768068D01*
X5953062Y-12768068D02*
X5943539Y-12806163D01*
X5943539Y-12806163D02*
X5934015Y-12825211D01*
X5934015Y-12825211D02*
X5914967Y-12844258D01*
X5914967Y-12844258D02*
X5886396Y-12853782D01*
X5886396Y-12853782D02*
X5838777Y-12853782D01*
X6038777Y-12853782D02*
X6038777Y-12720449D01*
X6038777Y-12758544D02*
X6048301Y-12739496D01*
X6048301Y-12739496D02*
X6057824Y-12729973D01*
X6057824Y-12729973D02*
X6076872Y-12720449D01*
X6076872Y-12720449D02*
X6095920Y-12720449D01*
X6162586Y-12853782D02*
X6162586Y-12720449D01*
X6162586Y-12653782D02*
X6153062Y-12663306D01*
X6153062Y-12663306D02*
X6162586Y-12672830D01*
X6162586Y-12672830D02*
X6172110Y-12663306D01*
X6172110Y-12663306D02*
X6162586Y-12653782D01*
X6162586Y-12653782D02*
X6162586Y-12672830D01*
X6286396Y-12853782D02*
X6267348Y-12844258D01*
X6267348Y-12844258D02*
X6257824Y-12825211D01*
X6257824Y-12825211D02*
X6257824Y-12653782D01*
X6391158Y-12853782D02*
X6372110Y-12844258D01*
X6372110Y-12844258D02*
X6362586Y-12825211D01*
X6362586Y-12825211D02*
X6362586Y-12653782D01*
X6619729Y-12853782D02*
X6619729Y-12653782D01*
X6619729Y-12653782D02*
X6686396Y-12796639D01*
X6686396Y-12796639D02*
X6753062Y-12653782D01*
X6753062Y-12653782D02*
X6753062Y-12853782D01*
X6934015Y-12853782D02*
X6934015Y-12749020D01*
X6934015Y-12749020D02*
X6924491Y-12729973D01*
X6924491Y-12729973D02*
X6905443Y-12720449D01*
X6905443Y-12720449D02*
X6867348Y-12720449D01*
X6867348Y-12720449D02*
X6848301Y-12729973D01*
X6934015Y-12844258D02*
X6914967Y-12853782D01*
X6914967Y-12853782D02*
X6867348Y-12853782D01*
X6867348Y-12853782D02*
X6848301Y-12844258D01*
X6848301Y-12844258D02*
X6838777Y-12825211D01*
X6838777Y-12825211D02*
X6838777Y-12806163D01*
X6838777Y-12806163D02*
X6848301Y-12787115D01*
X6848301Y-12787115D02*
X6867348Y-12777592D01*
X6867348Y-12777592D02*
X6914967Y-12777592D01*
X6914967Y-12777592D02*
X6934015Y-12768068D01*
X7029253Y-12720449D02*
X7029253Y-12920449D01*
X7029253Y-12729973D02*
X7048301Y-12720449D01*
X7048301Y-12720449D02*
X7086396Y-12720449D01*
X7086396Y-12720449D02*
X7105443Y-12729973D01*
X7105443Y-12729973D02*
X7114967Y-12739496D01*
X7114967Y-12739496D02*
X7124491Y-12758544D01*
X7124491Y-12758544D02*
X7124491Y-12815687D01*
X7124491Y-12815687D02*
X7114967Y-12834734D01*
X7114967Y-12834734D02*
X7105443Y-12844258D01*
X7105443Y-12844258D02*
X7086396Y-12853782D01*
X7086396Y-12853782D02*
X7048301Y-12853782D01*
X7048301Y-12853782D02*
X7029253Y-12844258D01*
X7210205Y-12834734D02*
X7219729Y-12844258D01*
X7219729Y-12844258D02*
X7210205Y-12853782D01*
X7210205Y-12853782D02*
X7200682Y-12844258D01*
X7200682Y-12844258D02*
X7210205Y-12834734D01*
X7210205Y-12834734D02*
X7210205Y-12853782D01*
X7210205Y-12729973D02*
X7219729Y-12739496D01*
X7219729Y-12739496D02*
X7210205Y-12749020D01*
X7210205Y-12749020D02*
X7200682Y-12739496D01*
X7200682Y-12739496D02*
X7210205Y-12729973D01*
X7210205Y-12729973D02*
X7210205Y-12749020D01*
D12*
X5513000Y-13149798D02*
X5578000Y-13214798D01*
X5578000Y-13149798D02*
X5513000Y-13214798D01*
D10*
X5876872Y-13073782D02*
X5895920Y-13073782D01*
X5895920Y-13073782D02*
X5914967Y-13083306D01*
X5914967Y-13083306D02*
X5924491Y-13092830D01*
X5924491Y-13092830D02*
X5934015Y-13111877D01*
X5934015Y-13111877D02*
X5943539Y-13149973D01*
X5943539Y-13149973D02*
X5943539Y-13197592D01*
X5943539Y-13197592D02*
X5934015Y-13235687D01*
X5934015Y-13235687D02*
X5924491Y-13254734D01*
X5924491Y-13254734D02*
X5914967Y-13264258D01*
X5914967Y-13264258D02*
X5895920Y-13273782D01*
X5895920Y-13273782D02*
X5876872Y-13273782D01*
X5876872Y-13273782D02*
X5857824Y-13264258D01*
X5857824Y-13264258D02*
X5848301Y-13254734D01*
X5848301Y-13254734D02*
X5838777Y-13235687D01*
X5838777Y-13235687D02*
X5829253Y-13197592D01*
X5829253Y-13197592D02*
X5829253Y-13149973D01*
X5829253Y-13149973D02*
X5838777Y-13111877D01*
X5838777Y-13111877D02*
X5848301Y-13092830D01*
X5848301Y-13092830D02*
X5857824Y-13083306D01*
X5857824Y-13083306D02*
X5876872Y-13073782D01*
X6029253Y-13254734D02*
X6038777Y-13264258D01*
X6038777Y-13264258D02*
X6029253Y-13273782D01*
X6029253Y-13273782D02*
X6019729Y-13264258D01*
X6019729Y-13264258D02*
X6029253Y-13254734D01*
X6029253Y-13254734D02*
X6029253Y-13273782D01*
X6210205Y-13073782D02*
X6172110Y-13073782D01*
X6172110Y-13073782D02*
X6153062Y-13083306D01*
X6153062Y-13083306D02*
X6143539Y-13092830D01*
X6143539Y-13092830D02*
X6124491Y-13121401D01*
X6124491Y-13121401D02*
X6114967Y-13159496D01*
X6114967Y-13159496D02*
X6114967Y-13235687D01*
X6114967Y-13235687D02*
X6124491Y-13254734D01*
X6124491Y-13254734D02*
X6134015Y-13264258D01*
X6134015Y-13264258D02*
X6153062Y-13273782D01*
X6153062Y-13273782D02*
X6191158Y-13273782D01*
X6191158Y-13273782D02*
X6210205Y-13264258D01*
X6210205Y-13264258D02*
X6219729Y-13254734D01*
X6219729Y-13254734D02*
X6229253Y-13235687D01*
X6229253Y-13235687D02*
X6229253Y-13188068D01*
X6229253Y-13188068D02*
X6219729Y-13169020D01*
X6219729Y-13169020D02*
X6210205Y-13159496D01*
X6210205Y-13159496D02*
X6191158Y-13149973D01*
X6191158Y-13149973D02*
X6153062Y-13149973D01*
X6153062Y-13149973D02*
X6134015Y-13159496D01*
X6134015Y-13159496D02*
X6124491Y-13169020D01*
X6124491Y-13169020D02*
X6114967Y-13188068D01*
X6410205Y-13073782D02*
X6314967Y-13073782D01*
X6314967Y-13073782D02*
X6305443Y-13169020D01*
X6305443Y-13169020D02*
X6314967Y-13159496D01*
X6314967Y-13159496D02*
X6334015Y-13149973D01*
X6334015Y-13149973D02*
X6381634Y-13149973D01*
X6381634Y-13149973D02*
X6400682Y-13159496D01*
X6400682Y-13159496D02*
X6410205Y-13169020D01*
X6410205Y-13169020D02*
X6419729Y-13188068D01*
X6419729Y-13188068D02*
X6419729Y-13235687D01*
X6419729Y-13235687D02*
X6410205Y-13254734D01*
X6410205Y-13254734D02*
X6400682Y-13264258D01*
X6400682Y-13264258D02*
X6381634Y-13273782D01*
X6381634Y-13273782D02*
X6334015Y-13273782D01*
X6334015Y-13273782D02*
X6314967Y-13264258D01*
X6314967Y-13264258D02*
X6305443Y-13254734D01*
X6543539Y-13073782D02*
X6562586Y-13073782D01*
X6562586Y-13073782D02*
X6581634Y-13083306D01*
X6581634Y-13083306D02*
X6591158Y-13092830D01*
X6591158Y-13092830D02*
X6600682Y-13111877D01*
X6600682Y-13111877D02*
X6610205Y-13149973D01*
X6610205Y-13149973D02*
X6610205Y-13197592D01*
X6610205Y-13197592D02*
X6600682Y-13235687D01*
X6600682Y-13235687D02*
X6591158Y-13254734D01*
X6591158Y-13254734D02*
X6581634Y-13264258D01*
X6581634Y-13264258D02*
X6562586Y-13273782D01*
X6562586Y-13273782D02*
X6543539Y-13273782D01*
X6543539Y-13273782D02*
X6524491Y-13264258D01*
X6524491Y-13264258D02*
X6514967Y-13254734D01*
X6514967Y-13254734D02*
X6505443Y-13235687D01*
X6505443Y-13235687D02*
X6495920Y-13197592D01*
X6495920Y-13197592D02*
X6495920Y-13149973D01*
X6495920Y-13149973D02*
X6505443Y-13111877D01*
X6505443Y-13111877D02*
X6514967Y-13092830D01*
X6514967Y-13092830D02*
X6524491Y-13083306D01*
X6524491Y-13083306D02*
X6543539Y-13073782D01*
X6695920Y-13273782D02*
X6695920Y-13140449D01*
X6695920Y-13159496D02*
X6705443Y-13149973D01*
X6705443Y-13149973D02*
X6724491Y-13140449D01*
X6724491Y-13140449D02*
X6753063Y-13140449D01*
X6753063Y-13140449D02*
X6772110Y-13149973D01*
X6772110Y-13149973D02*
X6781634Y-13169020D01*
X6781634Y-13169020D02*
X6781634Y-13273782D01*
X6781634Y-13169020D02*
X6791158Y-13149973D01*
X6791158Y-13149973D02*
X6810205Y-13140449D01*
X6810205Y-13140449D02*
X6838777Y-13140449D01*
X6838777Y-13140449D02*
X6857824Y-13149973D01*
X6857824Y-13149973D02*
X6867348Y-13169020D01*
X6867348Y-13169020D02*
X6867348Y-13273782D01*
X6962586Y-13273782D02*
X6962586Y-13140449D01*
X6962586Y-13159496D02*
X6972110Y-13149973D01*
X6972110Y-13149973D02*
X6991158Y-13140449D01*
X6991158Y-13140449D02*
X7019729Y-13140449D01*
X7019729Y-13140449D02*
X7038777Y-13149973D01*
X7038777Y-13149973D02*
X7048301Y-13169020D01*
X7048301Y-13169020D02*
X7048301Y-13273782D01*
X7048301Y-13169020D02*
X7057824Y-13149973D01*
X7057824Y-13149973D02*
X7076872Y-13140449D01*
X7076872Y-13140449D02*
X7105443Y-13140449D01*
X7105443Y-13140449D02*
X7124491Y-13149973D01*
X7124491Y-13149973D02*
X7134015Y-13169020D01*
X7134015Y-13169020D02*
X7134015Y-13273782D01*
X7524491Y-13064258D02*
X7353063Y-13321401D01*
X7781634Y-13073782D02*
X7800682Y-13073782D01*
X7800682Y-13073782D02*
X7819729Y-13083306D01*
X7819729Y-13083306D02*
X7829253Y-13092830D01*
X7829253Y-13092830D02*
X7838777Y-13111877D01*
X7838777Y-13111877D02*
X7848301Y-13149973D01*
X7848301Y-13149973D02*
X7848301Y-13197592D01*
X7848301Y-13197592D02*
X7838777Y-13235687D01*
X7838777Y-13235687D02*
X7829253Y-13254734D01*
X7829253Y-13254734D02*
X7819729Y-13264258D01*
X7819729Y-13264258D02*
X7800682Y-13273782D01*
X7800682Y-13273782D02*
X7781634Y-13273782D01*
X7781634Y-13273782D02*
X7762586Y-13264258D01*
X7762586Y-13264258D02*
X7753063Y-13254734D01*
X7753063Y-13254734D02*
X7743539Y-13235687D01*
X7743539Y-13235687D02*
X7734015Y-13197592D01*
X7734015Y-13197592D02*
X7734015Y-13149973D01*
X7734015Y-13149973D02*
X7743539Y-13111877D01*
X7743539Y-13111877D02*
X7753063Y-13092830D01*
X7753063Y-13092830D02*
X7762586Y-13083306D01*
X7762586Y-13083306D02*
X7781634Y-13073782D01*
X7934015Y-13254734D02*
X7943539Y-13264258D01*
X7943539Y-13264258D02*
X7934015Y-13273782D01*
X7934015Y-13273782D02*
X7924491Y-13264258D01*
X7924491Y-13264258D02*
X7934015Y-13254734D01*
X7934015Y-13254734D02*
X7934015Y-13273782D01*
X8067348Y-13073782D02*
X8086396Y-13073782D01*
X8086396Y-13073782D02*
X8105444Y-13083306D01*
X8105444Y-13083306D02*
X8114967Y-13092830D01*
X8114967Y-13092830D02*
X8124491Y-13111877D01*
X8124491Y-13111877D02*
X8134015Y-13149973D01*
X8134015Y-13149973D02*
X8134015Y-13197592D01*
X8134015Y-13197592D02*
X8124491Y-13235687D01*
X8124491Y-13235687D02*
X8114967Y-13254734D01*
X8114967Y-13254734D02*
X8105444Y-13264258D01*
X8105444Y-13264258D02*
X8086396Y-13273782D01*
X8086396Y-13273782D02*
X8067348Y-13273782D01*
X8067348Y-13273782D02*
X8048301Y-13264258D01*
X8048301Y-13264258D02*
X8038777Y-13254734D01*
X8038777Y-13254734D02*
X8029253Y-13235687D01*
X8029253Y-13235687D02*
X8019729Y-13197592D01*
X8019729Y-13197592D02*
X8019729Y-13149973D01*
X8019729Y-13149973D02*
X8029253Y-13111877D01*
X8029253Y-13111877D02*
X8038777Y-13092830D01*
X8038777Y-13092830D02*
X8048301Y-13083306D01*
X8048301Y-13083306D02*
X8067348Y-13073782D01*
X8210206Y-13092830D02*
X8219729Y-13083306D01*
X8219729Y-13083306D02*
X8238777Y-13073782D01*
X8238777Y-13073782D02*
X8286396Y-13073782D01*
X8286396Y-13073782D02*
X8305444Y-13083306D01*
X8305444Y-13083306D02*
X8314967Y-13092830D01*
X8314967Y-13092830D02*
X8324491Y-13111877D01*
X8324491Y-13111877D02*
X8324491Y-13130925D01*
X8324491Y-13130925D02*
X8314967Y-13159496D01*
X8314967Y-13159496D02*
X8200682Y-13273782D01*
X8200682Y-13273782D02*
X8324491Y-13273782D01*
X8505444Y-13073782D02*
X8410206Y-13073782D01*
X8410206Y-13073782D02*
X8400682Y-13169020D01*
X8400682Y-13169020D02*
X8410206Y-13159496D01*
X8410206Y-13159496D02*
X8429253Y-13149973D01*
X8429253Y-13149973D02*
X8476872Y-13149973D01*
X8476872Y-13149973D02*
X8495920Y-13159496D01*
X8495920Y-13159496D02*
X8505444Y-13169020D01*
X8505444Y-13169020D02*
X8514968Y-13188068D01*
X8514968Y-13188068D02*
X8514968Y-13235687D01*
X8514968Y-13235687D02*
X8505444Y-13254734D01*
X8505444Y-13254734D02*
X8495920Y-13264258D01*
X8495920Y-13264258D02*
X8476872Y-13273782D01*
X8476872Y-13273782D02*
X8429253Y-13273782D01*
X8429253Y-13273782D02*
X8410206Y-13264258D01*
X8410206Y-13264258D02*
X8400682Y-13254734D01*
X8686396Y-13073782D02*
X8648301Y-13073782D01*
X8648301Y-13073782D02*
X8629253Y-13083306D01*
X8629253Y-13083306D02*
X8619729Y-13092830D01*
X8619729Y-13092830D02*
X8600682Y-13121401D01*
X8600682Y-13121401D02*
X8591158Y-13159496D01*
X8591158Y-13159496D02*
X8591158Y-13235687D01*
X8591158Y-13235687D02*
X8600682Y-13254734D01*
X8600682Y-13254734D02*
X8610206Y-13264258D01*
X8610206Y-13264258D02*
X8629253Y-13273782D01*
X8629253Y-13273782D02*
X8667349Y-13273782D01*
X8667349Y-13273782D02*
X8686396Y-13264258D01*
X8686396Y-13264258D02*
X8695920Y-13254734D01*
X8695920Y-13254734D02*
X8705444Y-13235687D01*
X8705444Y-13235687D02*
X8705444Y-13188068D01*
X8705444Y-13188068D02*
X8695920Y-13169020D01*
X8695920Y-13169020D02*
X8686396Y-13159496D01*
X8686396Y-13159496D02*
X8667349Y-13149973D01*
X8667349Y-13149973D02*
X8629253Y-13149973D01*
X8629253Y-13149973D02*
X8610206Y-13159496D01*
X8610206Y-13159496D02*
X8600682Y-13169020D01*
X8600682Y-13169020D02*
X8591158Y-13188068D01*
X8781634Y-13073782D02*
X8781634Y-13111877D01*
X8857825Y-13073782D02*
X8857825Y-13111877D01*
X9153063Y-13349973D02*
X9143539Y-13340449D01*
X9143539Y-13340449D02*
X9124491Y-13311877D01*
X9124491Y-13311877D02*
X9114968Y-13292830D01*
X9114968Y-13292830D02*
X9105444Y-13264258D01*
X9105444Y-13264258D02*
X9095920Y-13216639D01*
X9095920Y-13216639D02*
X9095920Y-13178544D01*
X9095920Y-13178544D02*
X9105444Y-13130925D01*
X9105444Y-13130925D02*
X9114968Y-13102354D01*
X9114968Y-13102354D02*
X9124491Y-13083306D01*
X9124491Y-13083306D02*
X9143539Y-13054734D01*
X9143539Y-13054734D02*
X9153063Y-13045211D01*
X9219730Y-13092830D02*
X9229253Y-13083306D01*
X9229253Y-13083306D02*
X9248301Y-13073782D01*
X9248301Y-13073782D02*
X9295920Y-13073782D01*
X9295920Y-13073782D02*
X9314968Y-13083306D01*
X9314968Y-13083306D02*
X9324491Y-13092830D01*
X9324491Y-13092830D02*
X9334015Y-13111877D01*
X9334015Y-13111877D02*
X9334015Y-13130925D01*
X9334015Y-13130925D02*
X9324491Y-13159496D01*
X9324491Y-13159496D02*
X9210206Y-13273782D01*
X9210206Y-13273782D02*
X9334015Y-13273782D01*
X9572111Y-13273782D02*
X9572111Y-13073782D01*
X9657825Y-13273782D02*
X9657825Y-13169020D01*
X9657825Y-13169020D02*
X9648301Y-13149973D01*
X9648301Y-13149973D02*
X9629253Y-13140449D01*
X9629253Y-13140449D02*
X9600682Y-13140449D01*
X9600682Y-13140449D02*
X9581634Y-13149973D01*
X9581634Y-13149973D02*
X9572111Y-13159496D01*
X9781634Y-13273782D02*
X9762587Y-13264258D01*
X9762587Y-13264258D02*
X9753063Y-13254734D01*
X9753063Y-13254734D02*
X9743539Y-13235687D01*
X9743539Y-13235687D02*
X9743539Y-13178544D01*
X9743539Y-13178544D02*
X9753063Y-13159496D01*
X9753063Y-13159496D02*
X9762587Y-13149973D01*
X9762587Y-13149973D02*
X9781634Y-13140449D01*
X9781634Y-13140449D02*
X9810206Y-13140449D01*
X9810206Y-13140449D02*
X9829253Y-13149973D01*
X9829253Y-13149973D02*
X9838777Y-13159496D01*
X9838777Y-13159496D02*
X9848301Y-13178544D01*
X9848301Y-13178544D02*
X9848301Y-13235687D01*
X9848301Y-13235687D02*
X9838777Y-13254734D01*
X9838777Y-13254734D02*
X9829253Y-13264258D01*
X9829253Y-13264258D02*
X9810206Y-13273782D01*
X9810206Y-13273782D02*
X9781634Y-13273782D01*
X9962587Y-13273782D02*
X9943539Y-13264258D01*
X9943539Y-13264258D02*
X9934015Y-13245211D01*
X9934015Y-13245211D02*
X9934015Y-13073782D01*
X10114968Y-13264258D02*
X10095920Y-13273782D01*
X10095920Y-13273782D02*
X10057825Y-13273782D01*
X10057825Y-13273782D02*
X10038777Y-13264258D01*
X10038777Y-13264258D02*
X10029253Y-13245211D01*
X10029253Y-13245211D02*
X10029253Y-13169020D01*
X10029253Y-13169020D02*
X10038777Y-13149973D01*
X10038777Y-13149973D02*
X10057825Y-13140449D01*
X10057825Y-13140449D02*
X10095920Y-13140449D01*
X10095920Y-13140449D02*
X10114968Y-13149973D01*
X10114968Y-13149973D02*
X10124492Y-13169020D01*
X10124492Y-13169020D02*
X10124492Y-13188068D01*
X10124492Y-13188068D02*
X10029253Y-13207115D01*
X10200682Y-13264258D02*
X10219730Y-13273782D01*
X10219730Y-13273782D02*
X10257825Y-13273782D01*
X10257825Y-13273782D02*
X10276873Y-13264258D01*
X10276873Y-13264258D02*
X10286396Y-13245211D01*
X10286396Y-13245211D02*
X10286396Y-13235687D01*
X10286396Y-13235687D02*
X10276873Y-13216639D01*
X10276873Y-13216639D02*
X10257825Y-13207115D01*
X10257825Y-13207115D02*
X10229253Y-13207115D01*
X10229253Y-13207115D02*
X10210206Y-13197592D01*
X10210206Y-13197592D02*
X10200682Y-13178544D01*
X10200682Y-13178544D02*
X10200682Y-13169020D01*
X10200682Y-13169020D02*
X10210206Y-13149973D01*
X10210206Y-13149973D02*
X10229253Y-13140449D01*
X10229253Y-13140449D02*
X10257825Y-13140449D01*
X10257825Y-13140449D02*
X10276873Y-13149973D01*
X10353063Y-13349973D02*
X10362587Y-13340449D01*
X10362587Y-13340449D02*
X10381634Y-13311877D01*
X10381634Y-13311877D02*
X10391158Y-13292830D01*
X10391158Y-13292830D02*
X10400682Y-13264258D01*
X10400682Y-13264258D02*
X10410206Y-13216639D01*
X10410206Y-13216639D02*
X10410206Y-13178544D01*
X10410206Y-13178544D02*
X10400682Y-13130925D01*
X10400682Y-13130925D02*
X10391158Y-13102354D01*
X10391158Y-13102354D02*
X10381634Y-13083306D01*
X10381634Y-13083306D02*
X10362587Y-13054734D01*
X10362587Y-13054734D02*
X10353063Y-13045211D01*
X10714968Y-13349973D02*
X10705444Y-13340449D01*
X10705444Y-13340449D02*
X10686396Y-13311877D01*
X10686396Y-13311877D02*
X10676873Y-13292830D01*
X10676873Y-13292830D02*
X10667349Y-13264258D01*
X10667349Y-13264258D02*
X10657825Y-13216639D01*
X10657825Y-13216639D02*
X10657825Y-13178544D01*
X10657825Y-13178544D02*
X10667349Y-13130925D01*
X10667349Y-13130925D02*
X10676873Y-13102354D01*
X10676873Y-13102354D02*
X10686396Y-13083306D01*
X10686396Y-13083306D02*
X10705444Y-13054734D01*
X10705444Y-13054734D02*
X10714968Y-13045211D01*
X10791158Y-13140449D02*
X10791158Y-13273782D01*
X10791158Y-13159496D02*
X10800682Y-13149973D01*
X10800682Y-13149973D02*
X10819730Y-13140449D01*
X10819730Y-13140449D02*
X10848301Y-13140449D01*
X10848301Y-13140449D02*
X10867349Y-13149973D01*
X10867349Y-13149973D02*
X10876873Y-13169020D01*
X10876873Y-13169020D02*
X10876873Y-13273782D01*
X11000682Y-13273782D02*
X10981634Y-13264258D01*
X10981634Y-13264258D02*
X10972111Y-13254734D01*
X10972111Y-13254734D02*
X10962587Y-13235687D01*
X10962587Y-13235687D02*
X10962587Y-13178544D01*
X10962587Y-13178544D02*
X10972111Y-13159496D01*
X10972111Y-13159496D02*
X10981634Y-13149973D01*
X10981634Y-13149973D02*
X11000682Y-13140449D01*
X11000682Y-13140449D02*
X11029254Y-13140449D01*
X11029254Y-13140449D02*
X11048301Y-13149973D01*
X11048301Y-13149973D02*
X11057825Y-13159496D01*
X11057825Y-13159496D02*
X11067349Y-13178544D01*
X11067349Y-13178544D02*
X11067349Y-13235687D01*
X11067349Y-13235687D02*
X11057825Y-13254734D01*
X11057825Y-13254734D02*
X11048301Y-13264258D01*
X11048301Y-13264258D02*
X11029254Y-13273782D01*
X11029254Y-13273782D02*
X11000682Y-13273782D01*
X11124492Y-13140449D02*
X11200682Y-13140449D01*
X11153063Y-13073782D02*
X11153063Y-13245211D01*
X11153063Y-13245211D02*
X11162587Y-13264258D01*
X11162587Y-13264258D02*
X11181634Y-13273782D01*
X11181634Y-13273782D02*
X11200682Y-13273782D01*
X11419730Y-13140449D02*
X11419730Y-13340449D01*
X11419730Y-13149973D02*
X11438777Y-13140449D01*
X11438777Y-13140449D02*
X11476873Y-13140449D01*
X11476873Y-13140449D02*
X11495920Y-13149973D01*
X11495920Y-13149973D02*
X11505444Y-13159496D01*
X11505444Y-13159496D02*
X11514968Y-13178544D01*
X11514968Y-13178544D02*
X11514968Y-13235687D01*
X11514968Y-13235687D02*
X11505444Y-13254734D01*
X11505444Y-13254734D02*
X11495920Y-13264258D01*
X11495920Y-13264258D02*
X11476873Y-13273782D01*
X11476873Y-13273782D02*
X11438777Y-13273782D01*
X11438777Y-13273782D02*
X11419730Y-13264258D01*
X11629253Y-13273782D02*
X11610206Y-13264258D01*
X11610206Y-13264258D02*
X11600682Y-13245211D01*
X11600682Y-13245211D02*
X11600682Y-13073782D01*
X11791158Y-13273782D02*
X11791158Y-13169020D01*
X11791158Y-13169020D02*
X11781634Y-13149973D01*
X11781634Y-13149973D02*
X11762587Y-13140449D01*
X11762587Y-13140449D02*
X11724492Y-13140449D01*
X11724492Y-13140449D02*
X11705444Y-13149973D01*
X11791158Y-13264258D02*
X11772111Y-13273782D01*
X11772111Y-13273782D02*
X11724492Y-13273782D01*
X11724492Y-13273782D02*
X11705444Y-13264258D01*
X11705444Y-13264258D02*
X11695920Y-13245211D01*
X11695920Y-13245211D02*
X11695920Y-13226163D01*
X11695920Y-13226163D02*
X11705444Y-13207115D01*
X11705444Y-13207115D02*
X11724492Y-13197592D01*
X11724492Y-13197592D02*
X11772111Y-13197592D01*
X11772111Y-13197592D02*
X11791158Y-13188068D01*
X11857825Y-13140449D02*
X11934015Y-13140449D01*
X11886396Y-13073782D02*
X11886396Y-13245211D01*
X11886396Y-13245211D02*
X11895920Y-13264258D01*
X11895920Y-13264258D02*
X11914968Y-13273782D01*
X11914968Y-13273782D02*
X11934015Y-13273782D01*
X12076873Y-13264258D02*
X12057825Y-13273782D01*
X12057825Y-13273782D02*
X12019730Y-13273782D01*
X12019730Y-13273782D02*
X12000682Y-13264258D01*
X12000682Y-13264258D02*
X11991158Y-13245211D01*
X11991158Y-13245211D02*
X11991158Y-13169020D01*
X11991158Y-13169020D02*
X12000682Y-13149973D01*
X12000682Y-13149973D02*
X12019730Y-13140449D01*
X12019730Y-13140449D02*
X12057825Y-13140449D01*
X12057825Y-13140449D02*
X12076873Y-13149973D01*
X12076873Y-13149973D02*
X12086396Y-13169020D01*
X12086396Y-13169020D02*
X12086396Y-13188068D01*
X12086396Y-13188068D02*
X11991158Y-13207115D01*
X12257825Y-13273782D02*
X12257825Y-13073782D01*
X12257825Y-13264258D02*
X12238777Y-13273782D01*
X12238777Y-13273782D02*
X12200682Y-13273782D01*
X12200682Y-13273782D02*
X12181634Y-13264258D01*
X12181634Y-13264258D02*
X12172111Y-13254734D01*
X12172111Y-13254734D02*
X12162587Y-13235687D01*
X12162587Y-13235687D02*
X12162587Y-13178544D01*
X12162587Y-13178544D02*
X12172111Y-13159496D01*
X12172111Y-13159496D02*
X12181634Y-13149973D01*
X12181634Y-13149973D02*
X12200682Y-13140449D01*
X12200682Y-13140449D02*
X12238777Y-13140449D01*
X12238777Y-13140449D02*
X12257825Y-13149973D01*
X12334015Y-13349973D02*
X12343539Y-13340449D01*
X12343539Y-13340449D02*
X12362587Y-13311877D01*
X12362587Y-13311877D02*
X12372111Y-13292830D01*
X12372111Y-13292830D02*
X12381634Y-13264258D01*
X12381634Y-13264258D02*
X12391158Y-13216639D01*
X12391158Y-13216639D02*
X12391158Y-13178544D01*
X12391158Y-13178544D02*
X12381634Y-13130925D01*
X12381634Y-13130925D02*
X12372111Y-13102354D01*
X12372111Y-13102354D02*
X12362587Y-13083306D01*
X12362587Y-13083306D02*
X12343539Y-13054734D01*
X12343539Y-13054734D02*
X12334015Y-13045211D01*
X5578000Y-13446298D02*
G75*
G02*
X5378000Y-13446298I-100000J0D01*
G01*
X5378000Y-13446298D02*
G75*
G02*
X5578000Y-13446298I100000J0D01*
G01*
X5819729Y-13337782D02*
X5943539Y-13337782D01*
X5943539Y-13337782D02*
X5876872Y-13413973D01*
X5876872Y-13413973D02*
X5905443Y-13413973D01*
X5905443Y-13413973D02*
X5924491Y-13423496D01*
X5924491Y-13423496D02*
X5934015Y-13433020D01*
X5934015Y-13433020D02*
X5943539Y-13452068D01*
X5943539Y-13452068D02*
X5943539Y-13499687D01*
X5943539Y-13499687D02*
X5934015Y-13518734D01*
X5934015Y-13518734D02*
X5924491Y-13528258D01*
X5924491Y-13528258D02*
X5905443Y-13537782D01*
X5905443Y-13537782D02*
X5848301Y-13537782D01*
X5848301Y-13537782D02*
X5829253Y-13528258D01*
X5829253Y-13528258D02*
X5819729Y-13518734D01*
X6029253Y-13518734D02*
X6038777Y-13528258D01*
X6038777Y-13528258D02*
X6029253Y-13537782D01*
X6029253Y-13537782D02*
X6019729Y-13528258D01*
X6019729Y-13528258D02*
X6029253Y-13518734D01*
X6029253Y-13518734D02*
X6029253Y-13537782D01*
X6219729Y-13337782D02*
X6124491Y-13337782D01*
X6124491Y-13337782D02*
X6114967Y-13433020D01*
X6114967Y-13433020D02*
X6124491Y-13423496D01*
X6124491Y-13423496D02*
X6143539Y-13413973D01*
X6143539Y-13413973D02*
X6191158Y-13413973D01*
X6191158Y-13413973D02*
X6210205Y-13423496D01*
X6210205Y-13423496D02*
X6219729Y-13433020D01*
X6219729Y-13433020D02*
X6229253Y-13452068D01*
X6229253Y-13452068D02*
X6229253Y-13499687D01*
X6229253Y-13499687D02*
X6219729Y-13518734D01*
X6219729Y-13518734D02*
X6210205Y-13528258D01*
X6210205Y-13528258D02*
X6191158Y-13537782D01*
X6191158Y-13537782D02*
X6143539Y-13537782D01*
X6143539Y-13537782D02*
X6124491Y-13528258D01*
X6124491Y-13528258D02*
X6114967Y-13518734D01*
X6353062Y-13337782D02*
X6372110Y-13337782D01*
X6372110Y-13337782D02*
X6391158Y-13347306D01*
X6391158Y-13347306D02*
X6400682Y-13356830D01*
X6400682Y-13356830D02*
X6410205Y-13375877D01*
X6410205Y-13375877D02*
X6419729Y-13413973D01*
X6419729Y-13413973D02*
X6419729Y-13461592D01*
X6419729Y-13461592D02*
X6410205Y-13499687D01*
X6410205Y-13499687D02*
X6400682Y-13518734D01*
X6400682Y-13518734D02*
X6391158Y-13528258D01*
X6391158Y-13528258D02*
X6372110Y-13537782D01*
X6372110Y-13537782D02*
X6353062Y-13537782D01*
X6353062Y-13537782D02*
X6334015Y-13528258D01*
X6334015Y-13528258D02*
X6324491Y-13518734D01*
X6324491Y-13518734D02*
X6314967Y-13499687D01*
X6314967Y-13499687D02*
X6305443Y-13461592D01*
X6305443Y-13461592D02*
X6305443Y-13413973D01*
X6305443Y-13413973D02*
X6314967Y-13375877D01*
X6314967Y-13375877D02*
X6324491Y-13356830D01*
X6324491Y-13356830D02*
X6334015Y-13347306D01*
X6334015Y-13347306D02*
X6353062Y-13337782D01*
X6543539Y-13337782D02*
X6562586Y-13337782D01*
X6562586Y-13337782D02*
X6581634Y-13347306D01*
X6581634Y-13347306D02*
X6591158Y-13356830D01*
X6591158Y-13356830D02*
X6600682Y-13375877D01*
X6600682Y-13375877D02*
X6610205Y-13413973D01*
X6610205Y-13413973D02*
X6610205Y-13461592D01*
X6610205Y-13461592D02*
X6600682Y-13499687D01*
X6600682Y-13499687D02*
X6591158Y-13518734D01*
X6591158Y-13518734D02*
X6581634Y-13528258D01*
X6581634Y-13528258D02*
X6562586Y-13537782D01*
X6562586Y-13537782D02*
X6543539Y-13537782D01*
X6543539Y-13537782D02*
X6524491Y-13528258D01*
X6524491Y-13528258D02*
X6514967Y-13518734D01*
X6514967Y-13518734D02*
X6505443Y-13499687D01*
X6505443Y-13499687D02*
X6495920Y-13461592D01*
X6495920Y-13461592D02*
X6495920Y-13413973D01*
X6495920Y-13413973D02*
X6505443Y-13375877D01*
X6505443Y-13375877D02*
X6514967Y-13356830D01*
X6514967Y-13356830D02*
X6524491Y-13347306D01*
X6524491Y-13347306D02*
X6543539Y-13337782D01*
X6695920Y-13537782D02*
X6695920Y-13404449D01*
X6695920Y-13423496D02*
X6705443Y-13413973D01*
X6705443Y-13413973D02*
X6724491Y-13404449D01*
X6724491Y-13404449D02*
X6753063Y-13404449D01*
X6753063Y-13404449D02*
X6772110Y-13413973D01*
X6772110Y-13413973D02*
X6781634Y-13433020D01*
X6781634Y-13433020D02*
X6781634Y-13537782D01*
X6781634Y-13433020D02*
X6791158Y-13413973D01*
X6791158Y-13413973D02*
X6810205Y-13404449D01*
X6810205Y-13404449D02*
X6838777Y-13404449D01*
X6838777Y-13404449D02*
X6857824Y-13413973D01*
X6857824Y-13413973D02*
X6867348Y-13433020D01*
X6867348Y-13433020D02*
X6867348Y-13537782D01*
X6962586Y-13537782D02*
X6962586Y-13404449D01*
X6962586Y-13423496D02*
X6972110Y-13413973D01*
X6972110Y-13413973D02*
X6991158Y-13404449D01*
X6991158Y-13404449D02*
X7019729Y-13404449D01*
X7019729Y-13404449D02*
X7038777Y-13413973D01*
X7038777Y-13413973D02*
X7048301Y-13433020D01*
X7048301Y-13433020D02*
X7048301Y-13537782D01*
X7048301Y-13433020D02*
X7057824Y-13413973D01*
X7057824Y-13413973D02*
X7076872Y-13404449D01*
X7076872Y-13404449D02*
X7105443Y-13404449D01*
X7105443Y-13404449D02*
X7124491Y-13413973D01*
X7124491Y-13413973D02*
X7134015Y-13433020D01*
X7134015Y-13433020D02*
X7134015Y-13537782D01*
X7524491Y-13328258D02*
X7353063Y-13585401D01*
X7781634Y-13337782D02*
X7800682Y-13337782D01*
X7800682Y-13337782D02*
X7819729Y-13347306D01*
X7819729Y-13347306D02*
X7829253Y-13356830D01*
X7829253Y-13356830D02*
X7838777Y-13375877D01*
X7838777Y-13375877D02*
X7848301Y-13413973D01*
X7848301Y-13413973D02*
X7848301Y-13461592D01*
X7848301Y-13461592D02*
X7838777Y-13499687D01*
X7838777Y-13499687D02*
X7829253Y-13518734D01*
X7829253Y-13518734D02*
X7819729Y-13528258D01*
X7819729Y-13528258D02*
X7800682Y-13537782D01*
X7800682Y-13537782D02*
X7781634Y-13537782D01*
X7781634Y-13537782D02*
X7762586Y-13528258D01*
X7762586Y-13528258D02*
X7753063Y-13518734D01*
X7753063Y-13518734D02*
X7743539Y-13499687D01*
X7743539Y-13499687D02*
X7734015Y-13461592D01*
X7734015Y-13461592D02*
X7734015Y-13413973D01*
X7734015Y-13413973D02*
X7743539Y-13375877D01*
X7743539Y-13375877D02*
X7753063Y-13356830D01*
X7753063Y-13356830D02*
X7762586Y-13347306D01*
X7762586Y-13347306D02*
X7781634Y-13337782D01*
X7934015Y-13518734D02*
X7943539Y-13528258D01*
X7943539Y-13528258D02*
X7934015Y-13537782D01*
X7934015Y-13537782D02*
X7924491Y-13528258D01*
X7924491Y-13528258D02*
X7934015Y-13518734D01*
X7934015Y-13518734D02*
X7934015Y-13537782D01*
X8134015Y-13537782D02*
X8019729Y-13537782D01*
X8076872Y-13537782D02*
X8076872Y-13337782D01*
X8076872Y-13337782D02*
X8057825Y-13366354D01*
X8057825Y-13366354D02*
X8038777Y-13385401D01*
X8038777Y-13385401D02*
X8019729Y-13394925D01*
X8200682Y-13337782D02*
X8324491Y-13337782D01*
X8324491Y-13337782D02*
X8257825Y-13413973D01*
X8257825Y-13413973D02*
X8286396Y-13413973D01*
X8286396Y-13413973D02*
X8305444Y-13423496D01*
X8305444Y-13423496D02*
X8314967Y-13433020D01*
X8314967Y-13433020D02*
X8324491Y-13452068D01*
X8324491Y-13452068D02*
X8324491Y-13499687D01*
X8324491Y-13499687D02*
X8314967Y-13518734D01*
X8314967Y-13518734D02*
X8305444Y-13528258D01*
X8305444Y-13528258D02*
X8286396Y-13537782D01*
X8286396Y-13537782D02*
X8229253Y-13537782D01*
X8229253Y-13537782D02*
X8210206Y-13528258D01*
X8210206Y-13528258D02*
X8200682Y-13518734D01*
X8391158Y-13337782D02*
X8524491Y-13337782D01*
X8524491Y-13337782D02*
X8438777Y-13537782D01*
X8629253Y-13423496D02*
X8610206Y-13413973D01*
X8610206Y-13413973D02*
X8600682Y-13404449D01*
X8600682Y-13404449D02*
X8591158Y-13385401D01*
X8591158Y-13385401D02*
X8591158Y-13375877D01*
X8591158Y-13375877D02*
X8600682Y-13356830D01*
X8600682Y-13356830D02*
X8610206Y-13347306D01*
X8610206Y-13347306D02*
X8629253Y-13337782D01*
X8629253Y-13337782D02*
X8667349Y-13337782D01*
X8667349Y-13337782D02*
X8686396Y-13347306D01*
X8686396Y-13347306D02*
X8695920Y-13356830D01*
X8695920Y-13356830D02*
X8705444Y-13375877D01*
X8705444Y-13375877D02*
X8705444Y-13385401D01*
X8705444Y-13385401D02*
X8695920Y-13404449D01*
X8695920Y-13404449D02*
X8686396Y-13413973D01*
X8686396Y-13413973D02*
X8667349Y-13423496D01*
X8667349Y-13423496D02*
X8629253Y-13423496D01*
X8629253Y-13423496D02*
X8610206Y-13433020D01*
X8610206Y-13433020D02*
X8600682Y-13442544D01*
X8600682Y-13442544D02*
X8591158Y-13461592D01*
X8591158Y-13461592D02*
X8591158Y-13499687D01*
X8591158Y-13499687D02*
X8600682Y-13518734D01*
X8600682Y-13518734D02*
X8610206Y-13528258D01*
X8610206Y-13528258D02*
X8629253Y-13537782D01*
X8629253Y-13537782D02*
X8667349Y-13537782D01*
X8667349Y-13537782D02*
X8686396Y-13528258D01*
X8686396Y-13528258D02*
X8695920Y-13518734D01*
X8695920Y-13518734D02*
X8705444Y-13499687D01*
X8705444Y-13499687D02*
X8705444Y-13461592D01*
X8705444Y-13461592D02*
X8695920Y-13442544D01*
X8695920Y-13442544D02*
X8686396Y-13433020D01*
X8686396Y-13433020D02*
X8667349Y-13423496D01*
X8781634Y-13337782D02*
X8781634Y-13375877D01*
X8857825Y-13337782D02*
X8857825Y-13375877D01*
X9153063Y-13613973D02*
X9143539Y-13604449D01*
X9143539Y-13604449D02*
X9124491Y-13575877D01*
X9124491Y-13575877D02*
X9114968Y-13556830D01*
X9114968Y-13556830D02*
X9105444Y-13528258D01*
X9105444Y-13528258D02*
X9095920Y-13480639D01*
X9095920Y-13480639D02*
X9095920Y-13442544D01*
X9095920Y-13442544D02*
X9105444Y-13394925D01*
X9105444Y-13394925D02*
X9114968Y-13366354D01*
X9114968Y-13366354D02*
X9124491Y-13347306D01*
X9124491Y-13347306D02*
X9143539Y-13318734D01*
X9143539Y-13318734D02*
X9153063Y-13309211D01*
X9314968Y-13404449D02*
X9314968Y-13537782D01*
X9267349Y-13328258D02*
X9219730Y-13471115D01*
X9219730Y-13471115D02*
X9343539Y-13471115D01*
X9572111Y-13537782D02*
X9572111Y-13337782D01*
X9657825Y-13537782D02*
X9657825Y-13433020D01*
X9657825Y-13433020D02*
X9648301Y-13413973D01*
X9648301Y-13413973D02*
X9629253Y-13404449D01*
X9629253Y-13404449D02*
X9600682Y-13404449D01*
X9600682Y-13404449D02*
X9581634Y-13413973D01*
X9581634Y-13413973D02*
X9572111Y-13423496D01*
X9781634Y-13537782D02*
X9762587Y-13528258D01*
X9762587Y-13528258D02*
X9753063Y-13518734D01*
X9753063Y-13518734D02*
X9743539Y-13499687D01*
X9743539Y-13499687D02*
X9743539Y-13442544D01*
X9743539Y-13442544D02*
X9753063Y-13423496D01*
X9753063Y-13423496D02*
X9762587Y-13413973D01*
X9762587Y-13413973D02*
X9781634Y-13404449D01*
X9781634Y-13404449D02*
X9810206Y-13404449D01*
X9810206Y-13404449D02*
X9829253Y-13413973D01*
X9829253Y-13413973D02*
X9838777Y-13423496D01*
X9838777Y-13423496D02*
X9848301Y-13442544D01*
X9848301Y-13442544D02*
X9848301Y-13499687D01*
X9848301Y-13499687D02*
X9838777Y-13518734D01*
X9838777Y-13518734D02*
X9829253Y-13528258D01*
X9829253Y-13528258D02*
X9810206Y-13537782D01*
X9810206Y-13537782D02*
X9781634Y-13537782D01*
X9962587Y-13537782D02*
X9943539Y-13528258D01*
X9943539Y-13528258D02*
X9934015Y-13509211D01*
X9934015Y-13509211D02*
X9934015Y-13337782D01*
X10114968Y-13528258D02*
X10095920Y-13537782D01*
X10095920Y-13537782D02*
X10057825Y-13537782D01*
X10057825Y-13537782D02*
X10038777Y-13528258D01*
X10038777Y-13528258D02*
X10029253Y-13509211D01*
X10029253Y-13509211D02*
X10029253Y-13433020D01*
X10029253Y-13433020D02*
X10038777Y-13413973D01*
X10038777Y-13413973D02*
X10057825Y-13404449D01*
X10057825Y-13404449D02*
X10095920Y-13404449D01*
X10095920Y-13404449D02*
X10114968Y-13413973D01*
X10114968Y-13413973D02*
X10124492Y-13433020D01*
X10124492Y-13433020D02*
X10124492Y-13452068D01*
X10124492Y-13452068D02*
X10029253Y-13471115D01*
X10200682Y-13528258D02*
X10219730Y-13537782D01*
X10219730Y-13537782D02*
X10257825Y-13537782D01*
X10257825Y-13537782D02*
X10276873Y-13528258D01*
X10276873Y-13528258D02*
X10286396Y-13509211D01*
X10286396Y-13509211D02*
X10286396Y-13499687D01*
X10286396Y-13499687D02*
X10276873Y-13480639D01*
X10276873Y-13480639D02*
X10257825Y-13471115D01*
X10257825Y-13471115D02*
X10229253Y-13471115D01*
X10229253Y-13471115D02*
X10210206Y-13461592D01*
X10210206Y-13461592D02*
X10200682Y-13442544D01*
X10200682Y-13442544D02*
X10200682Y-13433020D01*
X10200682Y-13433020D02*
X10210206Y-13413973D01*
X10210206Y-13413973D02*
X10229253Y-13404449D01*
X10229253Y-13404449D02*
X10257825Y-13404449D01*
X10257825Y-13404449D02*
X10276873Y-13413973D01*
X10353063Y-13613973D02*
X10362587Y-13604449D01*
X10362587Y-13604449D02*
X10381634Y-13575877D01*
X10381634Y-13575877D02*
X10391158Y-13556830D01*
X10391158Y-13556830D02*
X10400682Y-13528258D01*
X10400682Y-13528258D02*
X10410206Y-13480639D01*
X10410206Y-13480639D02*
X10410206Y-13442544D01*
X10410206Y-13442544D02*
X10400682Y-13394925D01*
X10400682Y-13394925D02*
X10391158Y-13366354D01*
X10391158Y-13366354D02*
X10381634Y-13347306D01*
X10381634Y-13347306D02*
X10362587Y-13318734D01*
X10362587Y-13318734D02*
X10353063Y-13309211D01*
X10714968Y-13613973D02*
X10705444Y-13604449D01*
X10705444Y-13604449D02*
X10686396Y-13575877D01*
X10686396Y-13575877D02*
X10676873Y-13556830D01*
X10676873Y-13556830D02*
X10667349Y-13528258D01*
X10667349Y-13528258D02*
X10657825Y-13480639D01*
X10657825Y-13480639D02*
X10657825Y-13442544D01*
X10657825Y-13442544D02*
X10667349Y-13394925D01*
X10667349Y-13394925D02*
X10676873Y-13366354D01*
X10676873Y-13366354D02*
X10686396Y-13347306D01*
X10686396Y-13347306D02*
X10705444Y-13318734D01*
X10705444Y-13318734D02*
X10714968Y-13309211D01*
X10791158Y-13404449D02*
X10791158Y-13537782D01*
X10791158Y-13423496D02*
X10800682Y-13413973D01*
X10800682Y-13413973D02*
X10819730Y-13404449D01*
X10819730Y-13404449D02*
X10848301Y-13404449D01*
X10848301Y-13404449D02*
X10867349Y-13413973D01*
X10867349Y-13413973D02*
X10876873Y-13433020D01*
X10876873Y-13433020D02*
X10876873Y-13537782D01*
X11000682Y-13537782D02*
X10981634Y-13528258D01*
X10981634Y-13528258D02*
X10972111Y-13518734D01*
X10972111Y-13518734D02*
X10962587Y-13499687D01*
X10962587Y-13499687D02*
X10962587Y-13442544D01*
X10962587Y-13442544D02*
X10972111Y-13423496D01*
X10972111Y-13423496D02*
X10981634Y-13413973D01*
X10981634Y-13413973D02*
X11000682Y-13404449D01*
X11000682Y-13404449D02*
X11029254Y-13404449D01*
X11029254Y-13404449D02*
X11048301Y-13413973D01*
X11048301Y-13413973D02*
X11057825Y-13423496D01*
X11057825Y-13423496D02*
X11067349Y-13442544D01*
X11067349Y-13442544D02*
X11067349Y-13499687D01*
X11067349Y-13499687D02*
X11057825Y-13518734D01*
X11057825Y-13518734D02*
X11048301Y-13528258D01*
X11048301Y-13528258D02*
X11029254Y-13537782D01*
X11029254Y-13537782D02*
X11000682Y-13537782D01*
X11124492Y-13404449D02*
X11200682Y-13404449D01*
X11153063Y-13337782D02*
X11153063Y-13509211D01*
X11153063Y-13509211D02*
X11162587Y-13528258D01*
X11162587Y-13528258D02*
X11181634Y-13537782D01*
X11181634Y-13537782D02*
X11200682Y-13537782D01*
X11419730Y-13404449D02*
X11419730Y-13604449D01*
X11419730Y-13413973D02*
X11438777Y-13404449D01*
X11438777Y-13404449D02*
X11476873Y-13404449D01*
X11476873Y-13404449D02*
X11495920Y-13413973D01*
X11495920Y-13413973D02*
X11505444Y-13423496D01*
X11505444Y-13423496D02*
X11514968Y-13442544D01*
X11514968Y-13442544D02*
X11514968Y-13499687D01*
X11514968Y-13499687D02*
X11505444Y-13518734D01*
X11505444Y-13518734D02*
X11495920Y-13528258D01*
X11495920Y-13528258D02*
X11476873Y-13537782D01*
X11476873Y-13537782D02*
X11438777Y-13537782D01*
X11438777Y-13537782D02*
X11419730Y-13528258D01*
X11629253Y-13537782D02*
X11610206Y-13528258D01*
X11610206Y-13528258D02*
X11600682Y-13509211D01*
X11600682Y-13509211D02*
X11600682Y-13337782D01*
X11791158Y-13537782D02*
X11791158Y-13433020D01*
X11791158Y-13433020D02*
X11781634Y-13413973D01*
X11781634Y-13413973D02*
X11762587Y-13404449D01*
X11762587Y-13404449D02*
X11724492Y-13404449D01*
X11724492Y-13404449D02*
X11705444Y-13413973D01*
X11791158Y-13528258D02*
X11772111Y-13537782D01*
X11772111Y-13537782D02*
X11724492Y-13537782D01*
X11724492Y-13537782D02*
X11705444Y-13528258D01*
X11705444Y-13528258D02*
X11695920Y-13509211D01*
X11695920Y-13509211D02*
X11695920Y-13490163D01*
X11695920Y-13490163D02*
X11705444Y-13471115D01*
X11705444Y-13471115D02*
X11724492Y-13461592D01*
X11724492Y-13461592D02*
X11772111Y-13461592D01*
X11772111Y-13461592D02*
X11791158Y-13452068D01*
X11857825Y-13404449D02*
X11934015Y-13404449D01*
X11886396Y-13337782D02*
X11886396Y-13509211D01*
X11886396Y-13509211D02*
X11895920Y-13528258D01*
X11895920Y-13528258D02*
X11914968Y-13537782D01*
X11914968Y-13537782D02*
X11934015Y-13537782D01*
X12076873Y-13528258D02*
X12057825Y-13537782D01*
X12057825Y-13537782D02*
X12019730Y-13537782D01*
X12019730Y-13537782D02*
X12000682Y-13528258D01*
X12000682Y-13528258D02*
X11991158Y-13509211D01*
X11991158Y-13509211D02*
X11991158Y-13433020D01*
X11991158Y-13433020D02*
X12000682Y-13413973D01*
X12000682Y-13413973D02*
X12019730Y-13404449D01*
X12019730Y-13404449D02*
X12057825Y-13404449D01*
X12057825Y-13404449D02*
X12076873Y-13413973D01*
X12076873Y-13413973D02*
X12086396Y-13433020D01*
X12086396Y-13433020D02*
X12086396Y-13452068D01*
X12086396Y-13452068D02*
X11991158Y-13471115D01*
X12257825Y-13537782D02*
X12257825Y-13337782D01*
X12257825Y-13528258D02*
X12238777Y-13537782D01*
X12238777Y-13537782D02*
X12200682Y-13537782D01*
X12200682Y-13537782D02*
X12181634Y-13528258D01*
X12181634Y-13528258D02*
X12172111Y-13518734D01*
X12172111Y-13518734D02*
X12162587Y-13499687D01*
X12162587Y-13499687D02*
X12162587Y-13442544D01*
X12162587Y-13442544D02*
X12172111Y-13423496D01*
X12172111Y-13423496D02*
X12181634Y-13413973D01*
X12181634Y-13413973D02*
X12200682Y-13404449D01*
X12200682Y-13404449D02*
X12238777Y-13404449D01*
X12238777Y-13404449D02*
X12257825Y-13413973D01*
X12334015Y-13613973D02*
X12343539Y-13604449D01*
X12343539Y-13604449D02*
X12362587Y-13575877D01*
X12362587Y-13575877D02*
X12372111Y-13556830D01*
X12372111Y-13556830D02*
X12381634Y-13528258D01*
X12381634Y-13528258D02*
X12391158Y-13480639D01*
X12391158Y-13480639D02*
X12391158Y-13442544D01*
X12391158Y-13442544D02*
X12381634Y-13394925D01*
X12381634Y-13394925D02*
X12372111Y-13366354D01*
X12372111Y-13366354D02*
X12362587Y-13347306D01*
X12362587Y-13347306D02*
X12343539Y-13318734D01*
X12343539Y-13318734D02*
X12334015Y-13309211D01*
M02*
