%TF.GenerationSoftware,KiCad,Pcbnew,9.0.1*%
%TF.CreationDate,2025-04-14T20:06:37-03:00*%
%TF.ProjectId,SRAD_computer,53524144-5f63-46f6-9d70-757465722e6b,rev?*%
%TF.SameCoordinates,Original*%
%TF.FileFunction,Paste,Top*%
%TF.FilePolarity,Positive*%
%FSLAX46Y46*%
G04 Gerber Fmt 4.6, Leading zero omitted, Abs format (unit mm)*
G04 Created by KiCad (PCBNEW 9.0.1) date 2025-04-14 20:06:37*
%MOMM*%
%LPD*%
G01*
G04 APERTURE LIST*
G04 Aperture macros list*
%AMRoundRect*
0 Rectangle with rounded corners*
0 $1 Rounding radius*
0 $2 $3 $4 $5 $6 $7 $8 $9 X,Y pos of 4 corners*
0 Add a 4 corners polygon primitive as box body*
4,1,4,$2,$3,$4,$5,$6,$7,$8,$9,$2,$3,0*
0 Add four circle primitives for the rounded corners*
1,1,$1+$1,$2,$3*
1,1,$1+$1,$4,$5*
1,1,$1+$1,$6,$7*
1,1,$1+$1,$8,$9*
0 Add four rect primitives between the rounded corners*
20,1,$1+$1,$2,$3,$4,$5,0*
20,1,$1+$1,$4,$5,$6,$7,0*
20,1,$1+$1,$6,$7,$8,$9,0*
20,1,$1+$1,$8,$9,$2,$3,0*%
G04 Aperture macros list end*
%ADD10C,0.010000*%
%ADD11RoundRect,0.250000X-0.450000X0.325000X-0.450000X-0.325000X0.450000X-0.325000X0.450000X0.325000X0*%
%ADD12RoundRect,0.250000X-0.475000X0.337500X-0.475000X-0.337500X0.475000X-0.337500X0.475000X0.337500X0*%
%ADD13RoundRect,0.250000X0.475000X-0.250000X0.475000X0.250000X-0.475000X0.250000X-0.475000X-0.250000X0*%
%ADD14RoundRect,0.250000X0.262500X0.450000X-0.262500X0.450000X-0.262500X-0.450000X0.262500X-0.450000X0*%
%ADD15RoundRect,0.250000X-0.450000X0.350000X-0.450000X-0.350000X0.450000X-0.350000X0.450000X0.350000X0*%
%ADD16R,0.300000X0.900000*%
%ADD17RoundRect,0.250000X0.337500X0.475000X-0.337500X0.475000X-0.337500X-0.475000X0.337500X-0.475000X0*%
%ADD18RoundRect,0.250000X-0.475000X0.250000X-0.475000X-0.250000X0.475000X-0.250000X0.475000X0.250000X0*%
%ADD19RoundRect,0.250000X0.350000X0.450000X-0.350000X0.450000X-0.350000X-0.450000X0.350000X-0.450000X0*%
%ADD20RoundRect,0.375000X-0.625000X-0.375000X0.625000X-0.375000X0.625000X0.375000X-0.625000X0.375000X0*%
%ADD21RoundRect,0.500000X-0.500000X-1.400000X0.500000X-1.400000X0.500000X1.400000X-0.500000X1.400000X0*%
%ADD22RoundRect,0.250000X-0.450000X0.262500X-0.450000X-0.262500X0.450000X-0.262500X0.450000X0.262500X0*%
%ADD23R,1.050000X0.650000*%
%ADD24RoundRect,0.162500X0.162500X-0.650000X0.162500X0.650000X-0.162500X0.650000X-0.162500X-0.650000X0*%
%ADD25RoundRect,0.250000X-0.350000X-0.450000X0.350000X-0.450000X0.350000X0.450000X-0.350000X0.450000X0*%
%ADD26RoundRect,0.250000X0.475000X-0.337500X0.475000X0.337500X-0.475000X0.337500X-0.475000X-0.337500X0*%
%ADD27RoundRect,0.250000X-0.337500X-0.475000X0.337500X-0.475000X0.337500X0.475000X-0.337500X0.475000X0*%
%ADD28RoundRect,0.250000X0.450000X-0.350000X0.450000X0.350000X-0.450000X0.350000X-0.450000X-0.350000X0*%
%ADD29RoundRect,0.250000X0.250000X0.475000X-0.250000X0.475000X-0.250000X-0.475000X0.250000X-0.475000X0*%
%ADD30RoundRect,0.027500X-0.292500X-0.082500X0.292500X-0.082500X0.292500X0.082500X-0.292500X0.082500X0*%
%ADD31RoundRect,0.027500X-0.082500X-0.292500X0.082500X-0.292500X0.082500X0.292500X-0.082500X0.292500X0*%
%ADD32RoundRect,0.056250X0.168750X-0.188750X0.168750X0.188750X-0.168750X0.188750X-0.168750X-0.188750X0*%
%ADD33RoundRect,0.250000X-0.250000X-0.475000X0.250000X-0.475000X0.250000X0.475000X-0.250000X0.475000X0*%
%ADD34RoundRect,0.250000X-0.262500X-0.450000X0.262500X-0.450000X0.262500X0.450000X-0.262500X0.450000X0*%
%ADD35RoundRect,0.250000X-0.292217X-0.292217X0.292217X-0.292217X0.292217X0.292217X-0.292217X0.292217X0*%
%ADD36RoundRect,0.050000X-0.387500X-0.050000X0.387500X-0.050000X0.387500X0.050000X-0.387500X0.050000X0*%
%ADD37RoundRect,0.050000X-0.050000X-0.387500X0.050000X-0.387500X0.050000X0.387500X-0.050000X0.387500X0*%
%ADD38R,0.800000X1.500000*%
%ADD39R,1.400000X1.900000*%
%ADD40R,1.800000X1.400000*%
G04 APERTURE END LIST*
D10*
%TO.C,U5*%
X110492587Y-63219975D02*
X109417413Y-63219975D01*
X109417413Y-62245993D01*
X110492587Y-62245993D01*
X110492587Y-63219975D01*
G36*
X110492587Y-63219975D02*
G01*
X109417413Y-63219975D01*
X109417413Y-62245993D01*
X110492587Y-62245993D01*
X110492587Y-63219975D01*
G37*
%TO.C,U6*%
X88130000Y-95017984D02*
X87410000Y-95017984D01*
X87410000Y-94437984D01*
X88130000Y-94437984D01*
X88130000Y-95017984D01*
G36*
X88130000Y-95017984D02*
G01*
X87410000Y-95017984D01*
X87410000Y-94437984D01*
X88130000Y-94437984D01*
X88130000Y-95017984D01*
G37*
X88130000Y-95867984D02*
X87410000Y-95867984D01*
X87410000Y-95287984D01*
X88130000Y-95287984D01*
X88130000Y-95867984D01*
G36*
X88130000Y-95867984D02*
G01*
X87410000Y-95867984D01*
X87410000Y-95287984D01*
X88130000Y-95287984D01*
X88130000Y-95867984D01*
G37*
X88130000Y-96917984D02*
X87410000Y-96917984D01*
X87410000Y-96337984D01*
X88130000Y-96337984D01*
X88130000Y-96917984D01*
G36*
X88130000Y-96917984D02*
G01*
X87410000Y-96917984D01*
X87410000Y-96337984D01*
X88130000Y-96337984D01*
X88130000Y-96917984D01*
G37*
X88130000Y-97767984D02*
X87410000Y-97767984D01*
X87410000Y-97187984D01*
X88130000Y-97187984D01*
X88130000Y-97767984D01*
G36*
X88130000Y-97767984D02*
G01*
X87410000Y-97767984D01*
X87410000Y-97187984D01*
X88130000Y-97187984D01*
X88130000Y-97767984D01*
G37*
X88130000Y-98817984D02*
X87410000Y-98817984D01*
X87410000Y-98237984D01*
X88130000Y-98237984D01*
X88130000Y-98817984D01*
G36*
X88130000Y-98817984D02*
G01*
X87410000Y-98817984D01*
X87410000Y-98237984D01*
X88130000Y-98237984D01*
X88130000Y-98817984D01*
G37*
X88130000Y-99667984D02*
X87410000Y-99667984D01*
X87410000Y-99087984D01*
X88130000Y-99087984D01*
X88130000Y-99667984D01*
G36*
X88130000Y-99667984D02*
G01*
X87410000Y-99667984D01*
X87410000Y-99087984D01*
X88130000Y-99087984D01*
X88130000Y-99667984D01*
G37*
X88130000Y-100717984D02*
X87410000Y-100717984D01*
X87410000Y-100137984D01*
X88130000Y-100137984D01*
X88130000Y-100717984D01*
G36*
X88130000Y-100717984D02*
G01*
X87410000Y-100717984D01*
X87410000Y-100137984D01*
X88130000Y-100137984D01*
X88130000Y-100717984D01*
G37*
X88130000Y-101567984D02*
X87410000Y-101567984D01*
X87410000Y-100987984D01*
X88130000Y-100987984D01*
X88130000Y-101567984D01*
G36*
X88130000Y-101567984D02*
G01*
X87410000Y-101567984D01*
X87410000Y-100987984D01*
X88130000Y-100987984D01*
X88130000Y-101567984D01*
G37*
X88130000Y-102617984D02*
X87410000Y-102617984D01*
X87410000Y-102037984D01*
X88130000Y-102037984D01*
X88130000Y-102617984D01*
G36*
X88130000Y-102617984D02*
G01*
X87410000Y-102617984D01*
X87410000Y-102037984D01*
X88130000Y-102037984D01*
X88130000Y-102617984D01*
G37*
X88130000Y-103467984D02*
X87410000Y-103467984D01*
X87410000Y-102887984D01*
X88130000Y-102887984D01*
X88130000Y-103467984D01*
G36*
X88130000Y-103467984D02*
G01*
X87410000Y-103467984D01*
X87410000Y-102887984D01*
X88130000Y-102887984D01*
X88130000Y-103467984D01*
G37*
X89130000Y-95017984D02*
X88410000Y-95017984D01*
X88410000Y-94437984D01*
X89130000Y-94437984D01*
X89130000Y-95017984D01*
G36*
X89130000Y-95017984D02*
G01*
X88410000Y-95017984D01*
X88410000Y-94437984D01*
X89130000Y-94437984D01*
X89130000Y-95017984D01*
G37*
X89130000Y-95867984D02*
X88410000Y-95867984D01*
X88410000Y-95287984D01*
X89130000Y-95287984D01*
X89130000Y-95867984D01*
G36*
X89130000Y-95867984D02*
G01*
X88410000Y-95867984D01*
X88410000Y-95287984D01*
X89130000Y-95287984D01*
X89130000Y-95867984D01*
G37*
X89130000Y-96917984D02*
X88410000Y-96917984D01*
X88410000Y-96337984D01*
X89130000Y-96337984D01*
X89130000Y-96917984D01*
G36*
X89130000Y-96917984D02*
G01*
X88410000Y-96917984D01*
X88410000Y-96337984D01*
X89130000Y-96337984D01*
X89130000Y-96917984D01*
G37*
X89130000Y-97767984D02*
X88410000Y-97767984D01*
X88410000Y-97187984D01*
X89130000Y-97187984D01*
X89130000Y-97767984D01*
G36*
X89130000Y-97767984D02*
G01*
X88410000Y-97767984D01*
X88410000Y-97187984D01*
X89130000Y-97187984D01*
X89130000Y-97767984D01*
G37*
X89130000Y-98817984D02*
X88410000Y-98817984D01*
X88410000Y-98237984D01*
X89130000Y-98237984D01*
X89130000Y-98817984D01*
G36*
X89130000Y-98817984D02*
G01*
X88410000Y-98817984D01*
X88410000Y-98237984D01*
X89130000Y-98237984D01*
X89130000Y-98817984D01*
G37*
X89130000Y-99667984D02*
X88410000Y-99667984D01*
X88410000Y-99087984D01*
X89130000Y-99087984D01*
X89130000Y-99667984D01*
G36*
X89130000Y-99667984D02*
G01*
X88410000Y-99667984D01*
X88410000Y-99087984D01*
X89130000Y-99087984D01*
X89130000Y-99667984D01*
G37*
X89130000Y-100717984D02*
X88410000Y-100717984D01*
X88410000Y-100137984D01*
X89130000Y-100137984D01*
X89130000Y-100717984D01*
G36*
X89130000Y-100717984D02*
G01*
X88410000Y-100717984D01*
X88410000Y-100137984D01*
X89130000Y-100137984D01*
X89130000Y-100717984D01*
G37*
X89130000Y-101567984D02*
X88410000Y-101567984D01*
X88410000Y-100987984D01*
X89130000Y-100987984D01*
X89130000Y-101567984D01*
G36*
X89130000Y-101567984D02*
G01*
X88410000Y-101567984D01*
X88410000Y-100987984D01*
X89130000Y-100987984D01*
X89130000Y-101567984D01*
G37*
X89130000Y-102617984D02*
X88410000Y-102617984D01*
X88410000Y-102037984D01*
X89130000Y-102037984D01*
X89130000Y-102617984D01*
G36*
X89130000Y-102617984D02*
G01*
X88410000Y-102617984D01*
X88410000Y-102037984D01*
X89130000Y-102037984D01*
X89130000Y-102617984D01*
G37*
X89130000Y-103467984D02*
X88410000Y-103467984D01*
X88410000Y-102887984D01*
X89130000Y-102887984D01*
X89130000Y-103467984D01*
G36*
X89130000Y-103467984D02*
G01*
X88410000Y-103467984D01*
X88410000Y-102887984D01*
X89130000Y-102887984D01*
X89130000Y-103467984D01*
G37*
X90935000Y-92212984D02*
X90355000Y-92212984D01*
X90355000Y-91492984D01*
X90935000Y-91492984D01*
X90935000Y-92212984D01*
G36*
X90935000Y-92212984D02*
G01*
X90355000Y-92212984D01*
X90355000Y-91492984D01*
X90935000Y-91492984D01*
X90935000Y-92212984D01*
G37*
X90935000Y-93212984D02*
X90355000Y-93212984D01*
X90355000Y-92492984D01*
X90935000Y-92492984D01*
X90935000Y-93212984D01*
G36*
X90935000Y-93212984D02*
G01*
X90355000Y-93212984D01*
X90355000Y-92492984D01*
X90935000Y-92492984D01*
X90935000Y-93212984D01*
G37*
X90935000Y-105412984D02*
X90355000Y-105412984D01*
X90355000Y-104692984D01*
X90935000Y-104692984D01*
X90935000Y-105412984D01*
G36*
X90935000Y-105412984D02*
G01*
X90355000Y-105412984D01*
X90355000Y-104692984D01*
X90935000Y-104692984D01*
X90935000Y-105412984D01*
G37*
X90935000Y-106412984D02*
X90355000Y-106412984D01*
X90355000Y-105692984D01*
X90935000Y-105692984D01*
X90935000Y-106412984D01*
G36*
X90935000Y-106412984D02*
G01*
X90355000Y-106412984D01*
X90355000Y-105692984D01*
X90935000Y-105692984D01*
X90935000Y-106412984D01*
G37*
X91785000Y-92212984D02*
X91205000Y-92212984D01*
X91205000Y-91492984D01*
X91785000Y-91492984D01*
X91785000Y-92212984D01*
G36*
X91785000Y-92212984D02*
G01*
X91205000Y-92212984D01*
X91205000Y-91492984D01*
X91785000Y-91492984D01*
X91785000Y-92212984D01*
G37*
X91785000Y-93212984D02*
X91205000Y-93212984D01*
X91205000Y-92492984D01*
X91785000Y-92492984D01*
X91785000Y-93212984D01*
G36*
X91785000Y-93212984D02*
G01*
X91205000Y-93212984D01*
X91205000Y-92492984D01*
X91785000Y-92492984D01*
X91785000Y-93212984D01*
G37*
X91785000Y-105412984D02*
X91205000Y-105412984D01*
X91205000Y-104692984D01*
X91785000Y-104692984D01*
X91785000Y-105412984D01*
G36*
X91785000Y-105412984D02*
G01*
X91205000Y-105412984D01*
X91205000Y-104692984D01*
X91785000Y-104692984D01*
X91785000Y-105412984D01*
G37*
X91785000Y-106412984D02*
X91205000Y-106412984D01*
X91205000Y-105692984D01*
X91785000Y-105692984D01*
X91785000Y-106412984D01*
G36*
X91785000Y-106412984D02*
G01*
X91205000Y-106412984D01*
X91205000Y-105692984D01*
X91785000Y-105692984D01*
X91785000Y-106412984D01*
G37*
X92835000Y-92212984D02*
X92255000Y-92212984D01*
X92255000Y-91492984D01*
X92835000Y-91492984D01*
X92835000Y-92212984D01*
G36*
X92835000Y-92212984D02*
G01*
X92255000Y-92212984D01*
X92255000Y-91492984D01*
X92835000Y-91492984D01*
X92835000Y-92212984D01*
G37*
X92835000Y-93212984D02*
X92255000Y-93212984D01*
X92255000Y-92492984D01*
X92835000Y-92492984D01*
X92835000Y-93212984D01*
G36*
X92835000Y-93212984D02*
G01*
X92255000Y-93212984D01*
X92255000Y-92492984D01*
X92835000Y-92492984D01*
X92835000Y-93212984D01*
G37*
X92835000Y-105412984D02*
X92255000Y-105412984D01*
X92255000Y-104692984D01*
X92835000Y-104692984D01*
X92835000Y-105412984D01*
G36*
X92835000Y-105412984D02*
G01*
X92255000Y-105412984D01*
X92255000Y-104692984D01*
X92835000Y-104692984D01*
X92835000Y-105412984D01*
G37*
X92835000Y-106412984D02*
X92255000Y-106412984D01*
X92255000Y-105692984D01*
X92835000Y-105692984D01*
X92835000Y-106412984D01*
G36*
X92835000Y-106412984D02*
G01*
X92255000Y-106412984D01*
X92255000Y-105692984D01*
X92835000Y-105692984D01*
X92835000Y-106412984D01*
G37*
X93685000Y-92212984D02*
X93105000Y-92212984D01*
X93105000Y-91492984D01*
X93685000Y-91492984D01*
X93685000Y-92212984D01*
G36*
X93685000Y-92212984D02*
G01*
X93105000Y-92212984D01*
X93105000Y-91492984D01*
X93685000Y-91492984D01*
X93685000Y-92212984D01*
G37*
X93685000Y-93212984D02*
X93105000Y-93212984D01*
X93105000Y-92492984D01*
X93685000Y-92492984D01*
X93685000Y-93212984D01*
G36*
X93685000Y-93212984D02*
G01*
X93105000Y-93212984D01*
X93105000Y-92492984D01*
X93685000Y-92492984D01*
X93685000Y-93212984D01*
G37*
X93685000Y-105412984D02*
X93105000Y-105412984D01*
X93105000Y-104692984D01*
X93685000Y-104692984D01*
X93685000Y-105412984D01*
G36*
X93685000Y-105412984D02*
G01*
X93105000Y-105412984D01*
X93105000Y-104692984D01*
X93685000Y-104692984D01*
X93685000Y-105412984D01*
G37*
X93685000Y-106412984D02*
X93105000Y-106412984D01*
X93105000Y-105692984D01*
X93685000Y-105692984D01*
X93685000Y-106412984D01*
G36*
X93685000Y-106412984D02*
G01*
X93105000Y-106412984D01*
X93105000Y-105692984D01*
X93685000Y-105692984D01*
X93685000Y-106412984D01*
G37*
X94735000Y-92212984D02*
X94155000Y-92212984D01*
X94155000Y-91492984D01*
X94735000Y-91492984D01*
X94735000Y-92212984D01*
G36*
X94735000Y-92212984D02*
G01*
X94155000Y-92212984D01*
X94155000Y-91492984D01*
X94735000Y-91492984D01*
X94735000Y-92212984D01*
G37*
X94735000Y-93212984D02*
X94155000Y-93212984D01*
X94155000Y-92492984D01*
X94735000Y-92492984D01*
X94735000Y-93212984D01*
G36*
X94735000Y-93212984D02*
G01*
X94155000Y-93212984D01*
X94155000Y-92492984D01*
X94735000Y-92492984D01*
X94735000Y-93212984D01*
G37*
X94735000Y-105412984D02*
X94155000Y-105412984D01*
X94155000Y-104692984D01*
X94735000Y-104692984D01*
X94735000Y-105412984D01*
G36*
X94735000Y-105412984D02*
G01*
X94155000Y-105412984D01*
X94155000Y-104692984D01*
X94735000Y-104692984D01*
X94735000Y-105412984D01*
G37*
X94735000Y-106412984D02*
X94155000Y-106412984D01*
X94155000Y-105692984D01*
X94735000Y-105692984D01*
X94735000Y-106412984D01*
G36*
X94735000Y-106412984D02*
G01*
X94155000Y-106412984D01*
X94155000Y-105692984D01*
X94735000Y-105692984D01*
X94735000Y-106412984D01*
G37*
X95585000Y-92212984D02*
X95005000Y-92212984D01*
X95005000Y-91492984D01*
X95585000Y-91492984D01*
X95585000Y-92212984D01*
G36*
X95585000Y-92212984D02*
G01*
X95005000Y-92212984D01*
X95005000Y-91492984D01*
X95585000Y-91492984D01*
X95585000Y-92212984D01*
G37*
X95585000Y-93212984D02*
X95005000Y-93212984D01*
X95005000Y-92492984D01*
X95585000Y-92492984D01*
X95585000Y-93212984D01*
G36*
X95585000Y-93212984D02*
G01*
X95005000Y-93212984D01*
X95005000Y-92492984D01*
X95585000Y-92492984D01*
X95585000Y-93212984D01*
G37*
X95585000Y-105412984D02*
X95005000Y-105412984D01*
X95005000Y-104692984D01*
X95585000Y-104692984D01*
X95585000Y-105412984D01*
G36*
X95585000Y-105412984D02*
G01*
X95005000Y-105412984D01*
X95005000Y-104692984D01*
X95585000Y-104692984D01*
X95585000Y-105412984D01*
G37*
X95585000Y-106412984D02*
X95005000Y-106412984D01*
X95005000Y-105692984D01*
X95585000Y-105692984D01*
X95585000Y-106412984D01*
G36*
X95585000Y-106412984D02*
G01*
X95005000Y-106412984D01*
X95005000Y-105692984D01*
X95585000Y-105692984D01*
X95585000Y-106412984D01*
G37*
X96635000Y-92212984D02*
X96055000Y-92212984D01*
X96055000Y-91492984D01*
X96635000Y-91492984D01*
X96635000Y-92212984D01*
G36*
X96635000Y-92212984D02*
G01*
X96055000Y-92212984D01*
X96055000Y-91492984D01*
X96635000Y-91492984D01*
X96635000Y-92212984D01*
G37*
X96635000Y-93212984D02*
X96055000Y-93212984D01*
X96055000Y-92492984D01*
X96635000Y-92492984D01*
X96635000Y-93212984D01*
G36*
X96635000Y-93212984D02*
G01*
X96055000Y-93212984D01*
X96055000Y-92492984D01*
X96635000Y-92492984D01*
X96635000Y-93212984D01*
G37*
X96635000Y-105412984D02*
X96055000Y-105412984D01*
X96055000Y-104692984D01*
X96635000Y-104692984D01*
X96635000Y-105412984D01*
G36*
X96635000Y-105412984D02*
G01*
X96055000Y-105412984D01*
X96055000Y-104692984D01*
X96635000Y-104692984D01*
X96635000Y-105412984D01*
G37*
X96635000Y-106412984D02*
X96055000Y-106412984D01*
X96055000Y-105692984D01*
X96635000Y-105692984D01*
X96635000Y-106412984D01*
G36*
X96635000Y-106412984D02*
G01*
X96055000Y-106412984D01*
X96055000Y-105692984D01*
X96635000Y-105692984D01*
X96635000Y-106412984D01*
G37*
X97485000Y-92212984D02*
X96905000Y-92212984D01*
X96905000Y-91492984D01*
X97485000Y-91492984D01*
X97485000Y-92212984D01*
G36*
X97485000Y-92212984D02*
G01*
X96905000Y-92212984D01*
X96905000Y-91492984D01*
X97485000Y-91492984D01*
X97485000Y-92212984D01*
G37*
X97485000Y-93212984D02*
X96905000Y-93212984D01*
X96905000Y-92492984D01*
X97485000Y-92492984D01*
X97485000Y-93212984D01*
G36*
X97485000Y-93212984D02*
G01*
X96905000Y-93212984D01*
X96905000Y-92492984D01*
X97485000Y-92492984D01*
X97485000Y-93212984D01*
G37*
X97485000Y-105412984D02*
X96905000Y-105412984D01*
X96905000Y-104692984D01*
X97485000Y-104692984D01*
X97485000Y-105412984D01*
G36*
X97485000Y-105412984D02*
G01*
X96905000Y-105412984D01*
X96905000Y-104692984D01*
X97485000Y-104692984D01*
X97485000Y-105412984D01*
G37*
X97485000Y-106412984D02*
X96905000Y-106412984D01*
X96905000Y-105692984D01*
X97485000Y-105692984D01*
X97485000Y-106412984D01*
G36*
X97485000Y-106412984D02*
G01*
X96905000Y-106412984D01*
X96905000Y-105692984D01*
X97485000Y-105692984D01*
X97485000Y-106412984D01*
G37*
X98535000Y-92212984D02*
X97955000Y-92212984D01*
X97955000Y-91492984D01*
X98535000Y-91492984D01*
X98535000Y-92212984D01*
G36*
X98535000Y-92212984D02*
G01*
X97955000Y-92212984D01*
X97955000Y-91492984D01*
X98535000Y-91492984D01*
X98535000Y-92212984D01*
G37*
X98535000Y-93212984D02*
X97955000Y-93212984D01*
X97955000Y-92492984D01*
X98535000Y-92492984D01*
X98535000Y-93212984D01*
G36*
X98535000Y-93212984D02*
G01*
X97955000Y-93212984D01*
X97955000Y-92492984D01*
X98535000Y-92492984D01*
X98535000Y-93212984D01*
G37*
X98535000Y-105412984D02*
X97955000Y-105412984D01*
X97955000Y-104692984D01*
X98535000Y-104692984D01*
X98535000Y-105412984D01*
G36*
X98535000Y-105412984D02*
G01*
X97955000Y-105412984D01*
X97955000Y-104692984D01*
X98535000Y-104692984D01*
X98535000Y-105412984D01*
G37*
X98535000Y-106412984D02*
X97955000Y-106412984D01*
X97955000Y-105692984D01*
X98535000Y-105692984D01*
X98535000Y-106412984D01*
G36*
X98535000Y-106412984D02*
G01*
X97955000Y-106412984D01*
X97955000Y-105692984D01*
X98535000Y-105692984D01*
X98535000Y-106412984D01*
G37*
X99385000Y-92212984D02*
X98805000Y-92212984D01*
X98805000Y-91492984D01*
X99385000Y-91492984D01*
X99385000Y-92212984D01*
G36*
X99385000Y-92212984D02*
G01*
X98805000Y-92212984D01*
X98805000Y-91492984D01*
X99385000Y-91492984D01*
X99385000Y-92212984D01*
G37*
X99385000Y-93212984D02*
X98805000Y-93212984D01*
X98805000Y-92492984D01*
X99385000Y-92492984D01*
X99385000Y-93212984D01*
G36*
X99385000Y-93212984D02*
G01*
X98805000Y-93212984D01*
X98805000Y-92492984D01*
X99385000Y-92492984D01*
X99385000Y-93212984D01*
G37*
X99385000Y-105412984D02*
X98805000Y-105412984D01*
X98805000Y-104692984D01*
X99385000Y-104692984D01*
X99385000Y-105412984D01*
G36*
X99385000Y-105412984D02*
G01*
X98805000Y-105412984D01*
X98805000Y-104692984D01*
X99385000Y-104692984D01*
X99385000Y-105412984D01*
G37*
X99385000Y-106412984D02*
X98805000Y-106412984D01*
X98805000Y-105692984D01*
X99385000Y-105692984D01*
X99385000Y-106412984D01*
G36*
X99385000Y-106412984D02*
G01*
X98805000Y-106412984D01*
X98805000Y-105692984D01*
X99385000Y-105692984D01*
X99385000Y-106412984D01*
G37*
X101330000Y-95017984D02*
X100610000Y-95017984D01*
X100610000Y-94437984D01*
X101330000Y-94437984D01*
X101330000Y-95017984D01*
G36*
X101330000Y-95017984D02*
G01*
X100610000Y-95017984D01*
X100610000Y-94437984D01*
X101330000Y-94437984D01*
X101330000Y-95017984D01*
G37*
X101330000Y-95867984D02*
X100610000Y-95867984D01*
X100610000Y-95287984D01*
X101330000Y-95287984D01*
X101330000Y-95867984D01*
G36*
X101330000Y-95867984D02*
G01*
X100610000Y-95867984D01*
X100610000Y-95287984D01*
X101330000Y-95287984D01*
X101330000Y-95867984D01*
G37*
X101330000Y-96917984D02*
X100610000Y-96917984D01*
X100610000Y-96337984D01*
X101330000Y-96337984D01*
X101330000Y-96917984D01*
G36*
X101330000Y-96917984D02*
G01*
X100610000Y-96917984D01*
X100610000Y-96337984D01*
X101330000Y-96337984D01*
X101330000Y-96917984D01*
G37*
X101330000Y-97767984D02*
X100610000Y-97767984D01*
X100610000Y-97187984D01*
X101330000Y-97187984D01*
X101330000Y-97767984D01*
G36*
X101330000Y-97767984D02*
G01*
X100610000Y-97767984D01*
X100610000Y-97187984D01*
X101330000Y-97187984D01*
X101330000Y-97767984D01*
G37*
X101330000Y-98817984D02*
X100610000Y-98817984D01*
X100610000Y-98237984D01*
X101330000Y-98237984D01*
X101330000Y-98817984D01*
G36*
X101330000Y-98817984D02*
G01*
X100610000Y-98817984D01*
X100610000Y-98237984D01*
X101330000Y-98237984D01*
X101330000Y-98817984D01*
G37*
X101330000Y-99667984D02*
X100610000Y-99667984D01*
X100610000Y-99087984D01*
X101330000Y-99087984D01*
X101330000Y-99667984D01*
G36*
X101330000Y-99667984D02*
G01*
X100610000Y-99667984D01*
X100610000Y-99087984D01*
X101330000Y-99087984D01*
X101330000Y-99667984D01*
G37*
X101330000Y-100717984D02*
X100610000Y-100717984D01*
X100610000Y-100137984D01*
X101330000Y-100137984D01*
X101330000Y-100717984D01*
G36*
X101330000Y-100717984D02*
G01*
X100610000Y-100717984D01*
X100610000Y-100137984D01*
X101330000Y-100137984D01*
X101330000Y-100717984D01*
G37*
X101330000Y-101567984D02*
X100610000Y-101567984D01*
X100610000Y-100987984D01*
X101330000Y-100987984D01*
X101330000Y-101567984D01*
G36*
X101330000Y-101567984D02*
G01*
X100610000Y-101567984D01*
X100610000Y-100987984D01*
X101330000Y-100987984D01*
X101330000Y-101567984D01*
G37*
X101330000Y-102617984D02*
X100610000Y-102617984D01*
X100610000Y-102037984D01*
X101330000Y-102037984D01*
X101330000Y-102617984D01*
G36*
X101330000Y-102617984D02*
G01*
X100610000Y-102617984D01*
X100610000Y-102037984D01*
X101330000Y-102037984D01*
X101330000Y-102617984D01*
G37*
X101330000Y-103467984D02*
X100610000Y-103467984D01*
X100610000Y-102887984D01*
X101330000Y-102887984D01*
X101330000Y-103467984D01*
G36*
X101330000Y-103467984D02*
G01*
X100610000Y-103467984D01*
X100610000Y-102887984D01*
X101330000Y-102887984D01*
X101330000Y-103467984D01*
G37*
X102330000Y-95017984D02*
X101610000Y-95017984D01*
X101610000Y-94437984D01*
X102330000Y-94437984D01*
X102330000Y-95017984D01*
G36*
X102330000Y-95017984D02*
G01*
X101610000Y-95017984D01*
X101610000Y-94437984D01*
X102330000Y-94437984D01*
X102330000Y-95017984D01*
G37*
X102330000Y-95867984D02*
X101610000Y-95867984D01*
X101610000Y-95287984D01*
X102330000Y-95287984D01*
X102330000Y-95867984D01*
G36*
X102330000Y-95867984D02*
G01*
X101610000Y-95867984D01*
X101610000Y-95287984D01*
X102330000Y-95287984D01*
X102330000Y-95867984D01*
G37*
X102330000Y-96917984D02*
X101610000Y-96917984D01*
X101610000Y-96337984D01*
X102330000Y-96337984D01*
X102330000Y-96917984D01*
G36*
X102330000Y-96917984D02*
G01*
X101610000Y-96917984D01*
X101610000Y-96337984D01*
X102330000Y-96337984D01*
X102330000Y-96917984D01*
G37*
X102330000Y-97767984D02*
X101610000Y-97767984D01*
X101610000Y-97187984D01*
X102330000Y-97187984D01*
X102330000Y-97767984D01*
G36*
X102330000Y-97767984D02*
G01*
X101610000Y-97767984D01*
X101610000Y-97187984D01*
X102330000Y-97187984D01*
X102330000Y-97767984D01*
G37*
X102330000Y-98817984D02*
X101610000Y-98817984D01*
X101610000Y-98237984D01*
X102330000Y-98237984D01*
X102330000Y-98817984D01*
G36*
X102330000Y-98817984D02*
G01*
X101610000Y-98817984D01*
X101610000Y-98237984D01*
X102330000Y-98237984D01*
X102330000Y-98817984D01*
G37*
X102330000Y-99667984D02*
X101610000Y-99667984D01*
X101610000Y-99087984D01*
X102330000Y-99087984D01*
X102330000Y-99667984D01*
G36*
X102330000Y-99667984D02*
G01*
X101610000Y-99667984D01*
X101610000Y-99087984D01*
X102330000Y-99087984D01*
X102330000Y-99667984D01*
G37*
X102330000Y-100717984D02*
X101610000Y-100717984D01*
X101610000Y-100137984D01*
X102330000Y-100137984D01*
X102330000Y-100717984D01*
G36*
X102330000Y-100717984D02*
G01*
X101610000Y-100717984D01*
X101610000Y-100137984D01*
X102330000Y-100137984D01*
X102330000Y-100717984D01*
G37*
X102330000Y-101567984D02*
X101610000Y-101567984D01*
X101610000Y-100987984D01*
X102330000Y-100987984D01*
X102330000Y-101567984D01*
G36*
X102330000Y-101567984D02*
G01*
X101610000Y-101567984D01*
X101610000Y-100987984D01*
X102330000Y-100987984D01*
X102330000Y-101567984D01*
G37*
X102330000Y-102617984D02*
X101610000Y-102617984D01*
X101610000Y-102037984D01*
X102330000Y-102037984D01*
X102330000Y-102617984D01*
G36*
X102330000Y-102617984D02*
G01*
X101610000Y-102617984D01*
X101610000Y-102037984D01*
X102330000Y-102037984D01*
X102330000Y-102617984D01*
G37*
X102330000Y-103467984D02*
X101610000Y-103467984D01*
X101610000Y-102887984D01*
X102330000Y-102887984D01*
X102330000Y-103467984D01*
G36*
X102330000Y-103467984D02*
G01*
X101610000Y-103467984D01*
X101610000Y-102887984D01*
X102330000Y-102887984D01*
X102330000Y-103467984D01*
G37*
%TD*%
D11*
%TO.C,D2*%
X68908000Y-69502984D03*
X68908000Y-71552984D03*
%TD*%
D12*
%TO.C,C_BME_VDDIO1*%
X66190707Y-83678691D03*
X66190707Y-85753691D03*
%TD*%
D13*
%TO.C,C8*%
X94100000Y-55112836D03*
X94100000Y-53212836D03*
%TD*%
D14*
%TO.C,R2*%
X63880859Y-59723927D03*
X62055859Y-59723927D03*
%TD*%
D15*
%TO.C,R15*%
X133050000Y-75542984D03*
X133050000Y-77542984D03*
%TD*%
D16*
%TO.C,J7*%
X105330000Y-44200000D03*
X103830000Y-44200000D03*
X102830000Y-44200000D03*
X102330000Y-44200000D03*
X101330000Y-44200000D03*
X99830000Y-44200000D03*
%TD*%
D13*
%TO.C,C10*%
X96470000Y-55112836D03*
X96470000Y-53212836D03*
%TD*%
%TO.C,C1*%
X112330000Y-49732836D03*
X112330000Y-47832836D03*
%TD*%
D15*
%TO.C,R13*%
X123303333Y-75552984D03*
X123303333Y-77552984D03*
%TD*%
%TO.C,R_BME_SDA1*%
X62170707Y-75566191D03*
X62170707Y-77566191D03*
%TD*%
%TO.C,R16*%
X68290000Y-90170000D03*
X68290000Y-92170000D03*
%TD*%
D17*
%TO.C,C_VDDIO_MPU1*%
X109200000Y-66622984D03*
X107125000Y-66622984D03*
%TD*%
D18*
%TO.C,C4*%
X127880000Y-52852836D03*
X127880000Y-54752836D03*
%TD*%
D19*
%TO.C,R_BL2*%
X104980000Y-53230000D03*
X102980000Y-53230000D03*
%TD*%
D20*
%TO.C,U1*%
X117230000Y-48500336D03*
X117230000Y-50800336D03*
D21*
X123530000Y-50800336D03*
D20*
X117230000Y-53100336D03*
%TD*%
D15*
%TO.C,R_BME_SCL1*%
X66160707Y-75546191D03*
X66160707Y-77546191D03*
%TD*%
D22*
%TO.C,R3*%
X93990000Y-49325336D03*
X93990000Y-51150336D03*
%TD*%
D17*
%TO.C,C_SAM_VCCIO1*%
X92620000Y-109952984D03*
X90545000Y-109952984D03*
%TD*%
D15*
%TO.C,R9*%
X71710000Y-69465484D03*
X71710000Y-71465484D03*
%TD*%
D23*
%TO.C,S2*%
X65600000Y-92310000D03*
X61450000Y-92310000D03*
X65600000Y-90160000D03*
X61450000Y-90160000D03*
%TD*%
D24*
%TO.C,U2*%
X66454747Y-63201427D03*
X67724747Y-63201427D03*
X68994747Y-63201427D03*
X70264747Y-63201427D03*
X70264747Y-56026427D03*
X68994747Y-56026427D03*
X67724747Y-56026427D03*
X66454747Y-56026427D03*
%TD*%
D15*
%TO.C,R10*%
X66440000Y-69482984D03*
X66440000Y-71482984D03*
%TD*%
D25*
%TO.C,R_BL1*%
X102980000Y-50460000D03*
X104980000Y-50460000D03*
%TD*%
D11*
%TO.C,D1*%
X74178000Y-69485484D03*
X74178000Y-71535484D03*
%TD*%
D12*
%TO.C,C18*%
X130356666Y-75515484D03*
X130356666Y-77590484D03*
%TD*%
D18*
%TO.C,C6*%
X93610000Y-67022836D03*
X93610000Y-68922836D03*
%TD*%
D26*
%TO.C,C_VDD_MPU1*%
X113642500Y-63770484D03*
X113642500Y-61695484D03*
%TD*%
D11*
%TO.C,D3*%
X63528000Y-69465484D03*
X63528000Y-71515484D03*
%TD*%
D27*
%TO.C,C_MPU_REG1*%
X111705000Y-66622984D03*
X113780000Y-66622984D03*
%TD*%
D28*
%TO.C,R_SAM_SDA1*%
X98880000Y-72322984D03*
X98880000Y-70322984D03*
%TD*%
D18*
%TO.C,C17*%
X94570000Y-39582836D03*
X94570000Y-41482836D03*
%TD*%
D29*
%TO.C,C14*%
X84730000Y-62522984D03*
X82830000Y-62522984D03*
%TD*%
D30*
%TO.C,U5*%
X108410000Y-61732984D03*
X108410000Y-62132984D03*
X108410000Y-62532984D03*
X108410000Y-62932984D03*
X108410000Y-63332984D03*
X108410000Y-63732984D03*
D31*
X108955000Y-64277984D03*
X109355000Y-64277984D03*
X109755000Y-64277984D03*
X110155000Y-64277984D03*
X110555000Y-64277984D03*
X110955000Y-64277984D03*
D30*
X111500000Y-63732984D03*
X111500000Y-63332984D03*
X111500000Y-62932984D03*
X111500000Y-62532984D03*
X111500000Y-62132984D03*
X111500000Y-61732984D03*
D31*
X110955000Y-61187984D03*
X110555000Y-61187984D03*
X110155000Y-61187984D03*
X109755000Y-61187984D03*
X109355000Y-61187984D03*
X108955000Y-61187984D03*
%TD*%
D12*
%TO.C,C_BME_VDD1*%
X62200707Y-83758691D03*
X62200707Y-85833691D03*
%TD*%
D23*
%TO.C,S3*%
X66635000Y-50935000D03*
X62485000Y-50935000D03*
X66635000Y-48785000D03*
X62485000Y-48785000D03*
%TD*%
D26*
%TO.C,C_SAM_VCC1*%
X84370000Y-96952984D03*
X84370000Y-94877984D03*
%TD*%
D22*
%TO.C,R4*%
X96210000Y-49345336D03*
X96210000Y-51170336D03*
%TD*%
D19*
%TO.C,R_MPU_SCL1*%
X113760000Y-58782984D03*
X111760000Y-58782984D03*
%TD*%
D14*
%TO.C,R1*%
X63859747Y-63183927D03*
X62034747Y-63183927D03*
%TD*%
D19*
%TO.C,R_MPU_SDA1*%
X109530000Y-58772984D03*
X107530000Y-58772984D03*
%TD*%
D23*
%TO.C,S1*%
X121280000Y-60172984D03*
X125430000Y-60172984D03*
X121280000Y-62322984D03*
X125430000Y-62322984D03*
%TD*%
D18*
%TO.C,C13*%
X90820000Y-67062836D03*
X90820000Y-68962836D03*
%TD*%
D29*
%TO.C,C15*%
X84730000Y-57872984D03*
X82830000Y-57872984D03*
%TD*%
D25*
%TO.C,R12*%
X124450000Y-66632984D03*
X126450000Y-66632984D03*
%TD*%
D13*
%TO.C,C7*%
X84830000Y-52822984D03*
X84830000Y-50922984D03*
%TD*%
D15*
%TO.C,R11*%
X61060000Y-69445484D03*
X61060000Y-71445484D03*
%TD*%
D32*
%TO.C,U4*%
X64290707Y-79801191D03*
X64940707Y-79801191D03*
X65590707Y-79801191D03*
X66240707Y-79801191D03*
X66240707Y-81741191D03*
X65590707Y-81741191D03*
X64940707Y-81741191D03*
X64290707Y-81741191D03*
%TD*%
D33*
%TO.C,C11*%
X98810000Y-55940000D03*
X100710000Y-55940000D03*
%TD*%
D28*
%TO.C,R_SAM_SCL1*%
X96280000Y-72322984D03*
X96280000Y-70322984D03*
%TD*%
D34*
%TO.C,R5*%
X86717500Y-66822984D03*
X88542500Y-66822984D03*
%TD*%
D33*
%TO.C,C12*%
X98430000Y-62522984D03*
X100330000Y-62522984D03*
%TD*%
D29*
%TO.C,C2*%
X84250000Y-66672984D03*
X82350000Y-66672984D03*
%TD*%
D35*
%TO.C,U3*%
X90912500Y-60050336D03*
X90912500Y-61325336D03*
X92187500Y-60050336D03*
X92187500Y-61325336D03*
D36*
X88112500Y-58087836D03*
X88112500Y-58487836D03*
X88112500Y-58887836D03*
X88112500Y-59287836D03*
X88112500Y-59687836D03*
X88112500Y-60087836D03*
X88112500Y-60487836D03*
X88112500Y-60887836D03*
X88112500Y-61287836D03*
X88112500Y-61687836D03*
X88112500Y-62087836D03*
X88112500Y-62487836D03*
X88112500Y-62887836D03*
X88112500Y-63287836D03*
D37*
X88950000Y-64125336D03*
X89350000Y-64125336D03*
X89750000Y-64125336D03*
X90150000Y-64125336D03*
X90550000Y-64125336D03*
X90950000Y-64125336D03*
X91350000Y-64125336D03*
X91750000Y-64125336D03*
X92150000Y-64125336D03*
X92550000Y-64125336D03*
X92950000Y-64125336D03*
X93350000Y-64125336D03*
X93750000Y-64125336D03*
X94150000Y-64125336D03*
D36*
X94987500Y-63287836D03*
X94987500Y-62887836D03*
X94987500Y-62487836D03*
X94987500Y-62087836D03*
X94987500Y-61687836D03*
X94987500Y-61287836D03*
X94987500Y-60887836D03*
X94987500Y-60487836D03*
X94987500Y-60087836D03*
X94987500Y-59687836D03*
X94987500Y-59287836D03*
X94987500Y-58887836D03*
X94987500Y-58487836D03*
X94987500Y-58087836D03*
D37*
X94150000Y-57250336D03*
X93750000Y-57250336D03*
X93350000Y-57250336D03*
X92950000Y-57250336D03*
X92550000Y-57250336D03*
X92150000Y-57250336D03*
X91750000Y-57250336D03*
X91350000Y-57250336D03*
X90950000Y-57250336D03*
X90550000Y-57250336D03*
X90150000Y-57250336D03*
X89750000Y-57250336D03*
X89350000Y-57250336D03*
X88950000Y-57250336D03*
%TD*%
D13*
%TO.C,C9*%
X91160000Y-52792836D03*
X91160000Y-50892836D03*
%TD*%
D38*
%TO.C,J2*%
X129850000Y-91670000D03*
X128750000Y-91270000D03*
X127650000Y-91670000D03*
X126550000Y-91870000D03*
X125450000Y-91670000D03*
X124350000Y-91870000D03*
X123250000Y-91670000D03*
X122150000Y-91670000D03*
D39*
X134510000Y-95520000D03*
D40*
X128660000Y-81370000D03*
D39*
X121360000Y-94520000D03*
D40*
X122960000Y-81370000D03*
%TD*%
D27*
%TO.C,C_SAM_VBCKP1*%
X95082500Y-109952984D03*
X97157500Y-109952984D03*
%TD*%
D29*
%TO.C,C3*%
X79590000Y-66022984D03*
X77690000Y-66022984D03*
%TD*%
D15*
%TO.C,R14*%
X126830000Y-75552984D03*
X126830000Y-77552984D03*
%TD*%
D29*
%TO.C,C5*%
X63838359Y-55853927D03*
X61938359Y-55853927D03*
%TD*%
D13*
%TO.C,C16*%
X87480000Y-52822984D03*
X87480000Y-50922984D03*
%TD*%
M02*
