M48
; DRILL file {KiCad 9.0.1} date 2025-04-14T00:52:25-0300
; FORMAT={-:-/ absolute / metric / decimal}
; #@! TF.CreationDate,2025-04-14T00:52:25-03:00
; #@! TF.GenerationSoftware,Kicad,Pcbnew,9.0.1
; #@! TF.FileFunction,Plated,1,2,PTH
FMAT,2
METRIC
; #@! TA.AperFunction,Plated,PTH,ComponentDrill
T1C0.350
; #@! TA.AperFunction,Plated,PTH,ComponentDrill
T2C0.400
; #@! TA.AperFunction,Plated,PTH,ViaDrill
T3C0.500
; #@! TA.AperFunction,Plated,PTH,ComponentDrill
T4C0.500
; #@! TA.AperFunction,Plated,PTH,ComponentDrill
T5C0.800
; #@! TA.AperFunction,Plated,PTH,ComponentDrill
T6C1.000
%
G90
G05
T1
X90.275Y-59.413
X90.275Y-60.688
X90.275Y-61.963
X91.55Y-59.413
X91.55Y-60.688
X91.55Y-61.963
X92.825Y-59.413
X92.825Y-60.688
X92.825Y-61.963
T2
X99.78Y-42.99
X101.38Y-42.99
X101.78Y-42.29
X102.18Y-42.99
X102.98Y-42.99
X103.38Y-42.29
X103.78Y-42.99
X105.38Y-42.99
T3
X60.32Y-54.073
X61.916Y-80.624
X62.534Y-66.529
X62.88Y-73.633
X63.03Y-57.764
X64.24Y-61.433
X65.91Y-73.633
X72.02Y-76.203
X72.02Y-79.703
X72.02Y-83.203
X72.02Y-86.703
X72.02Y-90.203
X72.02Y-93.703
X72.02Y-97.203
X72.02Y-100.703
X72.02Y-104.203
X72.02Y-107.703
X72.02Y-111.203
X72.02Y-114.703
X72.02Y-118.203
X72.02Y-121.703
X75.52Y-76.203
X75.52Y-79.703
X75.52Y-83.203
X75.52Y-86.703
X75.52Y-90.203
X75.52Y-93.703
X75.52Y-97.203
X75.52Y-100.703
X75.52Y-104.203
X75.52Y-107.703
X75.52Y-111.203
X75.52Y-114.703
X75.52Y-118.203
X75.52Y-121.703
X75.887Y-62.13
X76.69Y-67.683
X79.02Y-76.203
X79.02Y-79.703
X79.02Y-83.203
X79.02Y-86.703
X79.02Y-90.203
X79.02Y-93.703
X79.02Y-97.203
X79.02Y-100.703
X79.02Y-104.203
X79.02Y-107.703
X79.02Y-111.203
X79.02Y-114.703
X79.02Y-118.203
X79.02Y-121.703
X81.7Y-96.973
X82.52Y-76.203
X82.52Y-79.703
X82.52Y-83.203
X82.52Y-86.703
X82.52Y-90.203
X82.52Y-93.703
X82.52Y-100.703
X82.52Y-104.203
X82.52Y-107.703
X82.52Y-111.203
X82.52Y-114.703
X82.52Y-118.203
X82.52Y-121.703
X86.02Y-76.203
X86.02Y-79.703
X86.02Y-83.203
X86.02Y-86.703
X86.02Y-90.203
X86.02Y-93.703
X86.02Y-100.703
X86.02Y-104.203
X86.02Y-107.703
X86.02Y-114.703
X86.02Y-118.203
X86.02Y-121.703
X87.81Y-68.593
X89.33Y-52.823
X89.43Y-71.323
X89.52Y-76.203
X89.52Y-79.703
X89.52Y-83.203
X89.52Y-86.703
X89.52Y-90.203
X89.52Y-107.703
X89.52Y-114.703
X89.52Y-118.203
X89.52Y-121.703
X90.96Y-95.703
X90.96Y-99.203
X90.96Y-102.703
X92.375Y-39.588
X92.53Y-72.073
X92.62Y-112.363
X93.02Y-86.703
X93.02Y-90.203
X93.02Y-114.703
X93.02Y-118.203
X93.02Y-121.703
X93.37Y-76.21
X93.51Y-79.91
X93.56Y-82.81
X94.23Y-72.573
X94.46Y-95.703
X94.46Y-99.203
X94.46Y-102.703
X95.082Y-112.353
X95.79Y-66.143
X96.52Y-76.203
X96.52Y-79.703
X96.52Y-83.203
X96.52Y-114.703
X96.52Y-118.203
X96.52Y-121.703
X96.68Y-57.773
X96.77Y-87.353
X97.38Y-67.823
X97.96Y-95.703
X97.96Y-99.203
X97.96Y-102.703
X99.76Y-53.993
X100.02Y-76.203
X100.02Y-79.703
X100.02Y-83.203
X100.02Y-86.703
X100.02Y-90.203
X100.02Y-107.703
X100.02Y-111.203
X100.02Y-114.703
X100.02Y-118.203
X100.02Y-121.703
X100.636Y-51.076
X100.78Y-64.623
X101.58Y-71.71
X101.63Y-60.873
X103.4Y-76.43
X103.52Y-79.703
X103.52Y-83.203
X103.52Y-86.703
X103.52Y-90.203
X103.52Y-93.703
X103.52Y-100.703
X103.52Y-104.203
X103.52Y-107.703
X103.52Y-111.203
X103.52Y-114.703
X103.52Y-118.203
X103.52Y-121.703
X105.22Y-94.953
X106.709Y-60.652
X107.02Y-76.203
X107.02Y-79.703
X107.02Y-83.203
X107.02Y-86.703
X107.02Y-90.203
X107.02Y-93.703
X107.02Y-97.203
X107.02Y-100.703
X107.02Y-104.203
X107.02Y-107.703
X107.02Y-111.203
X107.02Y-114.703
X107.02Y-118.203
X107.02Y-121.703
X109.065Y-45.268
X110.47Y-56.653
X110.52Y-76.203
X110.52Y-79.703
X110.52Y-83.203
X110.52Y-86.703
X110.52Y-90.203
X110.52Y-93.703
X110.52Y-97.203
X110.52Y-100.703
X110.52Y-104.203
X110.52Y-107.703
X110.52Y-111.203
X110.52Y-114.703
X110.52Y-118.203
X110.52Y-121.703
X113.46Y-56.623
X114.02Y-76.203
X114.02Y-79.703
X114.02Y-83.203
X114.02Y-86.703
X114.02Y-90.203
X114.02Y-93.703
X114.02Y-97.203
X114.02Y-100.703
X114.02Y-104.203
X114.02Y-107.703
X114.02Y-111.203
X114.02Y-114.703
X114.02Y-118.203
X114.02Y-121.703
X115.81Y-61.053
X117.52Y-76.203
X117.52Y-79.703
X117.52Y-83.203
X117.52Y-86.703
X117.52Y-90.203
X117.52Y-93.703
X117.52Y-97.203
X117.52Y-100.703
X117.52Y-104.203
X117.52Y-107.703
X117.52Y-111.203
X117.52Y-114.703
X117.52Y-118.203
X117.52Y-121.703
X119.246Y-67.189
X119.246Y-68.823
X128.94Y-72.673
X128.99Y-48.833
X131.41Y-52.383
X133.92Y-59.193
T5
X79.59Y-70.883
X84.47Y-70.883
T6
X85.84Y-40.29
X88.38Y-40.29
X113.69Y-40.643
X118.77Y-40.643
X131.77Y-63.083
X131.77Y-65.623
X131.77Y-68.163
T4
X98.08Y-40.27G85X98.08Y-39.47
G05
X98.305Y-42.69G85X98.305Y-42.09
G05
X98.86Y-45.19G85X98.61Y-45.19
G05
X106.55Y-45.19G85X106.3Y-45.19
G05
X106.855Y-42.69G85X106.855Y-42.09
G05
X107.08Y-40.27G85X107.08Y-39.47
G05
M30
