%TF.GenerationSoftware,KiCad,Pcbnew,9.0.1*%
%TF.CreationDate,2025-04-14T00:51:25-03:00*%
%TF.ProjectId,SRAD_computer,53524144-5f63-46f6-9d70-757465722e6b,rev?*%
%TF.SameCoordinates,Original*%
%TF.FileFunction,Soldermask,Top*%
%TF.FilePolarity,Negative*%
%FSLAX46Y46*%
G04 Gerber Fmt 4.6, Leading zero omitted, Abs format (unit mm)*
G04 Created by KiCad (PCBNEW 9.0.1) date 2025-04-14 00:51:25*
%MOMM*%
%LPD*%
G01*
G04 APERTURE LIST*
G04 Aperture macros list*
%AMRoundRect*
0 Rectangle with rounded corners*
0 $1 Rounding radius*
0 $2 $3 $4 $5 $6 $7 $8 $9 X,Y pos of 4 corners*
0 Add a 4 corners polygon primitive as box body*
4,1,4,$2,$3,$4,$5,$6,$7,$8,$9,$2,$3,0*
0 Add four circle primitives for the rounded corners*
1,1,$1+$1,$2,$3*
1,1,$1+$1,$4,$5*
1,1,$1+$1,$6,$7*
1,1,$1+$1,$8,$9*
0 Add four rect primitives between the rounded corners*
20,1,$1+$1,$2,$3,$4,$5,0*
20,1,$1+$1,$4,$5,$6,$7,0*
20,1,$1+$1,$6,$7,$8,$9,0*
20,1,$1+$1,$8,$9,$2,$3,0*%
G04 Aperture macros list end*
%ADD10C,0.010000*%
%ADD11RoundRect,0.250000X-0.450000X0.325000X-0.450000X-0.325000X0.450000X-0.325000X0.450000X0.325000X0*%
%ADD12RoundRect,0.250000X-0.475000X0.337500X-0.475000X-0.337500X0.475000X-0.337500X0.475000X0.337500X0*%
%ADD13RoundRect,0.250000X0.475000X-0.250000X0.475000X0.250000X-0.475000X0.250000X-0.475000X-0.250000X0*%
%ADD14RoundRect,0.250000X0.262500X0.450000X-0.262500X0.450000X-0.262500X-0.450000X0.262500X-0.450000X0*%
%ADD15RoundRect,0.250000X-0.450000X0.350000X-0.450000X-0.350000X0.450000X-0.350000X0.450000X0.350000X0*%
%ADD16C,0.650000*%
%ADD17RoundRect,0.102000X0.150000X0.450000X-0.150000X0.450000X-0.150000X-0.450000X0.150000X-0.450000X0*%
%ADD18C,0.854000*%
%ADD19O,1.104000X1.904000*%
%ADD20O,1.104000X1.704000*%
%ADD21O,1.354000X1.104000*%
%ADD22C,1.500000*%
%ADD23RoundRect,0.250000X0.337500X0.475000X-0.337500X0.475000X-0.337500X-0.475000X0.337500X-0.475000X0*%
%ADD24RoundRect,0.250000X-0.475000X0.250000X-0.475000X-0.250000X0.475000X-0.250000X0.475000X0.250000X0*%
%ADD25R,2.000000X2.000000*%
%ADD26C,2.000000*%
%ADD27RoundRect,0.250000X0.350000X0.450000X-0.350000X0.450000X-0.350000X-0.450000X0.350000X-0.450000X0*%
%ADD28RoundRect,0.375000X-0.625000X-0.375000X0.625000X-0.375000X0.625000X0.375000X-0.625000X0.375000X0*%
%ADD29RoundRect,0.500000X-0.500000X-1.400000X0.500000X-1.400000X0.500000X1.400000X-0.500000X1.400000X0*%
%ADD30RoundRect,0.250000X-0.450000X0.262500X-0.450000X-0.262500X0.450000X-0.262500X0.450000X0.262500X0*%
%ADD31R,1.050000X0.650000*%
%ADD32R,1.500000X0.800000*%
%ADD33RoundRect,0.362500X-0.637500X0.362500X-0.637500X-0.362500X0.637500X-0.362500X0.637500X0.362500X0*%
%ADD34C,3.500000*%
%ADD35RoundRect,0.162500X0.162500X-0.650000X0.162500X0.650000X-0.162500X0.650000X-0.162500X-0.650000X0*%
%ADD36RoundRect,0.250000X-0.350000X-0.450000X0.350000X-0.450000X0.350000X0.450000X-0.350000X0.450000X0*%
%ADD37RoundRect,0.250000X0.475000X-0.337500X0.475000X0.337500X-0.475000X0.337500X-0.475000X-0.337500X0*%
%ADD38RoundRect,0.250000X-0.337500X-0.475000X0.337500X-0.475000X0.337500X0.475000X-0.337500X0.475000X0*%
%ADD39RoundRect,0.250000X0.450000X-0.350000X0.450000X0.350000X-0.450000X0.350000X-0.450000X-0.350000X0*%
%ADD40RoundRect,0.250000X0.250000X0.475000X-0.250000X0.475000X-0.250000X-0.475000X0.250000X-0.475000X0*%
%ADD41RoundRect,0.053000X-0.369000X-0.159000X0.369000X-0.159000X0.369000X0.159000X-0.369000X0.159000X0*%
%ADD42RoundRect,0.053000X-0.159000X-0.369000X0.159000X-0.369000X0.159000X0.369000X-0.159000X0.369000X0*%
%ADD43RoundRect,0.102000X-0.850000X-0.770000X0.850000X-0.770000X0.850000X0.770000X-0.850000X0.770000X0*%
%ADD44R,3.500000X3.500000*%
%ADD45RoundRect,0.081750X0.245250X-0.265250X0.245250X0.265250X-0.245250X0.265250X-0.245250X-0.265250X0*%
%ADD46RoundRect,0.250000X-0.250000X-0.475000X0.250000X-0.475000X0.250000X0.475000X-0.250000X0.475000X0*%
%ADD47RoundRect,0.250000X-0.262500X-0.450000X0.262500X-0.450000X0.262500X0.450000X-0.262500X0.450000X0*%
%ADD48RoundRect,0.050000X-0.387500X-0.050000X0.387500X-0.050000X0.387500X0.050000X-0.387500X0.050000X0*%
%ADD49RoundRect,0.050000X-0.050000X-0.387500X0.050000X-0.387500X0.050000X0.387500X-0.050000X0.387500X0*%
%ADD50RoundRect,0.144000X-1.456000X-1.456000X1.456000X-1.456000X1.456000X1.456000X-1.456000X1.456000X0*%
G04 APERTURE END LIST*
D10*
%TO.C,J7*%
X99177000Y-43216000D02*
X99199000Y-43217000D01*
X99221000Y-43220000D01*
X99243000Y-43224000D01*
X99265000Y-43229000D01*
X99286000Y-43236000D01*
X99307000Y-43243000D01*
X99328000Y-43252000D01*
X99348000Y-43261000D01*
X99368000Y-43272000D01*
X99386000Y-43284000D01*
X99405000Y-43296000D01*
X99422000Y-43310000D01*
X99439000Y-43324000D01*
X99456000Y-43339000D01*
X99471000Y-43356000D01*
X99485000Y-43373000D01*
X99499000Y-43390000D01*
X99511000Y-43409000D01*
X99523000Y-43428000D01*
X99534000Y-43447000D01*
X99543000Y-43467000D01*
X99552000Y-43488000D01*
X99559000Y-43509000D01*
X99566000Y-43530000D01*
X99571000Y-43552000D01*
X99575000Y-43574000D01*
X99578000Y-43596000D01*
X99579000Y-43618000D01*
X99580000Y-43640000D01*
X99579000Y-43662000D01*
X99578000Y-43684000D01*
X99575000Y-43706000D01*
X99571000Y-43728000D01*
X99566000Y-43750000D01*
X99559000Y-43771000D01*
X99552000Y-43792000D01*
X99543000Y-43813000D01*
X99534000Y-43833000D01*
X99523000Y-43852000D01*
X99511000Y-43871000D01*
X99499000Y-43890000D01*
X99485000Y-43907000D01*
X99471000Y-43924000D01*
X99456000Y-43941000D01*
X99439000Y-43956000D01*
X99422000Y-43970000D01*
X99405000Y-43984000D01*
X99386000Y-43996000D01*
X99368000Y-44008000D01*
X99348000Y-44019000D01*
X99328000Y-44028000D01*
X99307000Y-44037000D01*
X99286000Y-44044000D01*
X99265000Y-44051000D01*
X99243000Y-44056000D01*
X99221000Y-44060000D01*
X99199000Y-44063000D01*
X99177000Y-44064000D01*
X99155000Y-44065000D01*
X98805000Y-44065000D01*
X98783000Y-44064000D01*
X98761000Y-44063000D01*
X98739000Y-44060000D01*
X98717000Y-44056000D01*
X98695000Y-44051000D01*
X98674000Y-44044000D01*
X98653000Y-44037000D01*
X98632000Y-44028000D01*
X98612000Y-44019000D01*
X98593000Y-44008000D01*
X98574000Y-43996000D01*
X98555000Y-43984000D01*
X98538000Y-43970000D01*
X98521000Y-43956000D01*
X98504000Y-43941000D01*
X98489000Y-43924000D01*
X98475000Y-43907000D01*
X98461000Y-43890000D01*
X98449000Y-43871000D01*
X98437000Y-43852000D01*
X98426000Y-43833000D01*
X98417000Y-43813000D01*
X98408000Y-43792000D01*
X98401000Y-43771000D01*
X98394000Y-43750000D01*
X98389000Y-43728000D01*
X98385000Y-43706000D01*
X98382000Y-43684000D01*
X98381000Y-43662000D01*
X98380000Y-43640000D01*
X98381000Y-43618000D01*
X98382000Y-43596000D01*
X98385000Y-43574000D01*
X98389000Y-43552000D01*
X98394000Y-43530000D01*
X98401000Y-43509000D01*
X98408000Y-43488000D01*
X98417000Y-43467000D01*
X98426000Y-43447000D01*
X98437000Y-43428000D01*
X98449000Y-43409000D01*
X98461000Y-43390000D01*
X98475000Y-43373000D01*
X98489000Y-43356000D01*
X98504000Y-43339000D01*
X98521000Y-43324000D01*
X98538000Y-43310000D01*
X98555000Y-43296000D01*
X98574000Y-43284000D01*
X98593000Y-43272000D01*
X98612000Y-43261000D01*
X98632000Y-43252000D01*
X98653000Y-43243000D01*
X98674000Y-43236000D01*
X98695000Y-43229000D01*
X98717000Y-43224000D01*
X98739000Y-43220000D01*
X98761000Y-43217000D01*
X98783000Y-43216000D01*
X98805000Y-43215000D01*
X99155000Y-43215000D01*
X99177000Y-43216000D01*
G36*
X99177000Y-43216000D02*
G01*
X99199000Y-43217000D01*
X99221000Y-43220000D01*
X99243000Y-43224000D01*
X99265000Y-43229000D01*
X99286000Y-43236000D01*
X99307000Y-43243000D01*
X99328000Y-43252000D01*
X99348000Y-43261000D01*
X99368000Y-43272000D01*
X99386000Y-43284000D01*
X99405000Y-43296000D01*
X99422000Y-43310000D01*
X99439000Y-43324000D01*
X99456000Y-43339000D01*
X99471000Y-43356000D01*
X99485000Y-43373000D01*
X99499000Y-43390000D01*
X99511000Y-43409000D01*
X99523000Y-43428000D01*
X99534000Y-43447000D01*
X99543000Y-43467000D01*
X99552000Y-43488000D01*
X99559000Y-43509000D01*
X99566000Y-43530000D01*
X99571000Y-43552000D01*
X99575000Y-43574000D01*
X99578000Y-43596000D01*
X99579000Y-43618000D01*
X99580000Y-43640000D01*
X99579000Y-43662000D01*
X99578000Y-43684000D01*
X99575000Y-43706000D01*
X99571000Y-43728000D01*
X99566000Y-43750000D01*
X99559000Y-43771000D01*
X99552000Y-43792000D01*
X99543000Y-43813000D01*
X99534000Y-43833000D01*
X99523000Y-43852000D01*
X99511000Y-43871000D01*
X99499000Y-43890000D01*
X99485000Y-43907000D01*
X99471000Y-43924000D01*
X99456000Y-43941000D01*
X99439000Y-43956000D01*
X99422000Y-43970000D01*
X99405000Y-43984000D01*
X99386000Y-43996000D01*
X99368000Y-44008000D01*
X99348000Y-44019000D01*
X99328000Y-44028000D01*
X99307000Y-44037000D01*
X99286000Y-44044000D01*
X99265000Y-44051000D01*
X99243000Y-44056000D01*
X99221000Y-44060000D01*
X99199000Y-44063000D01*
X99177000Y-44064000D01*
X99155000Y-44065000D01*
X98805000Y-44065000D01*
X98783000Y-44064000D01*
X98761000Y-44063000D01*
X98739000Y-44060000D01*
X98717000Y-44056000D01*
X98695000Y-44051000D01*
X98674000Y-44044000D01*
X98653000Y-44037000D01*
X98632000Y-44028000D01*
X98612000Y-44019000D01*
X98593000Y-44008000D01*
X98574000Y-43996000D01*
X98555000Y-43984000D01*
X98538000Y-43970000D01*
X98521000Y-43956000D01*
X98504000Y-43941000D01*
X98489000Y-43924000D01*
X98475000Y-43907000D01*
X98461000Y-43890000D01*
X98449000Y-43871000D01*
X98437000Y-43852000D01*
X98426000Y-43833000D01*
X98417000Y-43813000D01*
X98408000Y-43792000D01*
X98401000Y-43771000D01*
X98394000Y-43750000D01*
X98389000Y-43728000D01*
X98385000Y-43706000D01*
X98382000Y-43684000D01*
X98381000Y-43662000D01*
X98380000Y-43640000D01*
X98381000Y-43618000D01*
X98382000Y-43596000D01*
X98385000Y-43574000D01*
X98389000Y-43552000D01*
X98394000Y-43530000D01*
X98401000Y-43509000D01*
X98408000Y-43488000D01*
X98417000Y-43467000D01*
X98426000Y-43447000D01*
X98437000Y-43428000D01*
X98449000Y-43409000D01*
X98461000Y-43390000D01*
X98475000Y-43373000D01*
X98489000Y-43356000D01*
X98504000Y-43339000D01*
X98521000Y-43324000D01*
X98538000Y-43310000D01*
X98555000Y-43296000D01*
X98574000Y-43284000D01*
X98593000Y-43272000D01*
X98612000Y-43261000D01*
X98632000Y-43252000D01*
X98653000Y-43243000D01*
X98674000Y-43236000D01*
X98695000Y-43229000D01*
X98717000Y-43224000D01*
X98739000Y-43220000D01*
X98761000Y-43217000D01*
X98783000Y-43216000D01*
X98805000Y-43215000D01*
X99155000Y-43215000D01*
X99177000Y-43216000D01*
G37*
%TO.C,U6*%
X89170000Y-95902984D02*
X87370000Y-95902984D01*
X87370000Y-94402984D01*
X89170000Y-94402984D01*
X89170000Y-95902984D01*
G36*
X89170000Y-95902984D02*
G01*
X87370000Y-95902984D01*
X87370000Y-94402984D01*
X89170000Y-94402984D01*
X89170000Y-95902984D01*
G37*
X89170000Y-97802984D02*
X87370000Y-97802984D01*
X87370000Y-96302984D01*
X89170000Y-96302984D01*
X89170000Y-97802984D01*
G36*
X89170000Y-97802984D02*
G01*
X87370000Y-97802984D01*
X87370000Y-96302984D01*
X89170000Y-96302984D01*
X89170000Y-97802984D01*
G37*
X89170000Y-99702984D02*
X87370000Y-99702984D01*
X87370000Y-98202984D01*
X89170000Y-98202984D01*
X89170000Y-99702984D01*
G36*
X89170000Y-99702984D02*
G01*
X87370000Y-99702984D01*
X87370000Y-98202984D01*
X89170000Y-98202984D01*
X89170000Y-99702984D01*
G37*
X89170000Y-101602984D02*
X87370000Y-101602984D01*
X87370000Y-100102984D01*
X89170000Y-100102984D01*
X89170000Y-101602984D01*
G36*
X89170000Y-101602984D02*
G01*
X87370000Y-101602984D01*
X87370000Y-100102984D01*
X89170000Y-100102984D01*
X89170000Y-101602984D01*
G37*
X89170000Y-103502984D02*
X87370000Y-103502984D01*
X87370000Y-102002984D01*
X89170000Y-102002984D01*
X89170000Y-103502984D01*
G36*
X89170000Y-103502984D02*
G01*
X87370000Y-103502984D01*
X87370000Y-102002984D01*
X89170000Y-102002984D01*
X89170000Y-103502984D01*
G37*
X91820000Y-93252984D02*
X90320000Y-93252984D01*
X90320000Y-91452984D01*
X91820000Y-91452984D01*
X91820000Y-93252984D01*
G36*
X91820000Y-93252984D02*
G01*
X90320000Y-93252984D01*
X90320000Y-91452984D01*
X91820000Y-91452984D01*
X91820000Y-93252984D01*
G37*
X91820000Y-106452984D02*
X90320000Y-106452984D01*
X90320000Y-104652984D01*
X91820000Y-104652984D01*
X91820000Y-106452984D01*
G36*
X91820000Y-106452984D02*
G01*
X90320000Y-106452984D01*
X90320000Y-104652984D01*
X91820000Y-104652984D01*
X91820000Y-106452984D01*
G37*
X93720000Y-93252984D02*
X92220000Y-93252984D01*
X92220000Y-91452984D01*
X93720000Y-91452984D01*
X93720000Y-93252984D01*
G36*
X93720000Y-93252984D02*
G01*
X92220000Y-93252984D01*
X92220000Y-91452984D01*
X93720000Y-91452984D01*
X93720000Y-93252984D01*
G37*
X93720000Y-106452984D02*
X92220000Y-106452984D01*
X92220000Y-104652984D01*
X93720000Y-104652984D01*
X93720000Y-106452984D01*
G36*
X93720000Y-106452984D02*
G01*
X92220000Y-106452984D01*
X92220000Y-104652984D01*
X93720000Y-104652984D01*
X93720000Y-106452984D01*
G37*
X95620000Y-93252984D02*
X94120000Y-93252984D01*
X94120000Y-91452984D01*
X95620000Y-91452984D01*
X95620000Y-93252984D01*
G36*
X95620000Y-93252984D02*
G01*
X94120000Y-93252984D01*
X94120000Y-91452984D01*
X95620000Y-91452984D01*
X95620000Y-93252984D01*
G37*
X95620000Y-106452984D02*
X94120000Y-106452984D01*
X94120000Y-104652984D01*
X95620000Y-104652984D01*
X95620000Y-106452984D01*
G36*
X95620000Y-106452984D02*
G01*
X94120000Y-106452984D01*
X94120000Y-104652984D01*
X95620000Y-104652984D01*
X95620000Y-106452984D01*
G37*
X97520000Y-93252984D02*
X96020000Y-93252984D01*
X96020000Y-91452984D01*
X97520000Y-91452984D01*
X97520000Y-93252984D01*
G36*
X97520000Y-93252984D02*
G01*
X96020000Y-93252984D01*
X96020000Y-91452984D01*
X97520000Y-91452984D01*
X97520000Y-93252984D01*
G37*
X97520000Y-106452984D02*
X96020000Y-106452984D01*
X96020000Y-104652984D01*
X97520000Y-104652984D01*
X97520000Y-106452984D01*
G36*
X97520000Y-106452984D02*
G01*
X96020000Y-106452984D01*
X96020000Y-104652984D01*
X97520000Y-104652984D01*
X97520000Y-106452984D01*
G37*
X99420000Y-93252984D02*
X97920000Y-93252984D01*
X97920000Y-91452984D01*
X99420000Y-91452984D01*
X99420000Y-93252984D01*
G36*
X99420000Y-93252984D02*
G01*
X97920000Y-93252984D01*
X97920000Y-91452984D01*
X99420000Y-91452984D01*
X99420000Y-93252984D01*
G37*
X99420000Y-106452984D02*
X97920000Y-106452984D01*
X97920000Y-104652984D01*
X99420000Y-104652984D01*
X99420000Y-106452984D01*
G36*
X99420000Y-106452984D02*
G01*
X97920000Y-106452984D01*
X97920000Y-104652984D01*
X99420000Y-104652984D01*
X99420000Y-106452984D01*
G37*
X102370000Y-95902984D02*
X100570000Y-95902984D01*
X100570000Y-94402984D01*
X102370000Y-94402984D01*
X102370000Y-95902984D01*
G36*
X102370000Y-95902984D02*
G01*
X100570000Y-95902984D01*
X100570000Y-94402984D01*
X102370000Y-94402984D01*
X102370000Y-95902984D01*
G37*
X102370000Y-97802984D02*
X100570000Y-97802984D01*
X100570000Y-96302984D01*
X102370000Y-96302984D01*
X102370000Y-97802984D01*
G36*
X102370000Y-97802984D02*
G01*
X100570000Y-97802984D01*
X100570000Y-96302984D01*
X102370000Y-96302984D01*
X102370000Y-97802984D01*
G37*
X102370000Y-99702984D02*
X100570000Y-99702984D01*
X100570000Y-98202984D01*
X102370000Y-98202984D01*
X102370000Y-99702984D01*
G36*
X102370000Y-99702984D02*
G01*
X100570000Y-99702984D01*
X100570000Y-98202984D01*
X102370000Y-98202984D01*
X102370000Y-99702984D01*
G37*
X102370000Y-101602984D02*
X100570000Y-101602984D01*
X100570000Y-100102984D01*
X102370000Y-100102984D01*
X102370000Y-101602984D01*
G36*
X102370000Y-101602984D02*
G01*
X100570000Y-101602984D01*
X100570000Y-100102984D01*
X102370000Y-100102984D01*
X102370000Y-101602984D01*
G37*
X102370000Y-103502984D02*
X100570000Y-103502984D01*
X100570000Y-102002984D01*
X102370000Y-102002984D01*
X102370000Y-103502984D01*
G36*
X102370000Y-103502984D02*
G01*
X100570000Y-103502984D01*
X100570000Y-102002984D01*
X102370000Y-102002984D01*
X102370000Y-103502984D01*
G37*
%TD*%
D11*
%TO.C,D2*%
X68908000Y-69502984D03*
X68908000Y-71552984D03*
%TD*%
D12*
%TO.C,C_BME_VDDIO1*%
X66190707Y-83678691D03*
X66190707Y-85753691D03*
%TD*%
D13*
%TO.C,C8*%
X94100000Y-55112836D03*
X94100000Y-53212836D03*
%TD*%
D14*
%TO.C,R2*%
X63880859Y-59723927D03*
X62055859Y-59723927D03*
%TD*%
D15*
%TO.C,R15*%
X133050000Y-75542984D03*
X133050000Y-77542984D03*
%TD*%
D16*
%TO.C,J7*%
X106180000Y-43640000D03*
X98980000Y-43640000D03*
D17*
X105330000Y-44200000D03*
X103830000Y-44200000D03*
X102830000Y-44200000D03*
X102330000Y-44200000D03*
X101330000Y-44200000D03*
X99830000Y-44200000D03*
D18*
X99780000Y-42990000D03*
X101380000Y-42990000D03*
X101780000Y-42290000D03*
X102180000Y-42990000D03*
X102980000Y-42990000D03*
X103380000Y-42290000D03*
X103780000Y-42990000D03*
X105380000Y-42990000D03*
D19*
X107080000Y-39870000D03*
D20*
X106855000Y-42390000D03*
D21*
X106425000Y-45190000D03*
X98735000Y-45190000D03*
D20*
X98305000Y-42390000D03*
D19*
X98080000Y-39870000D03*
%TD*%
D13*
%TO.C,C10*%
X96470000Y-55112836D03*
X96470000Y-53212836D03*
%TD*%
%TO.C,C1*%
X112330000Y-49732836D03*
X112330000Y-47832836D03*
%TD*%
D15*
%TO.C,R13*%
X123303333Y-75552984D03*
X123303333Y-77552984D03*
%TD*%
D22*
%TO.C,Y1*%
X79590000Y-70882984D03*
X84470000Y-70882984D03*
%TD*%
D15*
%TO.C,R_BME_SDA1*%
X62170707Y-75566191D03*
X62170707Y-77566191D03*
%TD*%
%TO.C,R16*%
X68290000Y-90170000D03*
X68290000Y-92170000D03*
%TD*%
D23*
%TO.C,C_VDDIO_MPU1*%
X109200000Y-66622984D03*
X107125000Y-66622984D03*
%TD*%
D24*
%TO.C,C4*%
X127880000Y-52852836D03*
X127880000Y-54752836D03*
%TD*%
D25*
%TO.C,J5*%
X131770000Y-63082984D03*
D26*
X131770000Y-65622984D03*
X131770000Y-68162984D03*
%TD*%
D27*
%TO.C,R_BL2*%
X104980000Y-53230000D03*
X102980000Y-53230000D03*
%TD*%
D28*
%TO.C,U1*%
X117230000Y-48500336D03*
X117230000Y-50800336D03*
D29*
X123530000Y-50800336D03*
D28*
X117230000Y-53100336D03*
%TD*%
D15*
%TO.C,R_BME_SCL1*%
X66160707Y-75546191D03*
X66160707Y-77546191D03*
%TD*%
D30*
%TO.C,R3*%
X93990000Y-49325336D03*
X93990000Y-51150336D03*
%TD*%
D23*
%TO.C,C_SAM_VCCIO1*%
X92620000Y-109952984D03*
X90545000Y-109952984D03*
%TD*%
D15*
%TO.C,R9*%
X71710000Y-69465484D03*
X71710000Y-71465484D03*
%TD*%
D25*
%TO.C,J1*%
X85840000Y-40290000D03*
D26*
X88380000Y-40290000D03*
%TD*%
D31*
%TO.C,S2*%
X65600000Y-92310000D03*
X61450000Y-92310000D03*
X65600000Y-90160000D03*
X61450000Y-90160000D03*
%TD*%
D32*
%TO.C,J6*%
X129910000Y-84847984D03*
X129910000Y-85947984D03*
X129910000Y-87047984D03*
X129910000Y-88147984D03*
X129910000Y-89247984D03*
X129910000Y-90347984D03*
X129910000Y-91447984D03*
X129910000Y-92547984D03*
D33*
X132510000Y-81177984D03*
X124210000Y-81177984D03*
X132510000Y-94927984D03*
X124210000Y-94927984D03*
%TD*%
D34*
%TO.C,H2*%
X128380000Y-42822984D03*
%TD*%
D35*
%TO.C,U2*%
X66454747Y-63201427D03*
X67724747Y-63201427D03*
X68994747Y-63201427D03*
X70264747Y-63201427D03*
X70264747Y-56026427D03*
X68994747Y-56026427D03*
X67724747Y-56026427D03*
X66454747Y-56026427D03*
%TD*%
D34*
%TO.C,H1*%
X63380000Y-42822984D03*
%TD*%
D15*
%TO.C,R10*%
X66440000Y-69482984D03*
X66440000Y-71482984D03*
%TD*%
D36*
%TO.C,R_BL1*%
X102980000Y-50460000D03*
X104980000Y-50460000D03*
%TD*%
D11*
%TO.C,D1*%
X74178000Y-69485484D03*
X74178000Y-71535484D03*
%TD*%
D12*
%TO.C,C18*%
X130356666Y-75515484D03*
X130356666Y-77590484D03*
%TD*%
D24*
%TO.C,C6*%
X93610000Y-67022836D03*
X93610000Y-68922836D03*
%TD*%
D37*
%TO.C,C_VDD_MPU1*%
X113642500Y-63770484D03*
X113642500Y-61695484D03*
%TD*%
D11*
%TO.C,D3*%
X63528000Y-69465484D03*
X63528000Y-71515484D03*
%TD*%
D38*
%TO.C,C_MPU_REG1*%
X111705000Y-66622984D03*
X113780000Y-66622984D03*
%TD*%
D39*
%TO.C,R_SAM_SDA1*%
X98880000Y-72322984D03*
X98880000Y-70322984D03*
%TD*%
D34*
%TO.C,H4*%
X63380000Y-117822984D03*
%TD*%
D24*
%TO.C,C17*%
X94570000Y-39582836D03*
X94570000Y-41482836D03*
%TD*%
D40*
%TO.C,C14*%
X84730000Y-62522984D03*
X82830000Y-62522984D03*
%TD*%
D41*
%TO.C,U5*%
X108410000Y-61732984D03*
X108410000Y-62132984D03*
X108410000Y-62532984D03*
X108410000Y-62932984D03*
X108410000Y-63332984D03*
X108410000Y-63732984D03*
D42*
X108955000Y-64277984D03*
X109355000Y-64277984D03*
X109755000Y-64277984D03*
X110155000Y-64277984D03*
X110555000Y-64277984D03*
X110955000Y-64277984D03*
D41*
X111500000Y-63732984D03*
X111500000Y-63332984D03*
X111500000Y-62932984D03*
X111500000Y-62532984D03*
X111500000Y-62132984D03*
X111500000Y-61732984D03*
D42*
X110955000Y-61187984D03*
X110555000Y-61187984D03*
X110155000Y-61187984D03*
X109755000Y-61187984D03*
X109355000Y-61187984D03*
X108955000Y-61187984D03*
D43*
X109955000Y-62732984D03*
%TD*%
D12*
%TO.C,C_BME_VDD1*%
X62200707Y-83758691D03*
X62200707Y-85833691D03*
%TD*%
D31*
%TO.C,S3*%
X66635000Y-50935000D03*
X62485000Y-50935000D03*
X66635000Y-48785000D03*
X62485000Y-48785000D03*
%TD*%
D37*
%TO.C,C_SAM_VCC1*%
X84370000Y-96952984D03*
X84370000Y-94877984D03*
%TD*%
D30*
%TO.C,R4*%
X96210000Y-49345336D03*
X96210000Y-51170336D03*
%TD*%
D27*
%TO.C,R_MPU_SCL1*%
X113760000Y-58782984D03*
X111760000Y-58782984D03*
%TD*%
D14*
%TO.C,R1*%
X63859747Y-63183927D03*
X62034747Y-63183927D03*
%TD*%
D27*
%TO.C,R_MPU_SDA1*%
X109530000Y-58772984D03*
X107530000Y-58772984D03*
%TD*%
D31*
%TO.C,S1*%
X121280000Y-60172984D03*
X125430000Y-60172984D03*
X121280000Y-62322984D03*
X125430000Y-62322984D03*
%TD*%
D24*
%TO.C,C13*%
X90820000Y-67062836D03*
X90820000Y-68962836D03*
%TD*%
D40*
%TO.C,C15*%
X84730000Y-57872984D03*
X82830000Y-57872984D03*
%TD*%
D36*
%TO.C,R12*%
X124450000Y-66632984D03*
X126450000Y-66632984D03*
%TD*%
D13*
%TO.C,C7*%
X84830000Y-52822984D03*
X84830000Y-50922984D03*
%TD*%
D15*
%TO.C,R11*%
X61060000Y-69445484D03*
X61060000Y-71445484D03*
%TD*%
D34*
%TO.C,H3*%
X128380000Y-117822984D03*
%TD*%
D44*
%TO.C,J4*%
X118770000Y-40642836D03*
D34*
X113690000Y-40642836D03*
%TD*%
D45*
%TO.C,U4*%
X64290707Y-79801191D03*
X64940707Y-79801191D03*
X65590707Y-79801191D03*
X66240707Y-79801191D03*
X66240707Y-81741191D03*
X65590707Y-81741191D03*
X64940707Y-81741191D03*
X64290707Y-81741191D03*
%TD*%
D46*
%TO.C,C11*%
X98810000Y-55940000D03*
X100710000Y-55940000D03*
%TD*%
D39*
%TO.C,R_SAM_SCL1*%
X96280000Y-72322984D03*
X96280000Y-70322984D03*
%TD*%
D47*
%TO.C,R5*%
X86717500Y-66822984D03*
X88542500Y-66822984D03*
%TD*%
D46*
%TO.C,C12*%
X98430000Y-62522984D03*
X100330000Y-62522984D03*
%TD*%
D40*
%TO.C,C2*%
X84250000Y-66672984D03*
X82350000Y-66672984D03*
%TD*%
D48*
%TO.C,U3*%
X88112500Y-58087836D03*
X88112500Y-58487836D03*
X88112500Y-58887836D03*
X88112500Y-59287836D03*
X88112500Y-59687836D03*
X88112500Y-60087836D03*
X88112500Y-60487836D03*
X88112500Y-60887836D03*
X88112500Y-61287836D03*
X88112500Y-61687836D03*
X88112500Y-62087836D03*
X88112500Y-62487836D03*
X88112500Y-62887836D03*
X88112500Y-63287836D03*
D49*
X88950000Y-64125336D03*
X89350000Y-64125336D03*
X89750000Y-64125336D03*
X90150000Y-64125336D03*
X90550000Y-64125336D03*
X90950000Y-64125336D03*
X91350000Y-64125336D03*
X91750000Y-64125336D03*
X92150000Y-64125336D03*
X92550000Y-64125336D03*
X92950000Y-64125336D03*
X93350000Y-64125336D03*
X93750000Y-64125336D03*
X94150000Y-64125336D03*
D48*
X94987500Y-63287836D03*
X94987500Y-62887836D03*
X94987500Y-62487836D03*
X94987500Y-62087836D03*
X94987500Y-61687836D03*
X94987500Y-61287836D03*
X94987500Y-60887836D03*
X94987500Y-60487836D03*
X94987500Y-60087836D03*
X94987500Y-59687836D03*
X94987500Y-59287836D03*
X94987500Y-58887836D03*
X94987500Y-58487836D03*
X94987500Y-58087836D03*
D49*
X94150000Y-57250336D03*
X93750000Y-57250336D03*
X93350000Y-57250336D03*
X92950000Y-57250336D03*
X92550000Y-57250336D03*
X92150000Y-57250336D03*
X91750000Y-57250336D03*
X91350000Y-57250336D03*
X90950000Y-57250336D03*
X90550000Y-57250336D03*
X90150000Y-57250336D03*
X89750000Y-57250336D03*
X89350000Y-57250336D03*
X88950000Y-57250336D03*
D50*
X91550000Y-60687836D03*
%TD*%
D13*
%TO.C,C9*%
X91160000Y-52792836D03*
X91160000Y-50892836D03*
%TD*%
D38*
%TO.C,C_SAM_VBCKP1*%
X95082500Y-109952984D03*
X97157500Y-109952984D03*
%TD*%
D40*
%TO.C,C3*%
X79590000Y-66022984D03*
X77690000Y-66022984D03*
%TD*%
D15*
%TO.C,R14*%
X126830000Y-75552984D03*
X126830000Y-77552984D03*
%TD*%
D40*
%TO.C,C5*%
X63838359Y-55853927D03*
X61938359Y-55853927D03*
%TD*%
D13*
%TO.C,C16*%
X87480000Y-52822984D03*
X87480000Y-50922984D03*
%TD*%
M02*
