%TF.GenerationSoftware,KiCad,Pcbnew,9.0.1*%
%TF.CreationDate,2025-04-14T00:51:25-03:00*%
%TF.ProjectId,SRAD_computer,53524144-5f63-46f6-9d70-757465722e6b,rev?*%
%TF.SameCoordinates,Original*%
%TF.FileFunction,Soldermask,Bot*%
%TF.FilePolarity,Negative*%
%FSLAX46Y46*%
G04 Gerber Fmt 4.6, Leading zero omitted, Abs format (unit mm)*
G04 Created by KiCad (PCBNEW 9.0.1) date 2025-04-14 00:51:25*
%MOMM*%
%LPD*%
G01*
G04 APERTURE LIST*
%ADD10C,0.010000*%
%ADD11C,0.650000*%
%ADD12C,0.854000*%
%ADD13O,1.104000X1.904000*%
%ADD14O,1.104000X1.704000*%
%ADD15O,1.354000X1.104000*%
%ADD16C,1.500000*%
%ADD17R,2.000000X2.000000*%
%ADD18C,2.000000*%
%ADD19C,3.500000*%
%ADD20R,3.500000X3.500000*%
G04 APERTURE END LIST*
D10*
%TO.C,J7*%
X99177000Y-43216000D02*
X99199000Y-43217000D01*
X99221000Y-43220000D01*
X99243000Y-43224000D01*
X99265000Y-43229000D01*
X99286000Y-43236000D01*
X99307000Y-43243000D01*
X99328000Y-43252000D01*
X99348000Y-43261000D01*
X99368000Y-43272000D01*
X99386000Y-43284000D01*
X99405000Y-43296000D01*
X99422000Y-43310000D01*
X99439000Y-43324000D01*
X99456000Y-43339000D01*
X99471000Y-43356000D01*
X99485000Y-43373000D01*
X99499000Y-43390000D01*
X99511000Y-43409000D01*
X99523000Y-43428000D01*
X99534000Y-43447000D01*
X99543000Y-43467000D01*
X99552000Y-43488000D01*
X99559000Y-43509000D01*
X99566000Y-43530000D01*
X99571000Y-43552000D01*
X99575000Y-43574000D01*
X99578000Y-43596000D01*
X99579000Y-43618000D01*
X99580000Y-43640000D01*
X99579000Y-43662000D01*
X99578000Y-43684000D01*
X99575000Y-43706000D01*
X99571000Y-43728000D01*
X99566000Y-43750000D01*
X99559000Y-43771000D01*
X99552000Y-43792000D01*
X99543000Y-43813000D01*
X99534000Y-43833000D01*
X99523000Y-43852000D01*
X99511000Y-43871000D01*
X99499000Y-43890000D01*
X99485000Y-43907000D01*
X99471000Y-43924000D01*
X99456000Y-43941000D01*
X99439000Y-43956000D01*
X99422000Y-43970000D01*
X99405000Y-43984000D01*
X99386000Y-43996000D01*
X99368000Y-44008000D01*
X99348000Y-44019000D01*
X99328000Y-44028000D01*
X99307000Y-44037000D01*
X99286000Y-44044000D01*
X99265000Y-44051000D01*
X99243000Y-44056000D01*
X99221000Y-44060000D01*
X99199000Y-44063000D01*
X99177000Y-44064000D01*
X99155000Y-44065000D01*
X98805000Y-44065000D01*
X98783000Y-44064000D01*
X98761000Y-44063000D01*
X98739000Y-44060000D01*
X98717000Y-44056000D01*
X98695000Y-44051000D01*
X98674000Y-44044000D01*
X98653000Y-44037000D01*
X98632000Y-44028000D01*
X98612000Y-44019000D01*
X98593000Y-44008000D01*
X98574000Y-43996000D01*
X98555000Y-43984000D01*
X98538000Y-43970000D01*
X98521000Y-43956000D01*
X98504000Y-43941000D01*
X98489000Y-43924000D01*
X98475000Y-43907000D01*
X98461000Y-43890000D01*
X98449000Y-43871000D01*
X98437000Y-43852000D01*
X98426000Y-43833000D01*
X98417000Y-43813000D01*
X98408000Y-43792000D01*
X98401000Y-43771000D01*
X98394000Y-43750000D01*
X98389000Y-43728000D01*
X98385000Y-43706000D01*
X98382000Y-43684000D01*
X98381000Y-43662000D01*
X98380000Y-43640000D01*
X98381000Y-43618000D01*
X98382000Y-43596000D01*
X98385000Y-43574000D01*
X98389000Y-43552000D01*
X98394000Y-43530000D01*
X98401000Y-43509000D01*
X98408000Y-43488000D01*
X98417000Y-43467000D01*
X98426000Y-43447000D01*
X98437000Y-43428000D01*
X98449000Y-43409000D01*
X98461000Y-43390000D01*
X98475000Y-43373000D01*
X98489000Y-43356000D01*
X98504000Y-43339000D01*
X98521000Y-43324000D01*
X98538000Y-43310000D01*
X98555000Y-43296000D01*
X98574000Y-43284000D01*
X98593000Y-43272000D01*
X98612000Y-43261000D01*
X98632000Y-43252000D01*
X98653000Y-43243000D01*
X98674000Y-43236000D01*
X98695000Y-43229000D01*
X98717000Y-43224000D01*
X98739000Y-43220000D01*
X98761000Y-43217000D01*
X98783000Y-43216000D01*
X98805000Y-43215000D01*
X99155000Y-43215000D01*
X99177000Y-43216000D01*
G36*
X99177000Y-43216000D02*
G01*
X99199000Y-43217000D01*
X99221000Y-43220000D01*
X99243000Y-43224000D01*
X99265000Y-43229000D01*
X99286000Y-43236000D01*
X99307000Y-43243000D01*
X99328000Y-43252000D01*
X99348000Y-43261000D01*
X99368000Y-43272000D01*
X99386000Y-43284000D01*
X99405000Y-43296000D01*
X99422000Y-43310000D01*
X99439000Y-43324000D01*
X99456000Y-43339000D01*
X99471000Y-43356000D01*
X99485000Y-43373000D01*
X99499000Y-43390000D01*
X99511000Y-43409000D01*
X99523000Y-43428000D01*
X99534000Y-43447000D01*
X99543000Y-43467000D01*
X99552000Y-43488000D01*
X99559000Y-43509000D01*
X99566000Y-43530000D01*
X99571000Y-43552000D01*
X99575000Y-43574000D01*
X99578000Y-43596000D01*
X99579000Y-43618000D01*
X99580000Y-43640000D01*
X99579000Y-43662000D01*
X99578000Y-43684000D01*
X99575000Y-43706000D01*
X99571000Y-43728000D01*
X99566000Y-43750000D01*
X99559000Y-43771000D01*
X99552000Y-43792000D01*
X99543000Y-43813000D01*
X99534000Y-43833000D01*
X99523000Y-43852000D01*
X99511000Y-43871000D01*
X99499000Y-43890000D01*
X99485000Y-43907000D01*
X99471000Y-43924000D01*
X99456000Y-43941000D01*
X99439000Y-43956000D01*
X99422000Y-43970000D01*
X99405000Y-43984000D01*
X99386000Y-43996000D01*
X99368000Y-44008000D01*
X99348000Y-44019000D01*
X99328000Y-44028000D01*
X99307000Y-44037000D01*
X99286000Y-44044000D01*
X99265000Y-44051000D01*
X99243000Y-44056000D01*
X99221000Y-44060000D01*
X99199000Y-44063000D01*
X99177000Y-44064000D01*
X99155000Y-44065000D01*
X98805000Y-44065000D01*
X98783000Y-44064000D01*
X98761000Y-44063000D01*
X98739000Y-44060000D01*
X98717000Y-44056000D01*
X98695000Y-44051000D01*
X98674000Y-44044000D01*
X98653000Y-44037000D01*
X98632000Y-44028000D01*
X98612000Y-44019000D01*
X98593000Y-44008000D01*
X98574000Y-43996000D01*
X98555000Y-43984000D01*
X98538000Y-43970000D01*
X98521000Y-43956000D01*
X98504000Y-43941000D01*
X98489000Y-43924000D01*
X98475000Y-43907000D01*
X98461000Y-43890000D01*
X98449000Y-43871000D01*
X98437000Y-43852000D01*
X98426000Y-43833000D01*
X98417000Y-43813000D01*
X98408000Y-43792000D01*
X98401000Y-43771000D01*
X98394000Y-43750000D01*
X98389000Y-43728000D01*
X98385000Y-43706000D01*
X98382000Y-43684000D01*
X98381000Y-43662000D01*
X98380000Y-43640000D01*
X98381000Y-43618000D01*
X98382000Y-43596000D01*
X98385000Y-43574000D01*
X98389000Y-43552000D01*
X98394000Y-43530000D01*
X98401000Y-43509000D01*
X98408000Y-43488000D01*
X98417000Y-43467000D01*
X98426000Y-43447000D01*
X98437000Y-43428000D01*
X98449000Y-43409000D01*
X98461000Y-43390000D01*
X98475000Y-43373000D01*
X98489000Y-43356000D01*
X98504000Y-43339000D01*
X98521000Y-43324000D01*
X98538000Y-43310000D01*
X98555000Y-43296000D01*
X98574000Y-43284000D01*
X98593000Y-43272000D01*
X98612000Y-43261000D01*
X98632000Y-43252000D01*
X98653000Y-43243000D01*
X98674000Y-43236000D01*
X98695000Y-43229000D01*
X98717000Y-43224000D01*
X98739000Y-43220000D01*
X98761000Y-43217000D01*
X98783000Y-43216000D01*
X98805000Y-43215000D01*
X99155000Y-43215000D01*
X99177000Y-43216000D01*
G37*
%TD*%
D11*
%TO.C,J7*%
X106180000Y-43640000D03*
X98980000Y-43640000D03*
D12*
X99780000Y-42990000D03*
X101380000Y-42990000D03*
X101780000Y-42290000D03*
X102180000Y-42990000D03*
X102980000Y-42990000D03*
X103380000Y-42290000D03*
X103780000Y-42990000D03*
X105380000Y-42990000D03*
D13*
X107080000Y-39870000D03*
D14*
X106855000Y-42390000D03*
D15*
X106425000Y-45190000D03*
X98735000Y-45190000D03*
D14*
X98305000Y-42390000D03*
D13*
X98080000Y-39870000D03*
%TD*%
D16*
%TO.C,Y1*%
X79590000Y-70882984D03*
X84470000Y-70882984D03*
%TD*%
D17*
%TO.C,J5*%
X131770000Y-63082984D03*
D18*
X131770000Y-65622984D03*
X131770000Y-68162984D03*
%TD*%
D17*
%TO.C,J1*%
X85840000Y-40290000D03*
D18*
X88380000Y-40290000D03*
%TD*%
D19*
%TO.C,H2*%
X128380000Y-42822984D03*
%TD*%
%TO.C,H1*%
X63380000Y-42822984D03*
%TD*%
%TO.C,H4*%
X63380000Y-117822984D03*
%TD*%
%TO.C,H3*%
X128380000Y-117822984D03*
%TD*%
D20*
%TO.C,J4*%
X118770000Y-40642836D03*
D19*
X113690000Y-40642836D03*
%TD*%
M02*
