%TF.GenerationSoftware,KiCad,Pcbnew,9.0.1*%
%TF.CreationDate,2025-04-08T19:45:02-03:00*%
%TF.ProjectId,SRAD_computer,53524144-5f63-46f6-9d70-757465722e6b,rev?*%
%TF.SameCoordinates,Original*%
%TF.FileFunction,Copper,L2,Bot*%
%TF.FilePolarity,Positive*%
%FSLAX46Y46*%
G04 Gerber Fmt 4.6, Leading zero omitted, Abs format (unit mm)*
G04 Created by KiCad (PCBNEW 9.0.1) date 2025-04-08 19:45:02*
%MOMM*%
%LPD*%
G01*
G04 APERTURE LIST*
%TA.AperFunction,ComponentPad*%
%ADD10C,0.650000*%
%TD*%
%TA.AperFunction,ComponentPad*%
%ADD11O,0.900000X1.700000*%
%TD*%
%TA.AperFunction,ComponentPad*%
%ADD12O,0.900000X1.500000*%
%TD*%
%TA.AperFunction,ComponentPad*%
%ADD13O,1.150000X0.900000*%
%TD*%
%TA.AperFunction,ComponentPad*%
%ADD14C,1.500000*%
%TD*%
%TA.AperFunction,ComponentPad*%
%ADD15R,2.000000X2.000000*%
%TD*%
%TA.AperFunction,ComponentPad*%
%ADD16C,2.000000*%
%TD*%
%TA.AperFunction,ComponentPad*%
%ADD17R,3.500000X3.500000*%
%TD*%
%TA.AperFunction,ComponentPad*%
%ADD18C,3.500000*%
%TD*%
%TA.AperFunction,ComponentPad*%
%ADD19R,2.300000X2.300000*%
%TD*%
%TA.AperFunction,ComponentPad*%
%ADD20O,2.300000X2.300000*%
%TD*%
%TA.AperFunction,ComponentPad*%
%ADD21C,0.600000*%
%TD*%
%TA.AperFunction,ViaPad*%
%ADD22C,0.600000*%
%TD*%
%TA.AperFunction,ViaPad*%
%ADD23C,1.200000*%
%TD*%
%TA.AperFunction,ViaPad*%
%ADD24C,1.500000*%
%TD*%
%TA.AperFunction,ViaPad*%
%ADD25C,2.000000*%
%TD*%
%TA.AperFunction,ViaPad*%
%ADD26C,1.000000*%
%TD*%
%TA.AperFunction,Conductor*%
%ADD27C,0.400000*%
%TD*%
%TA.AperFunction,Conductor*%
%ADD28C,0.200000*%
%TD*%
%TA.AperFunction,Conductor*%
%ADD29C,2.000000*%
%TD*%
%TA.AperFunction,Conductor*%
%ADD30C,1.000000*%
%TD*%
%TA.AperFunction,Conductor*%
%ADD31C,0.600000*%
%TD*%
G04 APERTURE END LIST*
D10*
%TO.P,J7,B1,GND__2*%
%TO.N,GND*%
X99780000Y-42990000D03*
%TO.P,J7,B4,VBUS__2*%
%TO.N,VBUS*%
X101380000Y-42990000D03*
%TO.P,J7,B5,CC2*%
%TO.N,unconnected-(J7-CC2-PadB5)*%
X101780000Y-42290000D03*
%TO.P,J7,B6,DP2*%
%TO.N,/USB_D+*%
X102180000Y-42990000D03*
%TO.P,J7,B7,DN2*%
%TO.N,/USB_D-*%
X102980000Y-42990000D03*
%TO.P,J7,B8,SBU2*%
%TO.N,unconnected-(J7-SBU2-PadB8)*%
X103380000Y-42290000D03*
%TO.P,J7,B9,VBUS__3*%
%TO.N,VBUS*%
X103780000Y-42990000D03*
%TO.P,J7,B12,GND__3*%
%TO.N,GND*%
X105380000Y-42990000D03*
D11*
%TO.P,J7,SH1,SHIELD*%
X107080000Y-39870000D03*
D12*
%TO.P,J7,SH2,SHIELD__1*%
X106855000Y-42390000D03*
D13*
%TO.P,J7,SH3,SHIELD__2*%
X106425000Y-45190000D03*
%TO.P,J7,SH4,SHIELD__3*%
X98735000Y-45190000D03*
D12*
%TO.P,J7,SH5,SHIELD__4*%
X98305000Y-42390000D03*
D11*
%TO.P,J7,SH6,SHIELD__5*%
X98080000Y-39870000D03*
%TD*%
D14*
%TO.P,Y1,1,1*%
%TO.N,Net-(C3-Pad1)*%
X79590000Y-70882984D03*
%TO.P,Y1,2,2*%
%TO.N,/XIN*%
X84470000Y-70882984D03*
%TD*%
D15*
%TO.P,J5,1,1*%
%TO.N,/UART_Rx*%
X131770000Y-63082984D03*
D16*
%TO.P,J5,2,2*%
%TO.N,/UART_Tx*%
X131770000Y-65622984D03*
%TO.P,J5,3,3*%
%TO.N,GND*%
X131770000Y-68162984D03*
%TD*%
D17*
%TO.P,J1,1,1*%
%TO.N,/V_cam*%
X87530000Y-40282836D03*
D18*
%TO.P,J1,2,2*%
%TO.N,GND*%
X82530000Y-40282836D03*
%TO.P,J1,3,3*%
%TO.N,V_cam_bus*%
X77530000Y-40282836D03*
%TD*%
D19*
%TO.P,J2,1,Pin_1*%
%TO.N,/~{USB_BOOT}*%
X69790000Y-43037836D03*
D20*
%TO.P,J2,2,Pin_2*%
%TO.N,GND*%
X69790000Y-40497836D03*
%TD*%
D17*
%TO.P,J4,1,1*%
%TO.N,GND*%
X118770000Y-40642836D03*
D18*
%TO.P,J4,2,2*%
%TO.N,VBUS*%
X113690000Y-40642836D03*
%TD*%
D21*
%TO.P,U3,57,GND*%
%TO.N,GND*%
X90275000Y-59412836D03*
X90275000Y-60687836D03*
X90275000Y-61962836D03*
X91550000Y-59412836D03*
X91550000Y-60687836D03*
X91550000Y-61962836D03*
X92825000Y-59412836D03*
X92825000Y-60687836D03*
X92825000Y-61962836D03*
%TD*%
D22*
%TO.N,GND*%
X117520000Y-118202984D03*
X110520000Y-121702984D03*
X79020000Y-90202984D03*
X103520000Y-118202984D03*
X117520000Y-83202984D03*
X72020000Y-118202984D03*
X96520000Y-83202984D03*
X100020000Y-111202984D03*
X100020000Y-90202984D03*
X89520000Y-118202984D03*
X72020000Y-76202984D03*
X114020000Y-90202984D03*
X72020000Y-79702984D03*
X114020000Y-79702984D03*
X79020000Y-79702984D03*
X107020000Y-100702984D03*
X100020000Y-86702984D03*
X117520000Y-107702984D03*
X103520000Y-86702984D03*
X72020000Y-90202984D03*
X107020000Y-86702984D03*
X94460000Y-102702984D03*
X86020000Y-86702984D03*
X93370000Y-76210000D03*
X90960000Y-102702984D03*
X103520000Y-114702984D03*
X114020000Y-93702984D03*
X96520000Y-114702984D03*
X110520000Y-90202984D03*
X75520000Y-114702984D03*
X72020000Y-104202984D03*
X117520000Y-97202984D03*
X72020000Y-107702984D03*
X82520000Y-111202984D03*
X100020000Y-114702984D03*
X114020000Y-86702984D03*
D23*
X64240000Y-61432836D03*
D22*
X82520000Y-100702984D03*
X103520000Y-107702984D03*
X117520000Y-104202984D03*
X72020000Y-86702984D03*
X79020000Y-76202984D03*
X107020000Y-121702984D03*
X107020000Y-76202984D03*
X100020000Y-83202984D03*
X79020000Y-97202984D03*
X117520000Y-114702984D03*
X82520000Y-118202984D03*
X75520000Y-86702984D03*
X107020000Y-93702984D03*
X90960000Y-99202984D03*
X107020000Y-79702984D03*
X82520000Y-79702984D03*
X86020000Y-76202984D03*
X93020000Y-90202984D03*
X86020000Y-114702984D03*
X79020000Y-93702984D03*
X114020000Y-97202984D03*
D23*
X62534328Y-66528508D03*
D22*
X103400000Y-76430000D03*
X100020000Y-107702984D03*
X93510000Y-79910000D03*
X75520000Y-100702984D03*
X96520000Y-76202984D03*
X75520000Y-97202984D03*
X93020000Y-86702984D03*
X79020000Y-104202984D03*
X97960000Y-95702984D03*
X86020000Y-104202984D03*
X72020000Y-114702984D03*
X82520000Y-104202984D03*
X110520000Y-97202984D03*
X103520000Y-83202984D03*
X72020000Y-97202984D03*
X107020000Y-83202984D03*
X89520000Y-114702984D03*
X114020000Y-76202984D03*
X110520000Y-104202984D03*
X75520000Y-121702984D03*
X110520000Y-107702984D03*
X75520000Y-104202984D03*
X117520000Y-86702984D03*
X79020000Y-86702984D03*
X93020000Y-121702984D03*
X103520000Y-90202984D03*
D23*
X101630000Y-60872984D03*
D22*
X79020000Y-100702984D03*
X117520000Y-121702984D03*
X82520000Y-121702984D03*
X107020000Y-97202984D03*
X82520000Y-93702984D03*
X110520000Y-86702984D03*
X93020000Y-118202984D03*
X94460000Y-95702984D03*
X100020000Y-76202984D03*
X75520000Y-83202984D03*
X100020000Y-118202984D03*
X117520000Y-93702984D03*
X93020000Y-114702984D03*
X93560000Y-82810000D03*
X103520000Y-121702984D03*
X89520000Y-86702984D03*
X117520000Y-100702984D03*
X86020000Y-100702984D03*
X100020000Y-79702984D03*
X110520000Y-111202984D03*
X107020000Y-118202984D03*
X114020000Y-83202984D03*
X110520000Y-76202984D03*
X114020000Y-104202984D03*
X72020000Y-121702984D03*
X107020000Y-111202984D03*
X103520000Y-100702984D03*
X75520000Y-93702984D03*
X72020000Y-93702984D03*
X86020000Y-121702984D03*
X86020000Y-90202984D03*
X82520000Y-114702984D03*
X89520000Y-121702984D03*
X110520000Y-83202984D03*
X82520000Y-76202984D03*
X89520000Y-83202984D03*
X110520000Y-79702984D03*
X96520000Y-79702984D03*
X72020000Y-83202984D03*
X114020000Y-111202984D03*
X114020000Y-118202984D03*
X117520000Y-90202984D03*
X107020000Y-90202984D03*
X110520000Y-114702984D03*
X96520000Y-118202984D03*
X79020000Y-111202984D03*
X94460000Y-99202984D03*
X117520000Y-111202984D03*
X82520000Y-86702984D03*
X110520000Y-118202984D03*
X75520000Y-90202984D03*
X96520000Y-121702984D03*
X107020000Y-107702984D03*
X89520000Y-76202984D03*
X97960000Y-102702984D03*
X90960000Y-95702984D03*
X79020000Y-83202984D03*
X117520000Y-76202984D03*
X72020000Y-111202984D03*
X114020000Y-107702984D03*
X75520000Y-111202984D03*
X86020000Y-79702984D03*
X110520000Y-93702984D03*
X89520000Y-79702984D03*
X117520000Y-79702984D03*
X89520000Y-90202984D03*
X82520000Y-83202984D03*
X79020000Y-107702984D03*
X75520000Y-118202984D03*
D24*
X60320000Y-54072836D03*
D22*
X86020000Y-93702984D03*
X86020000Y-118202984D03*
X103520000Y-111202984D03*
X114020000Y-121702984D03*
X103520000Y-104202984D03*
X114020000Y-100702984D03*
X79020000Y-118202984D03*
X86020000Y-107702984D03*
X114020000Y-114702984D03*
X72020000Y-100702984D03*
X86020000Y-83202984D03*
X75520000Y-107702984D03*
X75520000Y-76202984D03*
X79020000Y-114702984D03*
D25*
X128990000Y-48832836D03*
D22*
X100020000Y-121702984D03*
X89520000Y-107702984D03*
X79020000Y-121702984D03*
X97960000Y-99202984D03*
X82520000Y-90202984D03*
X107020000Y-114702984D03*
X103520000Y-93702984D03*
X75520000Y-79702984D03*
X82520000Y-107702984D03*
X107020000Y-104202984D03*
X103520000Y-79702984D03*
D26*
X133920000Y-59192984D03*
D22*
X110520000Y-100702984D03*
D25*
%TO.N,VBUS*%
X109065000Y-45267836D03*
D23*
%TO.N,/XIN*%
X87810000Y-68592984D03*
%TO.N,Net-(C3-Pad1)*%
X76690000Y-67682984D03*
%TO.N,+3V3*%
X89330000Y-52822984D03*
X81700000Y-96972984D03*
X94230000Y-72572984D03*
X92620000Y-112362984D03*
X128940000Y-72672984D03*
X95082500Y-112352984D03*
X89430000Y-71322984D03*
X115810000Y-61052984D03*
X75887107Y-62130091D03*
D25*
X131410000Y-52382836D03*
D23*
X92375000Y-39587836D03*
D26*
X61915707Y-80623691D03*
D23*
X100780000Y-64622984D03*
X113460000Y-56622984D03*
X99860000Y-54242984D03*
X63030000Y-57763927D03*
%TO.N,/~{USB_BOOT}*%
X69790000Y-49172836D03*
D25*
%TO.N,/V_cam*%
X76600761Y-53993745D03*
%TO.N,V_cam_bus*%
X71990000Y-46922836D03*
D23*
%TO.N,/power_cam*%
X90220000Y-48922984D03*
X96680000Y-57772984D03*
%TO.N,/SCL*%
X97380000Y-67822984D03*
X65910000Y-73632984D03*
X92530000Y-72072984D03*
X96770000Y-87352984D03*
X110470000Y-56652984D03*
%TO.N,/SDA*%
X106708603Y-60651587D03*
X101580000Y-71710000D03*
X62880000Y-73632984D03*
X105220000Y-94952984D03*
X95790000Y-66142984D03*
%TO.N,/UART_Rx*%
X119246397Y-67189381D03*
%TO.N,/UART_Tx*%
X119246397Y-68822984D03*
%TD*%
D27*
%TO.N,GND*%
X100730000Y-46070000D02*
X100720000Y-46070000D01*
X98330000Y-53382984D02*
X105730000Y-45982984D01*
X106425000Y-45190000D02*
X106956000Y-44659000D01*
X98735000Y-45190000D02*
X97749391Y-44204391D01*
D28*
X62534328Y-66528508D02*
X63110000Y-65952836D01*
D29*
X126680000Y-48832836D02*
X128990000Y-48832836D01*
D27*
X96330000Y-49222984D02*
X96330000Y-50970000D01*
X98080000Y-39870000D02*
X107080000Y-39870000D01*
X133920000Y-66012984D02*
X133920000Y-59192984D01*
D30*
X118770000Y-41382984D02*
X118770000Y-40642836D01*
D27*
X92470000Y-52342984D02*
X92470000Y-57442984D01*
D28*
X63110000Y-65952836D02*
X63110000Y-62562836D01*
D27*
X101630000Y-60772984D02*
X98330000Y-57472984D01*
X98330000Y-57472984D02*
X98330000Y-56242984D01*
X98080000Y-42165000D02*
X98305000Y-42390000D01*
X94050000Y-50762984D02*
X92470000Y-52342984D01*
X92970000Y-57382984D02*
X93030000Y-57442984D01*
D28*
X63110000Y-62562836D02*
X64240000Y-61432836D01*
D27*
X67720000Y-46612836D02*
X67720000Y-41082984D01*
X106956000Y-42491000D02*
X106855000Y-42390000D01*
X100720000Y-46070000D02*
X100117016Y-46672984D01*
X100117016Y-46672984D02*
X96680000Y-46672984D01*
X98080000Y-39870000D02*
X98080000Y-42165000D01*
D29*
X118770000Y-40642836D02*
X118770000Y-40922836D01*
D27*
X105380000Y-42990000D02*
X105980000Y-42390000D01*
X94050000Y-49302984D02*
X94050000Y-50762984D01*
D30*
X70230000Y-52582836D02*
X61750000Y-52582836D01*
X61700000Y-52632836D02*
X61480000Y-52632836D01*
X61750000Y-52582836D02*
X61700000Y-52632836D01*
D27*
X92470000Y-57442984D02*
X93030000Y-57442984D01*
D30*
X82530000Y-40282836D02*
X70230000Y-52582836D01*
D27*
X93407016Y-52292984D02*
X92970000Y-52730000D01*
X93040000Y-57452984D02*
X93060000Y-57472984D01*
X95007016Y-52292984D02*
X93407016Y-52292984D01*
X96330000Y-50970000D02*
X95007016Y-52292984D01*
X68305148Y-40497836D02*
X69790000Y-40497836D01*
X97749391Y-42945609D02*
X98305000Y-42390000D01*
D30*
X105730000Y-45982984D02*
X107729852Y-47982836D01*
D27*
X101630000Y-60872984D02*
X101630000Y-60772984D01*
X93060000Y-57472984D02*
X94290000Y-56242984D01*
D29*
X118770000Y-40922836D02*
X126680000Y-48832836D01*
D27*
X92970000Y-52730000D02*
X92970000Y-57382984D01*
D30*
X86865148Y-56002984D02*
X90275000Y-59412836D01*
X60320000Y-53792836D02*
X60320000Y-54072836D01*
D27*
X102800000Y-45860000D02*
X102800000Y-45870000D01*
X105980000Y-42390000D02*
X106855000Y-42390000D01*
X98330000Y-56242984D02*
X98330000Y-53382984D01*
D30*
X61480000Y-52632836D02*
X60320000Y-53792836D01*
D28*
X99204140Y-42390000D02*
X99558970Y-42744830D01*
D27*
X102800000Y-45870000D02*
X100667016Y-48002984D01*
X131770000Y-68162984D02*
X133920000Y-66012984D01*
D30*
X112170148Y-47982836D02*
X118770000Y-41382984D01*
D27*
X96680000Y-46672984D02*
X94050000Y-49302984D01*
D30*
X107729852Y-47982836D02*
X112170148Y-47982836D01*
D27*
X61700000Y-52632836D02*
X67720000Y-46612836D01*
X97550000Y-48002984D02*
X96330000Y-49222984D01*
D30*
X73650148Y-56002984D02*
X86865148Y-56002984D01*
D27*
X93030000Y-57442984D02*
X93040000Y-57452984D01*
X101250000Y-45550000D02*
X100730000Y-46070000D01*
X106855000Y-42390000D02*
X106855000Y-40095000D01*
D30*
X70230000Y-52582836D02*
X73650148Y-56002984D01*
D27*
X100667016Y-48002984D02*
X97550000Y-48002984D01*
X67720000Y-41082984D02*
X68305148Y-40497836D01*
X94290000Y-56242984D02*
X98330000Y-56242984D01*
D28*
X98305000Y-42390000D02*
X99204140Y-42390000D01*
D27*
X97749391Y-44204391D02*
X97749391Y-42945609D01*
X106855000Y-40095000D02*
X107080000Y-39870000D01*
X106956000Y-44659000D02*
X106956000Y-42491000D01*
D29*
%TO.N,VBUS*%
X109065000Y-45267836D02*
X108960000Y-45372836D01*
X113690000Y-40642836D02*
X109065000Y-45267836D01*
D28*
%TO.N,/XIN*%
X86340000Y-68592984D02*
X84170000Y-70762984D01*
X87810000Y-68592984D02*
X86340000Y-68592984D01*
%TO.N,Net-(C3-Pad1)*%
X76690000Y-67912984D02*
X79810000Y-71032984D01*
X76690000Y-67682984D02*
X76690000Y-67912984D01*
X79810000Y-71032984D02*
X80050000Y-71032984D01*
D27*
%TO.N,+3V3*%
X63030000Y-57763927D02*
X58208909Y-57763927D01*
D29*
X133940000Y-38962984D02*
X132000000Y-37022984D01*
D31*
X87560000Y-112362984D02*
X84920397Y-109723381D01*
D28*
X94230000Y-72572984D02*
X94230000Y-71622984D01*
X115650000Y-67952984D02*
X115830000Y-67772984D01*
X114680000Y-68922984D02*
X115650000Y-67952984D01*
D31*
X68630693Y-95852984D02*
X80580000Y-95852984D01*
X95082500Y-112352984D02*
X92630000Y-112352984D01*
D30*
X111020000Y-54242984D02*
X108930000Y-54242984D01*
D27*
X87080000Y-48172984D02*
X87080000Y-45272984D01*
X75887107Y-63345877D02*
X74420000Y-64812984D01*
D28*
X96930000Y-68922984D02*
X114680000Y-68922984D01*
D27*
X87080000Y-45272984D02*
X92375000Y-39977984D01*
D29*
X59290000Y-37022984D02*
X57860000Y-38452984D01*
D31*
X92620000Y-112362984D02*
X87560000Y-112362984D01*
X84920397Y-109723381D02*
X84920397Y-100273280D01*
D28*
X118300000Y-70272984D02*
X115815000Y-67787984D01*
D27*
X89330000Y-50422984D02*
X87080000Y-48172984D01*
D30*
X115810000Y-61052984D02*
X120240000Y-56622984D01*
D27*
X71660148Y-67572836D02*
X61950000Y-67572836D01*
D29*
X57860000Y-93290000D02*
X60422984Y-95852984D01*
D27*
X105830000Y-59572984D02*
X105830000Y-57342984D01*
X71660148Y-67572836D02*
X74420000Y-64812984D01*
D28*
X115830000Y-67772984D02*
X115830000Y-61072984D01*
D29*
X60422984Y-95852984D02*
X67930000Y-95852984D01*
D27*
X88040000Y-72712984D02*
X76800296Y-72712984D01*
D28*
X94230000Y-71622984D02*
X96930000Y-68922984D01*
D27*
X92630000Y-112352984D02*
X92620000Y-112362984D01*
D30*
X113400000Y-56622984D02*
X111020000Y-54242984D01*
D27*
X58208909Y-57763927D02*
X57860000Y-58112836D01*
D30*
X127169852Y-56622984D02*
X131410000Y-52382836D01*
D27*
X61915707Y-80623691D02*
X58025707Y-80623691D01*
X100780000Y-64622984D02*
X105830000Y-59572984D01*
D29*
X132000000Y-37022984D02*
X59290000Y-37022984D01*
D27*
X89430000Y-71322984D02*
X88040000Y-72712984D01*
X61950000Y-67572836D02*
X58100148Y-63722984D01*
D30*
X120240000Y-56622984D02*
X127169852Y-56622984D01*
D27*
X89330000Y-52822984D02*
X89330000Y-50422984D01*
X105830000Y-57342984D02*
X108930000Y-54242984D01*
D29*
X131420000Y-52382836D02*
X133940000Y-49862836D01*
D27*
X81700000Y-97052883D02*
X81700000Y-96972984D01*
D30*
X105140000Y-54242984D02*
X99860000Y-54242984D01*
D28*
X95082500Y-112352984D02*
X94250000Y-112352984D01*
X115830000Y-61072984D02*
X115810000Y-61052984D01*
D29*
X133940000Y-49862836D02*
X133940000Y-38962984D01*
D28*
X126540000Y-70272984D02*
X118300000Y-70272984D01*
D27*
X58100148Y-63722984D02*
X57850000Y-63722984D01*
D28*
X115815000Y-67787984D02*
X115650000Y-67952984D01*
D29*
X57860000Y-38452984D02*
X57860000Y-93290000D01*
D31*
X67910397Y-96573280D02*
X68630693Y-95852984D01*
D27*
X75887107Y-62130091D02*
X75887107Y-63345877D01*
D30*
X113460000Y-56622984D02*
X120240000Y-56622984D01*
D27*
X92375000Y-39977984D02*
X92375000Y-39587836D01*
D31*
X80580000Y-95852984D02*
X81300296Y-96573280D01*
D30*
X108930000Y-54242984D02*
X105140000Y-54242984D01*
D27*
X92430000Y-39532836D02*
X92375000Y-39587836D01*
X76800296Y-72712984D02*
X71660148Y-67572836D01*
D29*
X131410000Y-52382836D02*
X131420000Y-52382836D01*
D27*
X81300296Y-96573280D02*
X81700000Y-96972984D01*
X91890000Y-37331836D02*
X92430000Y-37871836D01*
D30*
X113460000Y-56622984D02*
X113400000Y-56622984D01*
D28*
X128940000Y-72672984D02*
X126540000Y-70272984D01*
D27*
X92430000Y-37871836D02*
X92430000Y-39532836D01*
D31*
X84920397Y-100273280D02*
X81700000Y-97052883D01*
D28*
%TO.N,/~{USB_BOOT}*%
X69790000Y-49172836D02*
X69790000Y-43037836D01*
D30*
%TO.N,/V_cam*%
X87120000Y-40692836D02*
X87530000Y-40282836D01*
X76600761Y-53993745D02*
X87120000Y-43474506D01*
X87120000Y-43474506D02*
X87120000Y-40692836D01*
%TO.N,V_cam_bus*%
X77460000Y-40282836D02*
X77530000Y-40282836D01*
X71990000Y-45752836D02*
X77460000Y-40282836D01*
X71990000Y-46922836D02*
X71990000Y-45752836D01*
D28*
%TO.N,/power_cam*%
X92200000Y-58272984D02*
X96180000Y-58272984D01*
X91590000Y-57662984D02*
X92200000Y-58272984D01*
X96180000Y-58272984D02*
X96680000Y-57772984D01*
X90220000Y-48922984D02*
X91590000Y-50292984D01*
X91590000Y-50292984D02*
X91590000Y-57662984D01*
%TO.N,/SCL*%
X92530000Y-72072984D02*
X90919579Y-73683405D01*
X97380000Y-67822984D02*
X100810000Y-67822984D01*
X110470000Y-59162984D02*
X110470000Y-56652984D01*
X65910000Y-73632984D02*
X65960421Y-73683405D01*
X96780000Y-67822984D02*
X97380000Y-67822984D01*
X65960421Y-73683405D02*
X90919579Y-73683405D01*
X96760000Y-87352984D02*
X96770000Y-87352984D01*
X92530000Y-72072984D02*
X96780000Y-67822984D01*
X109490000Y-60142984D02*
X110470000Y-59162984D01*
X100810000Y-67822984D02*
X108490000Y-60142984D01*
X108490000Y-60142984D02*
X109490000Y-60142984D01*
X92530000Y-72072984D02*
X92530000Y-83122984D01*
X92530000Y-83122984D02*
X96760000Y-87352984D01*
%TO.N,/SDA*%
X63910000Y-72602984D02*
X75080000Y-72602984D01*
X106561397Y-60651587D02*
X101070000Y-66142984D01*
X62880000Y-73632984D02*
X63910000Y-72602984D01*
X95800000Y-67262984D02*
X95790000Y-67252984D01*
X95790000Y-67252984D02*
X95790000Y-66142984D01*
X89810000Y-73252984D02*
X95800000Y-67262984D01*
X101070000Y-66142984D02*
X95790000Y-66142984D01*
X101580000Y-71710000D02*
X101580000Y-73322984D01*
X75730000Y-73252984D02*
X89810000Y-73252984D01*
X75080000Y-72602984D02*
X75730000Y-73252984D01*
X105220000Y-76962984D02*
X105220000Y-94952984D01*
X106708603Y-60651587D02*
X106561397Y-60651587D01*
X101580000Y-73322984D02*
X105220000Y-76962984D01*
%TO.N,/UART_Rx*%
X123352794Y-63082984D02*
X131770000Y-63082984D01*
X119246397Y-67189381D02*
X123352794Y-63082984D01*
%TO.N,/UART_Tx*%
X122430000Y-65622984D02*
X119230000Y-68822984D01*
X131770000Y-65622984D02*
X122430000Y-65622984D01*
%TD*%
%TA.AperFunction,Conductor*%
%TO.N,GND*%
G36*
X93016390Y-59092448D02*
G01*
X93083366Y-59112342D01*
X93128955Y-59165289D01*
X93140000Y-59216447D01*
X93140000Y-62159224D01*
X93120315Y-62226263D01*
X93067511Y-62272018D01*
X93016389Y-62283223D01*
X90074389Y-62292446D01*
X90007288Y-62272972D01*
X89961368Y-62220312D01*
X89950000Y-62168447D01*
X89950000Y-59207224D01*
X89969685Y-59140185D01*
X90022489Y-59094430D01*
X90074384Y-59083225D01*
X93016390Y-59092448D01*
G37*
%TD.AperFunction*%
%TD*%
%TA.AperFunction,Conductor*%
%TO.N,GND*%
G36*
X82523004Y-40286963D02*
G01*
X82527813Y-40294517D01*
X82527813Y-40298573D01*
X82229786Y-41992221D01*
X82224977Y-41999775D01*
X82223039Y-42000874D01*
X80956948Y-42567058D01*
X80947997Y-42567307D01*
X80943899Y-42564650D01*
X80248185Y-41868936D01*
X80244758Y-41860663D01*
X80245777Y-41855887D01*
X80811960Y-40589796D01*
X80818466Y-40583642D01*
X80820606Y-40583050D01*
X82514263Y-40285022D01*
X82523004Y-40286963D01*
G37*
%TD.AperFunction*%
%TD*%
%TA.AperFunction,Conductor*%
%TO.N,GND*%
G36*
X69031220Y-39660279D02*
G01*
X69785722Y-40491636D01*
X69788744Y-40500065D01*
X69787866Y-40503980D01*
X69354728Y-41548683D01*
X69348394Y-41555013D01*
X69339439Y-41555010D01*
X69338675Y-41554660D01*
X69213791Y-41492029D01*
X69212598Y-41491341D01*
X69086486Y-41408238D01*
X69085568Y-41407567D01*
X68853636Y-41220066D01*
X68853419Y-41219885D01*
X68790287Y-41166274D01*
X68790235Y-41166232D01*
X68614036Y-41030158D01*
X68614030Y-41030154D01*
X68480081Y-40957445D01*
X68362321Y-40927979D01*
X68247181Y-40936531D01*
X68186432Y-40956810D01*
X68123925Y-40989076D01*
X68054867Y-41037892D01*
X67991448Y-41095176D01*
X67983011Y-41098179D01*
X67975332Y-41094767D01*
X67708735Y-40828170D01*
X67705308Y-40819897D01*
X67708735Y-40811624D01*
X67708788Y-40811570D01*
X67953599Y-40573101D01*
X67953815Y-40572896D01*
X68160295Y-40383932D01*
X68160623Y-40383644D01*
X68505627Y-40093707D01*
X68594894Y-40020783D01*
X69014926Y-39659273D01*
X69023430Y-39656475D01*
X69031220Y-39660279D01*
G37*
%TD.AperFunction*%
%TD*%
%TA.AperFunction,Conductor*%
%TO.N,+3V3*%
G36*
X62909107Y-57180492D02*
G01*
X62915148Y-57187102D01*
X62915620Y-57188789D01*
X63030538Y-57761626D01*
X63030538Y-57766228D01*
X62915620Y-58339064D01*
X62910633Y-58346502D01*
X62901848Y-58348234D01*
X62900161Y-58347762D01*
X61849241Y-57966723D01*
X61842631Y-57960682D01*
X61841529Y-57955724D01*
X61841529Y-57572129D01*
X61844956Y-57563856D01*
X61849238Y-57561131D01*
X62900162Y-57180091D01*
X62909107Y-57180492D01*
G37*
%TD.AperFunction*%
%TD*%
%TA.AperFunction,Conductor*%
%TO.N,+3V3*%
G36*
X61814589Y-80138063D02*
G01*
X61820406Y-80144870D01*
X61820751Y-80146184D01*
X61916243Y-80621386D01*
X61916243Y-80625996D01*
X61820751Y-81101197D01*
X61815761Y-81108633D01*
X61806975Y-81110363D01*
X61805661Y-81110018D01*
X60933395Y-80826319D01*
X60926588Y-80820502D01*
X60925314Y-80815193D01*
X60925314Y-80432188D01*
X60928741Y-80423915D01*
X60933392Y-80421063D01*
X61805663Y-80137363D01*
X61814589Y-80138063D01*
G37*
%TD.AperFunction*%
%TD*%
%TA.AperFunction,Conductor*%
%TO.N,+3V3*%
G36*
X94755662Y-111863881D02*
G01*
X94756241Y-111864671D01*
X95079134Y-112346470D01*
X95080893Y-112355251D01*
X95079134Y-112359498D01*
X94756241Y-112841296D01*
X94748789Y-112846260D01*
X94740008Y-112844501D01*
X94739218Y-112843922D01*
X94254396Y-112456496D01*
X94250072Y-112448654D01*
X94250000Y-112447356D01*
X94250000Y-112258611D01*
X94253427Y-112250338D01*
X94254396Y-112249471D01*
X94735932Y-111864671D01*
X94739218Y-111862044D01*
X94747820Y-111859557D01*
X94755662Y-111863881D01*
G37*
%TD.AperFunction*%
%TD*%
%TA.AperFunction,Conductor*%
%TO.N,/~{USB_BOOT}*%
G36*
X69797673Y-43045842D02*
G01*
X69798827Y-43046996D01*
X70774133Y-44169573D01*
X70776972Y-44178065D01*
X70772974Y-44186078D01*
X70765833Y-44188934D01*
X70738459Y-44190179D01*
X70738450Y-44190180D01*
X70657147Y-44203357D01*
X70657141Y-44203358D01*
X70578205Y-44227237D01*
X70578204Y-44227237D01*
X70493113Y-44265351D01*
X70493112Y-44265352D01*
X70411829Y-44314112D01*
X70325422Y-44379934D01*
X70325415Y-44379939D01*
X70244974Y-44455384D01*
X70164351Y-44546756D01*
X70092473Y-44644527D01*
X70092465Y-44644538D01*
X70028663Y-44748677D01*
X70028660Y-44748681D01*
X69975819Y-44853786D01*
X69975816Y-44853793D01*
X69909354Y-45043336D01*
X69891359Y-45177689D01*
X69886865Y-45185434D01*
X69879763Y-45187836D01*
X69700661Y-45187836D01*
X69692388Y-45184409D01*
X69689012Y-45177222D01*
X69683524Y-45118370D01*
X69681267Y-45094147D01*
X69658790Y-44999445D01*
X69623366Y-44898684D01*
X69517974Y-44691789D01*
X69383249Y-44507955D01*
X69383243Y-44507948D01*
X69235831Y-44364373D01*
X69235818Y-44364362D01*
X69085701Y-44264731D01*
X68937025Y-44206838D01*
X68937023Y-44206837D01*
X68811648Y-44190633D01*
X68803883Y-44186174D01*
X68801545Y-44177530D01*
X68804314Y-44171359D01*
X69781168Y-43047000D01*
X69789181Y-43043003D01*
X69797673Y-43045842D01*
G37*
%TD.AperFunction*%
%TD*%
%TA.AperFunction,Conductor*%
%TO.N,/V_cam*%
G36*
X87534233Y-40295914D02*
G01*
X87538112Y-40300773D01*
X88277600Y-42027043D01*
X88277707Y-42035997D01*
X88276610Y-42038095D01*
X87623469Y-43027581D01*
X87616051Y-43032598D01*
X87613704Y-43032836D01*
X86628207Y-43032836D01*
X86619934Y-43029409D01*
X86617206Y-43025119D01*
X86260104Y-42038673D01*
X86260510Y-42029727D01*
X86261639Y-42027814D01*
X87516243Y-40300773D01*
X87517892Y-40298503D01*
X87525526Y-40293824D01*
X87534233Y-40295914D01*
G37*
%TD.AperFunction*%
%TD*%
%TA.AperFunction,Conductor*%
%TO.N,V_cam_bus*%
G36*
X77522920Y-40286833D02*
G01*
X77527600Y-40294468D01*
X77527531Y-40298525D01*
X77200979Y-41984475D01*
X77196041Y-41991945D01*
X77194058Y-41993022D01*
X75921857Y-42532268D01*
X75912903Y-42532342D01*
X75909018Y-42529769D01*
X75213304Y-41834055D01*
X75209877Y-41825782D01*
X75210990Y-41820802D01*
X75804175Y-40561048D01*
X75810798Y-40555025D01*
X75812919Y-40554479D01*
X77514212Y-40284744D01*
X77522920Y-40286833D01*
G37*
%TD.AperFunction*%
%TD*%
%TA.AperFunction,Conductor*%
%TO.N,/SCL*%
G36*
X92523014Y-72070758D02*
G01*
X92530466Y-72075722D01*
X92532225Y-72079969D01*
X92645111Y-72651620D01*
X92643352Y-72660401D01*
X92637633Y-72664882D01*
X91767338Y-72981522D01*
X91758392Y-72981130D01*
X91755065Y-72978800D01*
X91624183Y-72847918D01*
X91620756Y-72839645D01*
X91621459Y-72835651D01*
X91938102Y-71965348D01*
X91944150Y-71958747D01*
X91951363Y-71957872D01*
X92523014Y-72070758D01*
G37*
%TD.AperFunction*%
%TD*%
%TA.AperFunction,Conductor*%
%TO.N,/SCL*%
G36*
X93301607Y-71164837D02*
G01*
X93304934Y-71167167D01*
X93435816Y-71298049D01*
X93439243Y-71306322D01*
X93438538Y-71310322D01*
X93121898Y-72180617D01*
X93115849Y-72187220D01*
X93108636Y-72188095D01*
X92536985Y-72075209D01*
X92529533Y-72070245D01*
X92527774Y-72065998D01*
X92414888Y-71494347D01*
X92416647Y-71485566D01*
X92422364Y-71481086D01*
X93292664Y-71164445D01*
X93301607Y-71164837D01*
G37*
%TD.AperFunction*%
%TD*%
%TA.AperFunction,Conductor*%
%TO.N,/SCL*%
G36*
X92536511Y-72076348D02*
G01*
X93020555Y-72400745D01*
X93025519Y-72408197D01*
X93024644Y-72415410D01*
X92633150Y-73254701D01*
X92626547Y-73260750D01*
X92622547Y-73261455D01*
X92437453Y-73261455D01*
X92429180Y-73258028D01*
X92426850Y-73254701D01*
X92035355Y-72415410D01*
X92034963Y-72406464D01*
X92039442Y-72400747D01*
X92523487Y-72076348D01*
X92532267Y-72074590D01*
X92536511Y-72076348D01*
G37*
%TD.AperFunction*%
%TD*%
%TA.AperFunction,Conductor*%
%TO.N,/SCL*%
G36*
X96002298Y-86449378D02*
G01*
X96877546Y-86761126D01*
X96884189Y-86767130D01*
X96885098Y-86774415D01*
X96772225Y-87345998D01*
X96767261Y-87353450D01*
X96763014Y-87355209D01*
X96191295Y-87468109D01*
X96182514Y-87466350D01*
X96178062Y-87460707D01*
X95856529Y-86595356D01*
X95856859Y-86586408D01*
X95859220Y-86583012D01*
X95990105Y-86452127D01*
X95998377Y-86448701D01*
X96002298Y-86449378D01*
G37*
%TD.AperFunction*%
%TD*%
%TA.AperFunction,Conductor*%
%TO.N,/SDA*%
G36*
X101586511Y-71713364D02*
G01*
X102070555Y-72037761D01*
X102075519Y-72045213D01*
X102074644Y-72052426D01*
X101683150Y-72891717D01*
X101676547Y-72897766D01*
X101672547Y-72898471D01*
X101487453Y-72898471D01*
X101479180Y-72895044D01*
X101476850Y-72891717D01*
X101085355Y-72052426D01*
X101084963Y-72043480D01*
X101089442Y-72037763D01*
X101573487Y-71713364D01*
X101582267Y-71711606D01*
X101586511Y-71713364D01*
G37*
%TD.AperFunction*%
%TD*%
%TA.AperFunction,Conductor*%
%TO.N,/SDA*%
G36*
X105320820Y-93767940D02*
G01*
X105323150Y-93771267D01*
X105714644Y-94610557D01*
X105715036Y-94619503D01*
X105710555Y-94625222D01*
X105226514Y-94949618D01*
X105217733Y-94951377D01*
X105213486Y-94949618D01*
X104729444Y-94625222D01*
X104724480Y-94617770D01*
X104725354Y-94610559D01*
X105116850Y-93771267D01*
X105123453Y-93765218D01*
X105127453Y-93764513D01*
X105312547Y-93764513D01*
X105320820Y-93767940D01*
G37*
%TD.AperFunction*%
%TD*%
M02*
