%TF.GenerationSoftware,KiCad,Pcbnew,9.0.1*%
%TF.CreationDate,2025-04-14T14:12:29-03:00*%
%TF.ProjectId,SRAD_computer,53524144-5f63-46f6-9d70-757465722e6b,rev?*%
%TF.SameCoordinates,Original*%
%TF.FileFunction,Drillmap*%
%TF.FilePolarity,Positive*%
%FSLAX45Y45*%
G04 Gerber Fmt 4.5, Leading zero omitted, Abs format (unit mm)*
G04 Created by KiCad (PCBNEW 9.0.1) date 2025-04-14 14:12:29*
%MOMM*%
%LPD*%
G01*
G04 APERTURE LIST*
%ADD10C,0.200000*%
%ADD11C,0.010000*%
%ADD12C,0.100000*%
G04 APERTURE END LIST*
D10*
X5588000Y-3532298D02*
X13588000Y-3532298D01*
X13588000Y-12532298D01*
X5588000Y-12532298D01*
X5588000Y-3532298D01*
D11*
X9948000Y-4364000D02*
G75*
G02*
X9915500Y-4396500I-32500J0D01*
G01*
X9915500Y-4331500D02*
G75*
G02*
X9948000Y-4364000I0J-32500D01*
G01*
X9880500Y-4396500D02*
G75*
G02*
X9848000Y-4364000I0J32500D01*
G01*
X9848000Y-4364000D02*
G75*
G02*
X9880500Y-4331500I32500J0D01*
G01*
X9915500Y-4396500D02*
X9880500Y-4396500D01*
X9880500Y-4331500D02*
X9915500Y-4331500D01*
D10*
D12*
X9010000Y-5923784D02*
X9045000Y-5958784D01*
X9045000Y-5923784D02*
X9010000Y-5958784D01*
X9010000Y-6051284D02*
X9045000Y-6086284D01*
X9045000Y-6051284D02*
X9010000Y-6086284D01*
X9010000Y-6178784D02*
X9045000Y-6213784D01*
X9045000Y-6178784D02*
X9010000Y-6213784D01*
X9137500Y-5923784D02*
X9172500Y-5958784D01*
X9172500Y-5923784D02*
X9137500Y-5958784D01*
X9137500Y-6051284D02*
X9172500Y-6086284D01*
X9172500Y-6051284D02*
X9137500Y-6086284D01*
X9137500Y-6178784D02*
X9172500Y-6213784D01*
X9172500Y-6178784D02*
X9137500Y-6213784D01*
X9265000Y-5923784D02*
X9300000Y-5958784D01*
X9300000Y-5923784D02*
X9265000Y-5958784D01*
X9265000Y-6051284D02*
X9300000Y-6086284D01*
X9300000Y-6051284D02*
X9265000Y-6086284D01*
X9265000Y-6178784D02*
X9300000Y-6213784D01*
X9300000Y-6178784D02*
X9265000Y-6213784D01*
X9998000Y-4299000D02*
G75*
G02*
X9958000Y-4299000I-20000J0D01*
G01*
X9958000Y-4299000D02*
G75*
G02*
X9998000Y-4299000I20000J0D01*
G01*
X10158000Y-4299000D02*
G75*
G02*
X10118000Y-4299000I-20000J0D01*
G01*
X10118000Y-4299000D02*
G75*
G02*
X10158000Y-4299000I20000J0D01*
G01*
X10198000Y-4229000D02*
G75*
G02*
X10158000Y-4229000I-20000J0D01*
G01*
X10158000Y-4229000D02*
G75*
G02*
X10198000Y-4229000I20000J0D01*
G01*
X10238000Y-4299000D02*
G75*
G02*
X10198000Y-4299000I-20000J0D01*
G01*
X10198000Y-4299000D02*
G75*
G02*
X10238000Y-4299000I20000J0D01*
G01*
X10318000Y-4299000D02*
G75*
G02*
X10278000Y-4299000I-20000J0D01*
G01*
X10278000Y-4299000D02*
G75*
G02*
X10318000Y-4299000I20000J0D01*
G01*
X10358000Y-4229000D02*
G75*
G02*
X10318000Y-4229000I-20000J0D01*
G01*
X10318000Y-4229000D02*
G75*
G02*
X10358000Y-4229000I20000J0D01*
G01*
X10398000Y-4299000D02*
G75*
G02*
X10358000Y-4299000I-20000J0D01*
G01*
X10358000Y-4299000D02*
G75*
G02*
X10398000Y-4299000I20000J0D01*
G01*
X10558000Y-4299000D02*
G75*
G02*
X10518000Y-4299000I-20000J0D01*
G01*
X10518000Y-4299000D02*
G75*
G02*
X10558000Y-4299000I20000J0D01*
G01*
X6032000Y-5382284D02*
X6032000Y-5432284D01*
X6007000Y-5407284D02*
X6057000Y-5407284D01*
X6191571Y-8037369D02*
X6191571Y-8087369D01*
X6166571Y-8062369D02*
X6216571Y-8062369D01*
X6253433Y-6627851D02*
X6253433Y-6677851D01*
X6228433Y-6652851D02*
X6278433Y-6652851D01*
X6288000Y-7338298D02*
X6288000Y-7388298D01*
X6263000Y-7363298D02*
X6313000Y-7363298D01*
X6303000Y-5751393D02*
X6303000Y-5801393D01*
X6278000Y-5776393D02*
X6328000Y-5776393D01*
X6424000Y-6118284D02*
X6424000Y-6168284D01*
X6399000Y-6143284D02*
X6449000Y-6143284D01*
X6591000Y-7338298D02*
X6591000Y-7388298D01*
X6566000Y-7363298D02*
X6616000Y-7363298D01*
X7202000Y-7595298D02*
X7202000Y-7645298D01*
X7177000Y-7620298D02*
X7227000Y-7620298D01*
X7202000Y-7945298D02*
X7202000Y-7995298D01*
X7177000Y-7970298D02*
X7227000Y-7970298D01*
X7202000Y-8295298D02*
X7202000Y-8345298D01*
X7177000Y-8320298D02*
X7227000Y-8320298D01*
X7202000Y-8645298D02*
X7202000Y-8695298D01*
X7177000Y-8670298D02*
X7227000Y-8670298D01*
X7202000Y-8995298D02*
X7202000Y-9045298D01*
X7177000Y-9020298D02*
X7227000Y-9020298D01*
X7202000Y-9345298D02*
X7202000Y-9395298D01*
X7177000Y-9370298D02*
X7227000Y-9370298D01*
X7202000Y-9695298D02*
X7202000Y-9745298D01*
X7177000Y-9720298D02*
X7227000Y-9720298D01*
X7202000Y-10045298D02*
X7202000Y-10095298D01*
X7177000Y-10070298D02*
X7227000Y-10070298D01*
X7202000Y-10395298D02*
X7202000Y-10445298D01*
X7177000Y-10420298D02*
X7227000Y-10420298D01*
X7202000Y-10745298D02*
X7202000Y-10795298D01*
X7177000Y-10770298D02*
X7227000Y-10770298D01*
X7202000Y-11095298D02*
X7202000Y-11145298D01*
X7177000Y-11120298D02*
X7227000Y-11120298D01*
X7202000Y-11445298D02*
X7202000Y-11495298D01*
X7177000Y-11470298D02*
X7227000Y-11470298D01*
X7202000Y-11795298D02*
X7202000Y-11845298D01*
X7177000Y-11820298D02*
X7227000Y-11820298D01*
X7202000Y-12145298D02*
X7202000Y-12195298D01*
X7177000Y-12170298D02*
X7227000Y-12170298D01*
X7552000Y-7595298D02*
X7552000Y-7645298D01*
X7527000Y-7620298D02*
X7577000Y-7620298D01*
X7552000Y-7945298D02*
X7552000Y-7995298D01*
X7527000Y-7970298D02*
X7577000Y-7970298D01*
X7552000Y-8295298D02*
X7552000Y-8345298D01*
X7527000Y-8320298D02*
X7577000Y-8320298D01*
X7552000Y-8645298D02*
X7552000Y-8695298D01*
X7527000Y-8670298D02*
X7577000Y-8670298D01*
X7552000Y-8995298D02*
X7552000Y-9045298D01*
X7527000Y-9020298D02*
X7577000Y-9020298D01*
X7552000Y-9345298D02*
X7552000Y-9395298D01*
X7527000Y-9370298D02*
X7577000Y-9370298D01*
X7552000Y-9695298D02*
X7552000Y-9745298D01*
X7527000Y-9720298D02*
X7577000Y-9720298D01*
X7552000Y-10045298D02*
X7552000Y-10095298D01*
X7527000Y-10070298D02*
X7577000Y-10070298D01*
X7552000Y-10395298D02*
X7552000Y-10445298D01*
X7527000Y-10420298D02*
X7577000Y-10420298D01*
X7552000Y-10745298D02*
X7552000Y-10795298D01*
X7527000Y-10770298D02*
X7577000Y-10770298D01*
X7552000Y-11095298D02*
X7552000Y-11145298D01*
X7527000Y-11120298D02*
X7577000Y-11120298D01*
X7552000Y-11445298D02*
X7552000Y-11495298D01*
X7527000Y-11470298D02*
X7577000Y-11470298D01*
X7552000Y-11795298D02*
X7552000Y-11845298D01*
X7527000Y-11820298D02*
X7577000Y-11820298D01*
X7552000Y-12145298D02*
X7552000Y-12195298D01*
X7527000Y-12170298D02*
X7577000Y-12170298D01*
X7588711Y-6188009D02*
X7588711Y-6238009D01*
X7563711Y-6213009D02*
X7613711Y-6213009D01*
X7669000Y-6743298D02*
X7669000Y-6793298D01*
X7644000Y-6768298D02*
X7694000Y-6768298D01*
X7902000Y-7595298D02*
X7902000Y-7645298D01*
X7877000Y-7620298D02*
X7927000Y-7620298D01*
X7902000Y-7945298D02*
X7902000Y-7995298D01*
X7877000Y-7970298D02*
X7927000Y-7970298D01*
X7902000Y-8295298D02*
X7902000Y-8345298D01*
X7877000Y-8320298D02*
X7927000Y-8320298D01*
X7902000Y-8645298D02*
X7902000Y-8695298D01*
X7877000Y-8670298D02*
X7927000Y-8670298D01*
X7902000Y-8995298D02*
X7902000Y-9045298D01*
X7877000Y-9020298D02*
X7927000Y-9020298D01*
X7902000Y-9345298D02*
X7902000Y-9395298D01*
X7877000Y-9370298D02*
X7927000Y-9370298D01*
X7902000Y-9695298D02*
X7902000Y-9745298D01*
X7877000Y-9720298D02*
X7927000Y-9720298D01*
X7902000Y-10045298D02*
X7902000Y-10095298D01*
X7877000Y-10070298D02*
X7927000Y-10070298D01*
X7902000Y-10395298D02*
X7902000Y-10445298D01*
X7877000Y-10420298D02*
X7927000Y-10420298D01*
X7902000Y-10745298D02*
X7902000Y-10795298D01*
X7877000Y-10770298D02*
X7927000Y-10770298D01*
X7902000Y-11095298D02*
X7902000Y-11145298D01*
X7877000Y-11120298D02*
X7927000Y-11120298D01*
X7902000Y-11445298D02*
X7902000Y-11495298D01*
X7877000Y-11470298D02*
X7927000Y-11470298D01*
X7902000Y-11795298D02*
X7902000Y-11845298D01*
X7877000Y-11820298D02*
X7927000Y-11820298D01*
X7902000Y-12145298D02*
X7902000Y-12195298D01*
X7877000Y-12170298D02*
X7927000Y-12170298D01*
X8170000Y-9672298D02*
X8170000Y-9722298D01*
X8145000Y-9697298D02*
X8195000Y-9697298D01*
X8252000Y-7595298D02*
X8252000Y-7645298D01*
X8227000Y-7620298D02*
X8277000Y-7620298D01*
X8252000Y-7945298D02*
X8252000Y-7995298D01*
X8227000Y-7970298D02*
X8277000Y-7970298D01*
X8252000Y-8295298D02*
X8252000Y-8345298D01*
X8227000Y-8320298D02*
X8277000Y-8320298D01*
X8252000Y-8645298D02*
X8252000Y-8695298D01*
X8227000Y-8670298D02*
X8277000Y-8670298D01*
X8252000Y-8995298D02*
X8252000Y-9045298D01*
X8227000Y-9020298D02*
X8277000Y-9020298D01*
X8252000Y-9345298D02*
X8252000Y-9395298D01*
X8227000Y-9370298D02*
X8277000Y-9370298D01*
X8252000Y-10045298D02*
X8252000Y-10095298D01*
X8227000Y-10070298D02*
X8277000Y-10070298D01*
X8252000Y-10395298D02*
X8252000Y-10445298D01*
X8227000Y-10420298D02*
X8277000Y-10420298D01*
X8252000Y-10745298D02*
X8252000Y-10795298D01*
X8227000Y-10770298D02*
X8277000Y-10770298D01*
X8252000Y-11095298D02*
X8252000Y-11145298D01*
X8227000Y-11120298D02*
X8277000Y-11120298D01*
X8252000Y-11445298D02*
X8252000Y-11495298D01*
X8227000Y-11470298D02*
X8277000Y-11470298D01*
X8252000Y-11795298D02*
X8252000Y-11845298D01*
X8227000Y-11820298D02*
X8277000Y-11820298D01*
X8252000Y-12145298D02*
X8252000Y-12195298D01*
X8227000Y-12170298D02*
X8277000Y-12170298D01*
X8602000Y-7595298D02*
X8602000Y-7645298D01*
X8577000Y-7620298D02*
X8627000Y-7620298D01*
X8602000Y-7945298D02*
X8602000Y-7995298D01*
X8577000Y-7970298D02*
X8627000Y-7970298D01*
X8602000Y-8295298D02*
X8602000Y-8345298D01*
X8577000Y-8320298D02*
X8627000Y-8320298D01*
X8602000Y-8645298D02*
X8602000Y-8695298D01*
X8577000Y-8670298D02*
X8627000Y-8670298D01*
X8602000Y-8995298D02*
X8602000Y-9045298D01*
X8577000Y-9020298D02*
X8627000Y-9020298D01*
X8602000Y-9345298D02*
X8602000Y-9395298D01*
X8577000Y-9370298D02*
X8627000Y-9370298D01*
X8602000Y-10045298D02*
X8602000Y-10095298D01*
X8577000Y-10070298D02*
X8627000Y-10070298D01*
X8602000Y-10395298D02*
X8602000Y-10445298D01*
X8577000Y-10420298D02*
X8627000Y-10420298D01*
X8602000Y-10745298D02*
X8602000Y-10795298D01*
X8577000Y-10770298D02*
X8627000Y-10770298D01*
X8602000Y-11445298D02*
X8602000Y-11495298D01*
X8577000Y-11470298D02*
X8627000Y-11470298D01*
X8602000Y-11795298D02*
X8602000Y-11845298D01*
X8577000Y-11820298D02*
X8627000Y-11820298D01*
X8602000Y-12145298D02*
X8602000Y-12195298D01*
X8577000Y-12170298D02*
X8627000Y-12170298D01*
X8781000Y-6834298D02*
X8781000Y-6884298D01*
X8756000Y-6859298D02*
X8806000Y-6859298D01*
X8933000Y-5257298D02*
X8933000Y-5307298D01*
X8908000Y-5282298D02*
X8958000Y-5282298D01*
X8943000Y-7107298D02*
X8943000Y-7157298D01*
X8918000Y-7132298D02*
X8968000Y-7132298D01*
X8952000Y-7595298D02*
X8952000Y-7645298D01*
X8927000Y-7620298D02*
X8977000Y-7620298D01*
X8952000Y-7945298D02*
X8952000Y-7995298D01*
X8927000Y-7970298D02*
X8977000Y-7970298D01*
X8952000Y-8295298D02*
X8952000Y-8345298D01*
X8927000Y-8320298D02*
X8977000Y-8320298D01*
X8952000Y-8645298D02*
X8952000Y-8695298D01*
X8927000Y-8670298D02*
X8977000Y-8670298D01*
X8952000Y-8995298D02*
X8952000Y-9045298D01*
X8927000Y-9020298D02*
X8977000Y-9020298D01*
X8952000Y-10745298D02*
X8952000Y-10795298D01*
X8927000Y-10770298D02*
X8977000Y-10770298D01*
X8952000Y-11445298D02*
X8952000Y-11495298D01*
X8927000Y-11470298D02*
X8977000Y-11470298D01*
X8952000Y-11795298D02*
X8952000Y-11845298D01*
X8927000Y-11820298D02*
X8977000Y-11820298D01*
X8952000Y-12145298D02*
X8952000Y-12195298D01*
X8927000Y-12170298D02*
X8977000Y-12170298D01*
X9096000Y-9545298D02*
X9096000Y-9595298D01*
X9071000Y-9570298D02*
X9121000Y-9570298D01*
X9096000Y-9895298D02*
X9096000Y-9945298D01*
X9071000Y-9920298D02*
X9121000Y-9920298D01*
X9096000Y-10245298D02*
X9096000Y-10295298D01*
X9071000Y-10270298D02*
X9121000Y-10270298D01*
X9237500Y-3933784D02*
X9237500Y-3983784D01*
X9212500Y-3958784D02*
X9262500Y-3958784D01*
X9253000Y-7182298D02*
X9253000Y-7232298D01*
X9228000Y-7207298D02*
X9278000Y-7207298D01*
X9262000Y-11211298D02*
X9262000Y-11261298D01*
X9237000Y-11236298D02*
X9287000Y-11236298D01*
X9302000Y-8645298D02*
X9302000Y-8695298D01*
X9277000Y-8670298D02*
X9327000Y-8670298D01*
X9302000Y-8995298D02*
X9302000Y-9045298D01*
X9277000Y-9020298D02*
X9327000Y-9020298D01*
X9302000Y-11445298D02*
X9302000Y-11495298D01*
X9277000Y-11470298D02*
X9327000Y-11470298D01*
X9302000Y-11795298D02*
X9302000Y-11845298D01*
X9277000Y-11820298D02*
X9327000Y-11820298D01*
X9302000Y-12145298D02*
X9302000Y-12195298D01*
X9277000Y-12170298D02*
X9327000Y-12170298D01*
X9337000Y-7596000D02*
X9337000Y-7646000D01*
X9312000Y-7621000D02*
X9362000Y-7621000D01*
X9351000Y-7966000D02*
X9351000Y-8016000D01*
X9326000Y-7991000D02*
X9376000Y-7991000D01*
X9356000Y-8256000D02*
X9356000Y-8306000D01*
X9331000Y-8281000D02*
X9381000Y-8281000D01*
X9423000Y-7232298D02*
X9423000Y-7282298D01*
X9398000Y-7257298D02*
X9448000Y-7257298D01*
X9446000Y-9545298D02*
X9446000Y-9595298D01*
X9421000Y-9570298D02*
X9471000Y-9570298D01*
X9446000Y-9895298D02*
X9446000Y-9945298D01*
X9421000Y-9920298D02*
X9471000Y-9920298D01*
X9446000Y-10245298D02*
X9446000Y-10295298D01*
X9421000Y-10270298D02*
X9471000Y-10270298D01*
X9508250Y-11210298D02*
X9508250Y-11260298D01*
X9483250Y-11235298D02*
X9533250Y-11235298D01*
X9579000Y-6589298D02*
X9579000Y-6639298D01*
X9554000Y-6614298D02*
X9604000Y-6614298D01*
X9652000Y-7595298D02*
X9652000Y-7645298D01*
X9627000Y-7620298D02*
X9677000Y-7620298D01*
X9652000Y-7945298D02*
X9652000Y-7995298D01*
X9627000Y-7970298D02*
X9677000Y-7970298D01*
X9652000Y-8295298D02*
X9652000Y-8345298D01*
X9627000Y-8320298D02*
X9677000Y-8320298D01*
X9652000Y-11445298D02*
X9652000Y-11495298D01*
X9627000Y-11470298D02*
X9677000Y-11470298D01*
X9652000Y-11795298D02*
X9652000Y-11845298D01*
X9627000Y-11820298D02*
X9677000Y-11820298D01*
X9652000Y-12145298D02*
X9652000Y-12195298D01*
X9627000Y-12170298D02*
X9677000Y-12170298D01*
X9668000Y-5752298D02*
X9668000Y-5802298D01*
X9643000Y-5777298D02*
X9693000Y-5777298D01*
X9677000Y-8710298D02*
X9677000Y-8760298D01*
X9652000Y-8735298D02*
X9702000Y-8735298D01*
X9738000Y-6757298D02*
X9738000Y-6807298D01*
X9713000Y-6782298D02*
X9763000Y-6782298D01*
X9796000Y-9545298D02*
X9796000Y-9595298D01*
X9771000Y-9570298D02*
X9821000Y-9570298D01*
X9796000Y-9895298D02*
X9796000Y-9945298D01*
X9771000Y-9920298D02*
X9821000Y-9920298D01*
X9796000Y-10245298D02*
X9796000Y-10295298D01*
X9771000Y-10270298D02*
X9821000Y-10270298D01*
X9976000Y-5374298D02*
X9976000Y-5424298D01*
X9951000Y-5399298D02*
X10001000Y-5399298D01*
X10002000Y-7595298D02*
X10002000Y-7645298D01*
X9977000Y-7620298D02*
X10027000Y-7620298D01*
X10002000Y-7945298D02*
X10002000Y-7995298D01*
X9977000Y-7970298D02*
X10027000Y-7970298D01*
X10002000Y-8295298D02*
X10002000Y-8345298D01*
X9977000Y-8320298D02*
X10027000Y-8320298D01*
X10002000Y-8645298D02*
X10002000Y-8695298D01*
X9977000Y-8670298D02*
X10027000Y-8670298D01*
X10002000Y-8995298D02*
X10002000Y-9045298D01*
X9977000Y-9020298D02*
X10027000Y-9020298D01*
X10002000Y-10745298D02*
X10002000Y-10795298D01*
X9977000Y-10770298D02*
X10027000Y-10770298D01*
X10002000Y-11095298D02*
X10002000Y-11145298D01*
X9977000Y-11120298D02*
X10027000Y-11120298D01*
X10002000Y-11445298D02*
X10002000Y-11495298D01*
X9977000Y-11470298D02*
X10027000Y-11470298D01*
X10002000Y-11795298D02*
X10002000Y-11845298D01*
X9977000Y-11820298D02*
X10027000Y-11820298D01*
X10002000Y-12145298D02*
X10002000Y-12195298D01*
X9977000Y-12170298D02*
X10027000Y-12170298D01*
X10063649Y-5082649D02*
X10063649Y-5132649D01*
X10038649Y-5107649D02*
X10088649Y-5107649D01*
X10078000Y-6437298D02*
X10078000Y-6487298D01*
X10053000Y-6462298D02*
X10103000Y-6462298D01*
X10158000Y-7146000D02*
X10158000Y-7196000D01*
X10133000Y-7171000D02*
X10183000Y-7171000D01*
X10163000Y-6062298D02*
X10163000Y-6112298D01*
X10138000Y-6087298D02*
X10188000Y-6087298D01*
X10340000Y-7618000D02*
X10340000Y-7668000D01*
X10315000Y-7643000D02*
X10365000Y-7643000D01*
X10352000Y-7945298D02*
X10352000Y-7995298D01*
X10327000Y-7970298D02*
X10377000Y-7970298D01*
X10352000Y-8295298D02*
X10352000Y-8345298D01*
X10327000Y-8320298D02*
X10377000Y-8320298D01*
X10352000Y-8645298D02*
X10352000Y-8695298D01*
X10327000Y-8670298D02*
X10377000Y-8670298D01*
X10352000Y-8995298D02*
X10352000Y-9045298D01*
X10327000Y-9020298D02*
X10377000Y-9020298D01*
X10352000Y-9345298D02*
X10352000Y-9395298D01*
X10327000Y-9370298D02*
X10377000Y-9370298D01*
X10352000Y-10045298D02*
X10352000Y-10095298D01*
X10327000Y-10070298D02*
X10377000Y-10070298D01*
X10352000Y-10395298D02*
X10352000Y-10445298D01*
X10327000Y-10420298D02*
X10377000Y-10420298D01*
X10352000Y-10745298D02*
X10352000Y-10795298D01*
X10327000Y-10770298D02*
X10377000Y-10770298D01*
X10352000Y-11095298D02*
X10352000Y-11145298D01*
X10327000Y-11120298D02*
X10377000Y-11120298D01*
X10352000Y-11445298D02*
X10352000Y-11495298D01*
X10327000Y-11470298D02*
X10377000Y-11470298D01*
X10352000Y-11795298D02*
X10352000Y-11845298D01*
X10327000Y-11820298D02*
X10377000Y-11820298D01*
X10352000Y-12145298D02*
X10352000Y-12195298D01*
X10327000Y-12170298D02*
X10377000Y-12170298D01*
X10522000Y-9470298D02*
X10522000Y-9520298D01*
X10497000Y-9495298D02*
X10547000Y-9495298D01*
X10670860Y-6040159D02*
X10670860Y-6090159D01*
X10645860Y-6065159D02*
X10695860Y-6065159D01*
X10702000Y-7595298D02*
X10702000Y-7645298D01*
X10677000Y-7620298D02*
X10727000Y-7620298D01*
X10702000Y-7945298D02*
X10702000Y-7995298D01*
X10677000Y-7970298D02*
X10727000Y-7970298D01*
X10702000Y-8295298D02*
X10702000Y-8345298D01*
X10677000Y-8320298D02*
X10727000Y-8320298D01*
X10702000Y-8645298D02*
X10702000Y-8695298D01*
X10677000Y-8670298D02*
X10727000Y-8670298D01*
X10702000Y-8995298D02*
X10702000Y-9045298D01*
X10677000Y-9020298D02*
X10727000Y-9020298D01*
X10702000Y-9345298D02*
X10702000Y-9395298D01*
X10677000Y-9370298D02*
X10727000Y-9370298D01*
X10702000Y-9695298D02*
X10702000Y-9745298D01*
X10677000Y-9720298D02*
X10727000Y-9720298D01*
X10702000Y-10045298D02*
X10702000Y-10095298D01*
X10677000Y-10070298D02*
X10727000Y-10070298D01*
X10702000Y-10395298D02*
X10702000Y-10445298D01*
X10677000Y-10420298D02*
X10727000Y-10420298D01*
X10702000Y-10745298D02*
X10702000Y-10795298D01*
X10677000Y-10770298D02*
X10727000Y-10770298D01*
X10702000Y-11095298D02*
X10702000Y-11145298D01*
X10677000Y-11120298D02*
X10727000Y-11120298D01*
X10702000Y-11445298D02*
X10702000Y-11495298D01*
X10677000Y-11470298D02*
X10727000Y-11470298D01*
X10702000Y-11795298D02*
X10702000Y-11845298D01*
X10677000Y-11820298D02*
X10727000Y-11820298D01*
X10702000Y-12145298D02*
X10702000Y-12195298D01*
X10677000Y-12170298D02*
X10727000Y-12170298D01*
X10906500Y-4501784D02*
X10906500Y-4551784D01*
X10881500Y-4526784D02*
X10931500Y-4526784D01*
X11047000Y-5640298D02*
X11047000Y-5690298D01*
X11022000Y-5665298D02*
X11072000Y-5665298D01*
X11052000Y-7595298D02*
X11052000Y-7645298D01*
X11027000Y-7620298D02*
X11077000Y-7620298D01*
X11052000Y-7945298D02*
X11052000Y-7995298D01*
X11027000Y-7970298D02*
X11077000Y-7970298D01*
X11052000Y-8295298D02*
X11052000Y-8345298D01*
X11027000Y-8320298D02*
X11077000Y-8320298D01*
X11052000Y-8645298D02*
X11052000Y-8695298D01*
X11027000Y-8670298D02*
X11077000Y-8670298D01*
X11052000Y-8995298D02*
X11052000Y-9045298D01*
X11027000Y-9020298D02*
X11077000Y-9020298D01*
X11052000Y-9345298D02*
X11052000Y-9395298D01*
X11027000Y-9370298D02*
X11077000Y-9370298D01*
X11052000Y-9695298D02*
X11052000Y-9745298D01*
X11027000Y-9720298D02*
X11077000Y-9720298D01*
X11052000Y-10045298D02*
X11052000Y-10095298D01*
X11027000Y-10070298D02*
X11077000Y-10070298D01*
X11052000Y-10395298D02*
X11052000Y-10445298D01*
X11027000Y-10420298D02*
X11077000Y-10420298D01*
X11052000Y-10745298D02*
X11052000Y-10795298D01*
X11027000Y-10770298D02*
X11077000Y-10770298D01*
X11052000Y-11095298D02*
X11052000Y-11145298D01*
X11027000Y-11120298D02*
X11077000Y-11120298D01*
X11052000Y-11445298D02*
X11052000Y-11495298D01*
X11027000Y-11470298D02*
X11077000Y-11470298D01*
X11052000Y-11795298D02*
X11052000Y-11845298D01*
X11027000Y-11820298D02*
X11077000Y-11820298D01*
X11052000Y-12145298D02*
X11052000Y-12195298D01*
X11027000Y-12170298D02*
X11077000Y-12170298D01*
X11346000Y-5637298D02*
X11346000Y-5687298D01*
X11321000Y-5662298D02*
X11371000Y-5662298D01*
X11402000Y-7595298D02*
X11402000Y-7645298D01*
X11377000Y-7620298D02*
X11427000Y-7620298D01*
X11402000Y-7945298D02*
X11402000Y-7995298D01*
X11377000Y-7970298D02*
X11427000Y-7970298D01*
X11402000Y-8295298D02*
X11402000Y-8345298D01*
X11377000Y-8320298D02*
X11427000Y-8320298D01*
X11402000Y-8645298D02*
X11402000Y-8695298D01*
X11377000Y-8670298D02*
X11427000Y-8670298D01*
X11402000Y-8995298D02*
X11402000Y-9045298D01*
X11377000Y-9020298D02*
X11427000Y-9020298D01*
X11402000Y-9345298D02*
X11402000Y-9395298D01*
X11377000Y-9370298D02*
X11427000Y-9370298D01*
X11402000Y-9695298D02*
X11402000Y-9745298D01*
X11377000Y-9720298D02*
X11427000Y-9720298D01*
X11402000Y-10045298D02*
X11402000Y-10095298D01*
X11377000Y-10070298D02*
X11427000Y-10070298D01*
X11402000Y-10395298D02*
X11402000Y-10445298D01*
X11377000Y-10420298D02*
X11427000Y-10420298D01*
X11402000Y-10745298D02*
X11402000Y-10795298D01*
X11377000Y-10770298D02*
X11427000Y-10770298D01*
X11402000Y-11095298D02*
X11402000Y-11145298D01*
X11377000Y-11120298D02*
X11427000Y-11120298D01*
X11402000Y-11445298D02*
X11402000Y-11495298D01*
X11377000Y-11470298D02*
X11427000Y-11470298D01*
X11402000Y-11795298D02*
X11402000Y-11845298D01*
X11377000Y-11820298D02*
X11427000Y-11820298D01*
X11402000Y-12145298D02*
X11402000Y-12195298D01*
X11377000Y-12170298D02*
X11427000Y-12170298D01*
X11581000Y-6080298D02*
X11581000Y-6130298D01*
X11556000Y-6105298D02*
X11606000Y-6105298D01*
X11752000Y-7595298D02*
X11752000Y-7645298D01*
X11727000Y-7620298D02*
X11777000Y-7620298D01*
X11752000Y-7945298D02*
X11752000Y-7995298D01*
X11727000Y-7970298D02*
X11777000Y-7970298D01*
X11752000Y-8295298D02*
X11752000Y-8345298D01*
X11727000Y-8320298D02*
X11777000Y-8320298D01*
X11752000Y-8645298D02*
X11752000Y-8695298D01*
X11727000Y-8670298D02*
X11777000Y-8670298D01*
X11752000Y-8995298D02*
X11752000Y-9045298D01*
X11727000Y-9020298D02*
X11777000Y-9020298D01*
X11752000Y-9345298D02*
X11752000Y-9395298D01*
X11727000Y-9370298D02*
X11777000Y-9370298D01*
X11752000Y-9695298D02*
X11752000Y-9745298D01*
X11727000Y-9720298D02*
X11777000Y-9720298D01*
X11752000Y-10045298D02*
X11752000Y-10095298D01*
X11727000Y-10070298D02*
X11777000Y-10070298D01*
X11752000Y-10395298D02*
X11752000Y-10445298D01*
X11727000Y-10420298D02*
X11777000Y-10420298D01*
X11752000Y-10745298D02*
X11752000Y-10795298D01*
X11727000Y-10770298D02*
X11777000Y-10770298D01*
X11752000Y-11095298D02*
X11752000Y-11145298D01*
X11727000Y-11120298D02*
X11777000Y-11120298D01*
X11752000Y-11445298D02*
X11752000Y-11495298D01*
X11727000Y-11470298D02*
X11777000Y-11470298D01*
X11752000Y-11795298D02*
X11752000Y-11845298D01*
X11727000Y-11820298D02*
X11777000Y-11820298D01*
X11752000Y-12145298D02*
X11752000Y-12195298D01*
X11727000Y-12170298D02*
X11777000Y-12170298D01*
X11924640Y-6693938D02*
X11924640Y-6743938D01*
X11899640Y-6718938D02*
X11949640Y-6718938D01*
X11924640Y-6857298D02*
X11924640Y-6907298D01*
X11899640Y-6882298D02*
X11949640Y-6882298D01*
X12894000Y-7242298D02*
X12894000Y-7292298D01*
X12869000Y-7267298D02*
X12919000Y-7267298D01*
X12899000Y-4858284D02*
X12899000Y-4908284D01*
X12874000Y-4883284D02*
X12924000Y-4883284D01*
X13141000Y-5213284D02*
X13141000Y-5263284D01*
X13116000Y-5238284D02*
X13166000Y-5238284D01*
X13235809Y-7934191D02*
X13235809Y-7984191D01*
X13210809Y-7959191D02*
X13260809Y-7959191D01*
X13392000Y-5894298D02*
X13392000Y-5944298D01*
X13367000Y-5919298D02*
X13417000Y-5919298D01*
X9825678Y-4004678D02*
X9825678Y-3969322D01*
X9790322Y-3969322D01*
X9790322Y-4004678D01*
X9825678Y-4004678D01*
X9833000Y-4027000D02*
X9833000Y-3947000D01*
X9783000Y-3947000D02*
G75*
G02*
X9833000Y-3947000I25000J0D01*
G01*
X9783000Y-3947000D02*
X9783000Y-4027000D01*
X9783000Y-4027000D02*
G75*
G03*
X9833000Y-4027000I25000J0D01*
G01*
X9848178Y-4256678D02*
X9848178Y-4221322D01*
X9812822Y-4221322D01*
X9812822Y-4256678D01*
X9848178Y-4256678D01*
X9855500Y-4269000D02*
X9855500Y-4209000D01*
X9805500Y-4209000D02*
G75*
G02*
X9855500Y-4209000I25000J0D01*
G01*
X9805500Y-4209000D02*
X9805500Y-4269000D01*
X9805500Y-4269000D02*
G75*
G03*
X9855500Y-4269000I25000J0D01*
G01*
X9891178Y-4536678D02*
X9891178Y-4501322D01*
X9855822Y-4501322D01*
X9855822Y-4536678D01*
X9891178Y-4536678D01*
X9886000Y-4494000D02*
X9861000Y-4494000D01*
X9861000Y-4544000D02*
G75*
G02*
X9861000Y-4494000I0J25000D01*
G01*
X9861000Y-4544000D02*
X9886000Y-4544000D01*
X9886000Y-4544000D02*
G75*
G03*
X9886000Y-4494000I0J25000D01*
G01*
X10660178Y-4536678D02*
X10660178Y-4501322D01*
X10624822Y-4501322D01*
X10624822Y-4536678D01*
X10660178Y-4536678D01*
X10655000Y-4494000D02*
X10630000Y-4494000D01*
X10630000Y-4544000D02*
G75*
G02*
X10630000Y-4494000I0J25000D01*
G01*
X10630000Y-4544000D02*
X10655000Y-4544000D01*
X10655000Y-4544000D02*
G75*
G03*
X10655000Y-4494000I0J25000D01*
G01*
X10703178Y-4256678D02*
X10703178Y-4221322D01*
X10667822Y-4221322D01*
X10667822Y-4256678D01*
X10703178Y-4256678D01*
X10710500Y-4269000D02*
X10710500Y-4209000D01*
X10660500Y-4209000D02*
G75*
G02*
X10710500Y-4209000I25000J0D01*
G01*
X10660500Y-4209000D02*
X10660500Y-4269000D01*
X10660500Y-4269000D02*
G75*
G03*
X10710500Y-4269000I25000J0D01*
G01*
X10725678Y-4004678D02*
X10725678Y-3969322D01*
X10690322Y-3969322D01*
X10690322Y-4004678D01*
X10725678Y-4004678D01*
X10733000Y-4027000D02*
X10733000Y-3947000D01*
X10683000Y-3947000D02*
G75*
G02*
X10733000Y-3947000I25000J0D01*
G01*
X10683000Y-3947000D02*
X10683000Y-4027000D01*
X10683000Y-4027000D02*
G75*
G03*
X10733000Y-4027000I25000J0D01*
G01*
X7959000Y-7128298D02*
X7999000Y-7088298D01*
X7959000Y-7048298D01*
X7919000Y-7088298D01*
X7959000Y-7128298D01*
X8447000Y-7128298D02*
X8487000Y-7088298D01*
X8447000Y-7048298D01*
X8407000Y-7088298D01*
X8447000Y-7128298D01*
X8536000Y-3977000D02*
X8636000Y-4077000D01*
X8636000Y-3977000D02*
X8536000Y-4077000D01*
X8636000Y-4027000D02*
G75*
G02*
X8536000Y-4027000I-50000J0D01*
G01*
X8536000Y-4027000D02*
G75*
G02*
X8636000Y-4027000I50000J0D01*
G01*
X8790000Y-3977000D02*
X8890000Y-4077000D01*
X8890000Y-3977000D02*
X8790000Y-4077000D01*
X8890000Y-4027000D02*
G75*
G02*
X8790000Y-4027000I-50000J0D01*
G01*
X8790000Y-4027000D02*
G75*
G02*
X8890000Y-4027000I50000J0D01*
G01*
X11319000Y-4014284D02*
X11419000Y-4114284D01*
X11419000Y-4014284D02*
X11319000Y-4114284D01*
X11419000Y-4064284D02*
G75*
G02*
X11319000Y-4064284I-50000J0D01*
G01*
X11319000Y-4064284D02*
G75*
G02*
X11419000Y-4064284I50000J0D01*
G01*
X11827000Y-4014284D02*
X11927000Y-4114284D01*
X11927000Y-4014284D02*
X11827000Y-4114284D01*
X11927000Y-4064284D02*
G75*
G02*
X11827000Y-4064284I-50000J0D01*
G01*
X11827000Y-4064284D02*
G75*
G02*
X11927000Y-4064284I50000J0D01*
G01*
X13131000Y-6260500D02*
X13231000Y-6360500D01*
X13231000Y-6260500D02*
X13131000Y-6360500D01*
X13231000Y-6310500D02*
G75*
G02*
X13131000Y-6310500I-50000J0D01*
G01*
X13131000Y-6310500D02*
G75*
G02*
X13231000Y-6310500I50000J0D01*
G01*
X13131000Y-6514500D02*
X13231000Y-6614500D01*
X13231000Y-6514500D02*
X13131000Y-6614500D01*
X13231000Y-6564500D02*
G75*
G02*
X13131000Y-6564500I-50000J0D01*
G01*
X13131000Y-6564500D02*
G75*
G02*
X13231000Y-6564500I50000J0D01*
G01*
X13131000Y-6768500D02*
X13231000Y-6868500D01*
X13231000Y-6768500D02*
X13131000Y-6868500D01*
X13231000Y-6818500D02*
G75*
G02*
X13131000Y-6818500I-50000J0D01*
G01*
X13131000Y-6818500D02*
G75*
G02*
X13231000Y-6818500I50000J0D01*
G01*
D10*
X5838777Y-12853782D02*
X5838777Y-12653782D01*
X5838777Y-12653782D02*
X5886396Y-12653782D01*
X5886396Y-12653782D02*
X5914967Y-12663306D01*
X5914967Y-12663306D02*
X5934015Y-12682354D01*
X5934015Y-12682354D02*
X5943539Y-12701401D01*
X5943539Y-12701401D02*
X5953062Y-12739496D01*
X5953062Y-12739496D02*
X5953062Y-12768068D01*
X5953062Y-12768068D02*
X5943539Y-12806163D01*
X5943539Y-12806163D02*
X5934015Y-12825211D01*
X5934015Y-12825211D02*
X5914967Y-12844258D01*
X5914967Y-12844258D02*
X5886396Y-12853782D01*
X5886396Y-12853782D02*
X5838777Y-12853782D01*
X6038777Y-12853782D02*
X6038777Y-12720449D01*
X6038777Y-12758544D02*
X6048301Y-12739496D01*
X6048301Y-12739496D02*
X6057824Y-12729973D01*
X6057824Y-12729973D02*
X6076872Y-12720449D01*
X6076872Y-12720449D02*
X6095920Y-12720449D01*
X6162586Y-12853782D02*
X6162586Y-12720449D01*
X6162586Y-12653782D02*
X6153062Y-12663306D01*
X6153062Y-12663306D02*
X6162586Y-12672830D01*
X6162586Y-12672830D02*
X6172110Y-12663306D01*
X6172110Y-12663306D02*
X6162586Y-12653782D01*
X6162586Y-12653782D02*
X6162586Y-12672830D01*
X6286396Y-12853782D02*
X6267348Y-12844258D01*
X6267348Y-12844258D02*
X6257824Y-12825211D01*
X6257824Y-12825211D02*
X6257824Y-12653782D01*
X6391158Y-12853782D02*
X6372110Y-12844258D01*
X6372110Y-12844258D02*
X6362586Y-12825211D01*
X6362586Y-12825211D02*
X6362586Y-12653782D01*
X6619729Y-12853782D02*
X6619729Y-12653782D01*
X6619729Y-12653782D02*
X6686396Y-12796639D01*
X6686396Y-12796639D02*
X6753062Y-12653782D01*
X6753062Y-12653782D02*
X6753062Y-12853782D01*
X6934015Y-12853782D02*
X6934015Y-12749020D01*
X6934015Y-12749020D02*
X6924491Y-12729973D01*
X6924491Y-12729973D02*
X6905443Y-12720449D01*
X6905443Y-12720449D02*
X6867348Y-12720449D01*
X6867348Y-12720449D02*
X6848301Y-12729973D01*
X6934015Y-12844258D02*
X6914967Y-12853782D01*
X6914967Y-12853782D02*
X6867348Y-12853782D01*
X6867348Y-12853782D02*
X6848301Y-12844258D01*
X6848301Y-12844258D02*
X6838777Y-12825211D01*
X6838777Y-12825211D02*
X6838777Y-12806163D01*
X6838777Y-12806163D02*
X6848301Y-12787115D01*
X6848301Y-12787115D02*
X6867348Y-12777592D01*
X6867348Y-12777592D02*
X6914967Y-12777592D01*
X6914967Y-12777592D02*
X6934015Y-12768068D01*
X7029253Y-12720449D02*
X7029253Y-12920449D01*
X7029253Y-12729973D02*
X7048301Y-12720449D01*
X7048301Y-12720449D02*
X7086396Y-12720449D01*
X7086396Y-12720449D02*
X7105443Y-12729973D01*
X7105443Y-12729973D02*
X7114967Y-12739496D01*
X7114967Y-12739496D02*
X7124491Y-12758544D01*
X7124491Y-12758544D02*
X7124491Y-12815687D01*
X7124491Y-12815687D02*
X7114967Y-12834734D01*
X7114967Y-12834734D02*
X7105443Y-12844258D01*
X7105443Y-12844258D02*
X7086396Y-12853782D01*
X7086396Y-12853782D02*
X7048301Y-12853782D01*
X7048301Y-12853782D02*
X7029253Y-12844258D01*
X7210205Y-12834734D02*
X7219729Y-12844258D01*
X7219729Y-12844258D02*
X7210205Y-12853782D01*
X7210205Y-12853782D02*
X7200682Y-12844258D01*
X7200682Y-12844258D02*
X7210205Y-12834734D01*
X7210205Y-12834734D02*
X7210205Y-12853782D01*
X7210205Y-12729973D02*
X7219729Y-12739496D01*
X7219729Y-12739496D02*
X7210205Y-12749020D01*
X7210205Y-12749020D02*
X7200682Y-12739496D01*
X7200682Y-12739496D02*
X7210205Y-12729973D01*
X7210205Y-12729973D02*
X7210205Y-12749020D01*
D12*
X5543000Y-13164798D02*
X5578000Y-13199798D01*
X5578000Y-13164798D02*
X5543000Y-13199798D01*
D10*
X5876872Y-13073782D02*
X5895920Y-13073782D01*
X5895920Y-13073782D02*
X5914967Y-13083306D01*
X5914967Y-13083306D02*
X5924491Y-13092830D01*
X5924491Y-13092830D02*
X5934015Y-13111877D01*
X5934015Y-13111877D02*
X5943539Y-13149973D01*
X5943539Y-13149973D02*
X5943539Y-13197592D01*
X5943539Y-13197592D02*
X5934015Y-13235687D01*
X5934015Y-13235687D02*
X5924491Y-13254734D01*
X5924491Y-13254734D02*
X5914967Y-13264258D01*
X5914967Y-13264258D02*
X5895920Y-13273782D01*
X5895920Y-13273782D02*
X5876872Y-13273782D01*
X5876872Y-13273782D02*
X5857824Y-13264258D01*
X5857824Y-13264258D02*
X5848301Y-13254734D01*
X5848301Y-13254734D02*
X5838777Y-13235687D01*
X5838777Y-13235687D02*
X5829253Y-13197592D01*
X5829253Y-13197592D02*
X5829253Y-13149973D01*
X5829253Y-13149973D02*
X5838777Y-13111877D01*
X5838777Y-13111877D02*
X5848301Y-13092830D01*
X5848301Y-13092830D02*
X5857824Y-13083306D01*
X5857824Y-13083306D02*
X5876872Y-13073782D01*
X6029253Y-13254734D02*
X6038777Y-13264258D01*
X6038777Y-13264258D02*
X6029253Y-13273782D01*
X6029253Y-13273782D02*
X6019729Y-13264258D01*
X6019729Y-13264258D02*
X6029253Y-13254734D01*
X6029253Y-13254734D02*
X6029253Y-13273782D01*
X6105443Y-13073782D02*
X6229253Y-13073782D01*
X6229253Y-13073782D02*
X6162586Y-13149973D01*
X6162586Y-13149973D02*
X6191158Y-13149973D01*
X6191158Y-13149973D02*
X6210205Y-13159496D01*
X6210205Y-13159496D02*
X6219729Y-13169020D01*
X6219729Y-13169020D02*
X6229253Y-13188068D01*
X6229253Y-13188068D02*
X6229253Y-13235687D01*
X6229253Y-13235687D02*
X6219729Y-13254734D01*
X6219729Y-13254734D02*
X6210205Y-13264258D01*
X6210205Y-13264258D02*
X6191158Y-13273782D01*
X6191158Y-13273782D02*
X6134015Y-13273782D01*
X6134015Y-13273782D02*
X6114967Y-13264258D01*
X6114967Y-13264258D02*
X6105443Y-13254734D01*
X6410205Y-13073782D02*
X6314967Y-13073782D01*
X6314967Y-13073782D02*
X6305443Y-13169020D01*
X6305443Y-13169020D02*
X6314967Y-13159496D01*
X6314967Y-13159496D02*
X6334015Y-13149973D01*
X6334015Y-13149973D02*
X6381634Y-13149973D01*
X6381634Y-13149973D02*
X6400682Y-13159496D01*
X6400682Y-13159496D02*
X6410205Y-13169020D01*
X6410205Y-13169020D02*
X6419729Y-13188068D01*
X6419729Y-13188068D02*
X6419729Y-13235687D01*
X6419729Y-13235687D02*
X6410205Y-13254734D01*
X6410205Y-13254734D02*
X6400682Y-13264258D01*
X6400682Y-13264258D02*
X6381634Y-13273782D01*
X6381634Y-13273782D02*
X6334015Y-13273782D01*
X6334015Y-13273782D02*
X6314967Y-13264258D01*
X6314967Y-13264258D02*
X6305443Y-13254734D01*
X6543539Y-13073782D02*
X6562586Y-13073782D01*
X6562586Y-13073782D02*
X6581634Y-13083306D01*
X6581634Y-13083306D02*
X6591158Y-13092830D01*
X6591158Y-13092830D02*
X6600682Y-13111877D01*
X6600682Y-13111877D02*
X6610205Y-13149973D01*
X6610205Y-13149973D02*
X6610205Y-13197592D01*
X6610205Y-13197592D02*
X6600682Y-13235687D01*
X6600682Y-13235687D02*
X6591158Y-13254734D01*
X6591158Y-13254734D02*
X6581634Y-13264258D01*
X6581634Y-13264258D02*
X6562586Y-13273782D01*
X6562586Y-13273782D02*
X6543539Y-13273782D01*
X6543539Y-13273782D02*
X6524491Y-13264258D01*
X6524491Y-13264258D02*
X6514967Y-13254734D01*
X6514967Y-13254734D02*
X6505443Y-13235687D01*
X6505443Y-13235687D02*
X6495920Y-13197592D01*
X6495920Y-13197592D02*
X6495920Y-13149973D01*
X6495920Y-13149973D02*
X6505443Y-13111877D01*
X6505443Y-13111877D02*
X6514967Y-13092830D01*
X6514967Y-13092830D02*
X6524491Y-13083306D01*
X6524491Y-13083306D02*
X6543539Y-13073782D01*
X6695920Y-13273782D02*
X6695920Y-13140449D01*
X6695920Y-13159496D02*
X6705443Y-13149973D01*
X6705443Y-13149973D02*
X6724491Y-13140449D01*
X6724491Y-13140449D02*
X6753063Y-13140449D01*
X6753063Y-13140449D02*
X6772110Y-13149973D01*
X6772110Y-13149973D02*
X6781634Y-13169020D01*
X6781634Y-13169020D02*
X6781634Y-13273782D01*
X6781634Y-13169020D02*
X6791158Y-13149973D01*
X6791158Y-13149973D02*
X6810205Y-13140449D01*
X6810205Y-13140449D02*
X6838777Y-13140449D01*
X6838777Y-13140449D02*
X6857824Y-13149973D01*
X6857824Y-13149973D02*
X6867348Y-13169020D01*
X6867348Y-13169020D02*
X6867348Y-13273782D01*
X6962586Y-13273782D02*
X6962586Y-13140449D01*
X6962586Y-13159496D02*
X6972110Y-13149973D01*
X6972110Y-13149973D02*
X6991158Y-13140449D01*
X6991158Y-13140449D02*
X7019729Y-13140449D01*
X7019729Y-13140449D02*
X7038777Y-13149973D01*
X7038777Y-13149973D02*
X7048301Y-13169020D01*
X7048301Y-13169020D02*
X7048301Y-13273782D01*
X7048301Y-13169020D02*
X7057824Y-13149973D01*
X7057824Y-13149973D02*
X7076872Y-13140449D01*
X7076872Y-13140449D02*
X7105443Y-13140449D01*
X7105443Y-13140449D02*
X7124491Y-13149973D01*
X7124491Y-13149973D02*
X7134015Y-13169020D01*
X7134015Y-13169020D02*
X7134015Y-13273782D01*
X7524491Y-13064258D02*
X7353063Y-13321401D01*
X7781634Y-13073782D02*
X7800682Y-13073782D01*
X7800682Y-13073782D02*
X7819729Y-13083306D01*
X7819729Y-13083306D02*
X7829253Y-13092830D01*
X7829253Y-13092830D02*
X7838777Y-13111877D01*
X7838777Y-13111877D02*
X7848301Y-13149973D01*
X7848301Y-13149973D02*
X7848301Y-13197592D01*
X7848301Y-13197592D02*
X7838777Y-13235687D01*
X7838777Y-13235687D02*
X7829253Y-13254734D01*
X7829253Y-13254734D02*
X7819729Y-13264258D01*
X7819729Y-13264258D02*
X7800682Y-13273782D01*
X7800682Y-13273782D02*
X7781634Y-13273782D01*
X7781634Y-13273782D02*
X7762586Y-13264258D01*
X7762586Y-13264258D02*
X7753063Y-13254734D01*
X7753063Y-13254734D02*
X7743539Y-13235687D01*
X7743539Y-13235687D02*
X7734015Y-13197592D01*
X7734015Y-13197592D02*
X7734015Y-13149973D01*
X7734015Y-13149973D02*
X7743539Y-13111877D01*
X7743539Y-13111877D02*
X7753063Y-13092830D01*
X7753063Y-13092830D02*
X7762586Y-13083306D01*
X7762586Y-13083306D02*
X7781634Y-13073782D01*
X7934015Y-13254734D02*
X7943539Y-13264258D01*
X7943539Y-13264258D02*
X7934015Y-13273782D01*
X7934015Y-13273782D02*
X7924491Y-13264258D01*
X7924491Y-13264258D02*
X7934015Y-13254734D01*
X7934015Y-13254734D02*
X7934015Y-13273782D01*
X8067348Y-13073782D02*
X8086396Y-13073782D01*
X8086396Y-13073782D02*
X8105444Y-13083306D01*
X8105444Y-13083306D02*
X8114967Y-13092830D01*
X8114967Y-13092830D02*
X8124491Y-13111877D01*
X8124491Y-13111877D02*
X8134015Y-13149973D01*
X8134015Y-13149973D02*
X8134015Y-13197592D01*
X8134015Y-13197592D02*
X8124491Y-13235687D01*
X8124491Y-13235687D02*
X8114967Y-13254734D01*
X8114967Y-13254734D02*
X8105444Y-13264258D01*
X8105444Y-13264258D02*
X8086396Y-13273782D01*
X8086396Y-13273782D02*
X8067348Y-13273782D01*
X8067348Y-13273782D02*
X8048301Y-13264258D01*
X8048301Y-13264258D02*
X8038777Y-13254734D01*
X8038777Y-13254734D02*
X8029253Y-13235687D01*
X8029253Y-13235687D02*
X8019729Y-13197592D01*
X8019729Y-13197592D02*
X8019729Y-13149973D01*
X8019729Y-13149973D02*
X8029253Y-13111877D01*
X8029253Y-13111877D02*
X8038777Y-13092830D01*
X8038777Y-13092830D02*
X8048301Y-13083306D01*
X8048301Y-13083306D02*
X8067348Y-13073782D01*
X8324491Y-13273782D02*
X8210206Y-13273782D01*
X8267348Y-13273782D02*
X8267348Y-13073782D01*
X8267348Y-13073782D02*
X8248301Y-13102354D01*
X8248301Y-13102354D02*
X8229253Y-13121401D01*
X8229253Y-13121401D02*
X8210206Y-13130925D01*
X8391158Y-13073782D02*
X8514968Y-13073782D01*
X8514968Y-13073782D02*
X8448301Y-13149973D01*
X8448301Y-13149973D02*
X8476872Y-13149973D01*
X8476872Y-13149973D02*
X8495920Y-13159496D01*
X8495920Y-13159496D02*
X8505444Y-13169020D01*
X8505444Y-13169020D02*
X8514968Y-13188068D01*
X8514968Y-13188068D02*
X8514968Y-13235687D01*
X8514968Y-13235687D02*
X8505444Y-13254734D01*
X8505444Y-13254734D02*
X8495920Y-13264258D01*
X8495920Y-13264258D02*
X8476872Y-13273782D01*
X8476872Y-13273782D02*
X8419729Y-13273782D01*
X8419729Y-13273782D02*
X8400682Y-13264258D01*
X8400682Y-13264258D02*
X8391158Y-13254734D01*
X8629253Y-13159496D02*
X8610206Y-13149973D01*
X8610206Y-13149973D02*
X8600682Y-13140449D01*
X8600682Y-13140449D02*
X8591158Y-13121401D01*
X8591158Y-13121401D02*
X8591158Y-13111877D01*
X8591158Y-13111877D02*
X8600682Y-13092830D01*
X8600682Y-13092830D02*
X8610206Y-13083306D01*
X8610206Y-13083306D02*
X8629253Y-13073782D01*
X8629253Y-13073782D02*
X8667349Y-13073782D01*
X8667349Y-13073782D02*
X8686396Y-13083306D01*
X8686396Y-13083306D02*
X8695920Y-13092830D01*
X8695920Y-13092830D02*
X8705444Y-13111877D01*
X8705444Y-13111877D02*
X8705444Y-13121401D01*
X8705444Y-13121401D02*
X8695920Y-13140449D01*
X8695920Y-13140449D02*
X8686396Y-13149973D01*
X8686396Y-13149973D02*
X8667349Y-13159496D01*
X8667349Y-13159496D02*
X8629253Y-13159496D01*
X8629253Y-13159496D02*
X8610206Y-13169020D01*
X8610206Y-13169020D02*
X8600682Y-13178544D01*
X8600682Y-13178544D02*
X8591158Y-13197592D01*
X8591158Y-13197592D02*
X8591158Y-13235687D01*
X8591158Y-13235687D02*
X8600682Y-13254734D01*
X8600682Y-13254734D02*
X8610206Y-13264258D01*
X8610206Y-13264258D02*
X8629253Y-13273782D01*
X8629253Y-13273782D02*
X8667349Y-13273782D01*
X8667349Y-13273782D02*
X8686396Y-13264258D01*
X8686396Y-13264258D02*
X8695920Y-13254734D01*
X8695920Y-13254734D02*
X8705444Y-13235687D01*
X8705444Y-13235687D02*
X8705444Y-13197592D01*
X8705444Y-13197592D02*
X8695920Y-13178544D01*
X8695920Y-13178544D02*
X8686396Y-13169020D01*
X8686396Y-13169020D02*
X8667349Y-13159496D01*
X8781634Y-13073782D02*
X8781634Y-13111877D01*
X8857825Y-13073782D02*
X8857825Y-13111877D01*
X9153063Y-13349973D02*
X9143539Y-13340449D01*
X9143539Y-13340449D02*
X9124491Y-13311877D01*
X9124491Y-13311877D02*
X9114968Y-13292830D01*
X9114968Y-13292830D02*
X9105444Y-13264258D01*
X9105444Y-13264258D02*
X9095920Y-13216639D01*
X9095920Y-13216639D02*
X9095920Y-13178544D01*
X9095920Y-13178544D02*
X9105444Y-13130925D01*
X9105444Y-13130925D02*
X9114968Y-13102354D01*
X9114968Y-13102354D02*
X9124491Y-13083306D01*
X9124491Y-13083306D02*
X9143539Y-13054734D01*
X9143539Y-13054734D02*
X9153063Y-13045211D01*
X9238777Y-13273782D02*
X9276872Y-13273782D01*
X9276872Y-13273782D02*
X9295920Y-13264258D01*
X9295920Y-13264258D02*
X9305444Y-13254734D01*
X9305444Y-13254734D02*
X9324491Y-13226163D01*
X9324491Y-13226163D02*
X9334015Y-13188068D01*
X9334015Y-13188068D02*
X9334015Y-13111877D01*
X9334015Y-13111877D02*
X9324491Y-13092830D01*
X9324491Y-13092830D02*
X9314968Y-13083306D01*
X9314968Y-13083306D02*
X9295920Y-13073782D01*
X9295920Y-13073782D02*
X9257825Y-13073782D01*
X9257825Y-13073782D02*
X9238777Y-13083306D01*
X9238777Y-13083306D02*
X9229253Y-13092830D01*
X9229253Y-13092830D02*
X9219730Y-13111877D01*
X9219730Y-13111877D02*
X9219730Y-13159496D01*
X9219730Y-13159496D02*
X9229253Y-13178544D01*
X9229253Y-13178544D02*
X9238777Y-13188068D01*
X9238777Y-13188068D02*
X9257825Y-13197592D01*
X9257825Y-13197592D02*
X9295920Y-13197592D01*
X9295920Y-13197592D02*
X9314968Y-13188068D01*
X9314968Y-13188068D02*
X9324491Y-13178544D01*
X9324491Y-13178544D02*
X9334015Y-13159496D01*
X9572111Y-13273782D02*
X9572111Y-13073782D01*
X9657825Y-13273782D02*
X9657825Y-13169020D01*
X9657825Y-13169020D02*
X9648301Y-13149973D01*
X9648301Y-13149973D02*
X9629253Y-13140449D01*
X9629253Y-13140449D02*
X9600682Y-13140449D01*
X9600682Y-13140449D02*
X9581634Y-13149973D01*
X9581634Y-13149973D02*
X9572111Y-13159496D01*
X9781634Y-13273782D02*
X9762587Y-13264258D01*
X9762587Y-13264258D02*
X9753063Y-13254734D01*
X9753063Y-13254734D02*
X9743539Y-13235687D01*
X9743539Y-13235687D02*
X9743539Y-13178544D01*
X9743539Y-13178544D02*
X9753063Y-13159496D01*
X9753063Y-13159496D02*
X9762587Y-13149973D01*
X9762587Y-13149973D02*
X9781634Y-13140449D01*
X9781634Y-13140449D02*
X9810206Y-13140449D01*
X9810206Y-13140449D02*
X9829253Y-13149973D01*
X9829253Y-13149973D02*
X9838777Y-13159496D01*
X9838777Y-13159496D02*
X9848301Y-13178544D01*
X9848301Y-13178544D02*
X9848301Y-13235687D01*
X9848301Y-13235687D02*
X9838777Y-13254734D01*
X9838777Y-13254734D02*
X9829253Y-13264258D01*
X9829253Y-13264258D02*
X9810206Y-13273782D01*
X9810206Y-13273782D02*
X9781634Y-13273782D01*
X9962587Y-13273782D02*
X9943539Y-13264258D01*
X9943539Y-13264258D02*
X9934015Y-13245211D01*
X9934015Y-13245211D02*
X9934015Y-13073782D01*
X10114968Y-13264258D02*
X10095920Y-13273782D01*
X10095920Y-13273782D02*
X10057825Y-13273782D01*
X10057825Y-13273782D02*
X10038777Y-13264258D01*
X10038777Y-13264258D02*
X10029253Y-13245211D01*
X10029253Y-13245211D02*
X10029253Y-13169020D01*
X10029253Y-13169020D02*
X10038777Y-13149973D01*
X10038777Y-13149973D02*
X10057825Y-13140449D01*
X10057825Y-13140449D02*
X10095920Y-13140449D01*
X10095920Y-13140449D02*
X10114968Y-13149973D01*
X10114968Y-13149973D02*
X10124492Y-13169020D01*
X10124492Y-13169020D02*
X10124492Y-13188068D01*
X10124492Y-13188068D02*
X10029253Y-13207115D01*
X10200682Y-13264258D02*
X10219730Y-13273782D01*
X10219730Y-13273782D02*
X10257825Y-13273782D01*
X10257825Y-13273782D02*
X10276873Y-13264258D01*
X10276873Y-13264258D02*
X10286396Y-13245211D01*
X10286396Y-13245211D02*
X10286396Y-13235687D01*
X10286396Y-13235687D02*
X10276873Y-13216639D01*
X10276873Y-13216639D02*
X10257825Y-13207115D01*
X10257825Y-13207115D02*
X10229253Y-13207115D01*
X10229253Y-13207115D02*
X10210206Y-13197592D01*
X10210206Y-13197592D02*
X10200682Y-13178544D01*
X10200682Y-13178544D02*
X10200682Y-13169020D01*
X10200682Y-13169020D02*
X10210206Y-13149973D01*
X10210206Y-13149973D02*
X10229253Y-13140449D01*
X10229253Y-13140449D02*
X10257825Y-13140449D01*
X10257825Y-13140449D02*
X10276873Y-13149973D01*
X10353063Y-13349973D02*
X10362587Y-13340449D01*
X10362587Y-13340449D02*
X10381634Y-13311877D01*
X10381634Y-13311877D02*
X10391158Y-13292830D01*
X10391158Y-13292830D02*
X10400682Y-13264258D01*
X10400682Y-13264258D02*
X10410206Y-13216639D01*
X10410206Y-13216639D02*
X10410206Y-13178544D01*
X10410206Y-13178544D02*
X10400682Y-13130925D01*
X10400682Y-13130925D02*
X10391158Y-13102354D01*
X10391158Y-13102354D02*
X10381634Y-13083306D01*
X10381634Y-13083306D02*
X10362587Y-13054734D01*
X10362587Y-13054734D02*
X10353063Y-13045211D01*
D12*
X5578000Y-13446298D02*
G75*
G02*
X5538000Y-13446298I-20000J0D01*
G01*
X5538000Y-13446298D02*
G75*
G02*
X5578000Y-13446298I20000J0D01*
G01*
D10*
X5876872Y-13337782D02*
X5895920Y-13337782D01*
X5895920Y-13337782D02*
X5914967Y-13347306D01*
X5914967Y-13347306D02*
X5924491Y-13356830D01*
X5924491Y-13356830D02*
X5934015Y-13375877D01*
X5934015Y-13375877D02*
X5943539Y-13413973D01*
X5943539Y-13413973D02*
X5943539Y-13461592D01*
X5943539Y-13461592D02*
X5934015Y-13499687D01*
X5934015Y-13499687D02*
X5924491Y-13518734D01*
X5924491Y-13518734D02*
X5914967Y-13528258D01*
X5914967Y-13528258D02*
X5895920Y-13537782D01*
X5895920Y-13537782D02*
X5876872Y-13537782D01*
X5876872Y-13537782D02*
X5857824Y-13528258D01*
X5857824Y-13528258D02*
X5848301Y-13518734D01*
X5848301Y-13518734D02*
X5838777Y-13499687D01*
X5838777Y-13499687D02*
X5829253Y-13461592D01*
X5829253Y-13461592D02*
X5829253Y-13413973D01*
X5829253Y-13413973D02*
X5838777Y-13375877D01*
X5838777Y-13375877D02*
X5848301Y-13356830D01*
X5848301Y-13356830D02*
X5857824Y-13347306D01*
X5857824Y-13347306D02*
X5876872Y-13337782D01*
X6029253Y-13518734D02*
X6038777Y-13528258D01*
X6038777Y-13528258D02*
X6029253Y-13537782D01*
X6029253Y-13537782D02*
X6019729Y-13528258D01*
X6019729Y-13528258D02*
X6029253Y-13518734D01*
X6029253Y-13518734D02*
X6029253Y-13537782D01*
X6210205Y-13404449D02*
X6210205Y-13537782D01*
X6162586Y-13328258D02*
X6114967Y-13471115D01*
X6114967Y-13471115D02*
X6238777Y-13471115D01*
X6353062Y-13337782D02*
X6372110Y-13337782D01*
X6372110Y-13337782D02*
X6391158Y-13347306D01*
X6391158Y-13347306D02*
X6400682Y-13356830D01*
X6400682Y-13356830D02*
X6410205Y-13375877D01*
X6410205Y-13375877D02*
X6419729Y-13413973D01*
X6419729Y-13413973D02*
X6419729Y-13461592D01*
X6419729Y-13461592D02*
X6410205Y-13499687D01*
X6410205Y-13499687D02*
X6400682Y-13518734D01*
X6400682Y-13518734D02*
X6391158Y-13528258D01*
X6391158Y-13528258D02*
X6372110Y-13537782D01*
X6372110Y-13537782D02*
X6353062Y-13537782D01*
X6353062Y-13537782D02*
X6334015Y-13528258D01*
X6334015Y-13528258D02*
X6324491Y-13518734D01*
X6324491Y-13518734D02*
X6314967Y-13499687D01*
X6314967Y-13499687D02*
X6305443Y-13461592D01*
X6305443Y-13461592D02*
X6305443Y-13413973D01*
X6305443Y-13413973D02*
X6314967Y-13375877D01*
X6314967Y-13375877D02*
X6324491Y-13356830D01*
X6324491Y-13356830D02*
X6334015Y-13347306D01*
X6334015Y-13347306D02*
X6353062Y-13337782D01*
X6543539Y-13337782D02*
X6562586Y-13337782D01*
X6562586Y-13337782D02*
X6581634Y-13347306D01*
X6581634Y-13347306D02*
X6591158Y-13356830D01*
X6591158Y-13356830D02*
X6600682Y-13375877D01*
X6600682Y-13375877D02*
X6610205Y-13413973D01*
X6610205Y-13413973D02*
X6610205Y-13461592D01*
X6610205Y-13461592D02*
X6600682Y-13499687D01*
X6600682Y-13499687D02*
X6591158Y-13518734D01*
X6591158Y-13518734D02*
X6581634Y-13528258D01*
X6581634Y-13528258D02*
X6562586Y-13537782D01*
X6562586Y-13537782D02*
X6543539Y-13537782D01*
X6543539Y-13537782D02*
X6524491Y-13528258D01*
X6524491Y-13528258D02*
X6514967Y-13518734D01*
X6514967Y-13518734D02*
X6505443Y-13499687D01*
X6505443Y-13499687D02*
X6495920Y-13461592D01*
X6495920Y-13461592D02*
X6495920Y-13413973D01*
X6495920Y-13413973D02*
X6505443Y-13375877D01*
X6505443Y-13375877D02*
X6514967Y-13356830D01*
X6514967Y-13356830D02*
X6524491Y-13347306D01*
X6524491Y-13347306D02*
X6543539Y-13337782D01*
X6695920Y-13537782D02*
X6695920Y-13404449D01*
X6695920Y-13423496D02*
X6705443Y-13413973D01*
X6705443Y-13413973D02*
X6724491Y-13404449D01*
X6724491Y-13404449D02*
X6753063Y-13404449D01*
X6753063Y-13404449D02*
X6772110Y-13413973D01*
X6772110Y-13413973D02*
X6781634Y-13433020D01*
X6781634Y-13433020D02*
X6781634Y-13537782D01*
X6781634Y-13433020D02*
X6791158Y-13413973D01*
X6791158Y-13413973D02*
X6810205Y-13404449D01*
X6810205Y-13404449D02*
X6838777Y-13404449D01*
X6838777Y-13404449D02*
X6857824Y-13413973D01*
X6857824Y-13413973D02*
X6867348Y-13433020D01*
X6867348Y-13433020D02*
X6867348Y-13537782D01*
X6962586Y-13537782D02*
X6962586Y-13404449D01*
X6962586Y-13423496D02*
X6972110Y-13413973D01*
X6972110Y-13413973D02*
X6991158Y-13404449D01*
X6991158Y-13404449D02*
X7019729Y-13404449D01*
X7019729Y-13404449D02*
X7038777Y-13413973D01*
X7038777Y-13413973D02*
X7048301Y-13433020D01*
X7048301Y-13433020D02*
X7048301Y-13537782D01*
X7048301Y-13433020D02*
X7057824Y-13413973D01*
X7057824Y-13413973D02*
X7076872Y-13404449D01*
X7076872Y-13404449D02*
X7105443Y-13404449D01*
X7105443Y-13404449D02*
X7124491Y-13413973D01*
X7124491Y-13413973D02*
X7134015Y-13433020D01*
X7134015Y-13433020D02*
X7134015Y-13537782D01*
X7524491Y-13328258D02*
X7353063Y-13585401D01*
X7781634Y-13337782D02*
X7800682Y-13337782D01*
X7800682Y-13337782D02*
X7819729Y-13347306D01*
X7819729Y-13347306D02*
X7829253Y-13356830D01*
X7829253Y-13356830D02*
X7838777Y-13375877D01*
X7838777Y-13375877D02*
X7848301Y-13413973D01*
X7848301Y-13413973D02*
X7848301Y-13461592D01*
X7848301Y-13461592D02*
X7838777Y-13499687D01*
X7838777Y-13499687D02*
X7829253Y-13518734D01*
X7829253Y-13518734D02*
X7819729Y-13528258D01*
X7819729Y-13528258D02*
X7800682Y-13537782D01*
X7800682Y-13537782D02*
X7781634Y-13537782D01*
X7781634Y-13537782D02*
X7762586Y-13528258D01*
X7762586Y-13528258D02*
X7753063Y-13518734D01*
X7753063Y-13518734D02*
X7743539Y-13499687D01*
X7743539Y-13499687D02*
X7734015Y-13461592D01*
X7734015Y-13461592D02*
X7734015Y-13413973D01*
X7734015Y-13413973D02*
X7743539Y-13375877D01*
X7743539Y-13375877D02*
X7753063Y-13356830D01*
X7753063Y-13356830D02*
X7762586Y-13347306D01*
X7762586Y-13347306D02*
X7781634Y-13337782D01*
X7934015Y-13518734D02*
X7943539Y-13528258D01*
X7943539Y-13528258D02*
X7934015Y-13537782D01*
X7934015Y-13537782D02*
X7924491Y-13528258D01*
X7924491Y-13528258D02*
X7934015Y-13518734D01*
X7934015Y-13518734D02*
X7934015Y-13537782D01*
X8067348Y-13337782D02*
X8086396Y-13337782D01*
X8086396Y-13337782D02*
X8105444Y-13347306D01*
X8105444Y-13347306D02*
X8114967Y-13356830D01*
X8114967Y-13356830D02*
X8124491Y-13375877D01*
X8124491Y-13375877D02*
X8134015Y-13413973D01*
X8134015Y-13413973D02*
X8134015Y-13461592D01*
X8134015Y-13461592D02*
X8124491Y-13499687D01*
X8124491Y-13499687D02*
X8114967Y-13518734D01*
X8114967Y-13518734D02*
X8105444Y-13528258D01*
X8105444Y-13528258D02*
X8086396Y-13537782D01*
X8086396Y-13537782D02*
X8067348Y-13537782D01*
X8067348Y-13537782D02*
X8048301Y-13528258D01*
X8048301Y-13528258D02*
X8038777Y-13518734D01*
X8038777Y-13518734D02*
X8029253Y-13499687D01*
X8029253Y-13499687D02*
X8019729Y-13461592D01*
X8019729Y-13461592D02*
X8019729Y-13413973D01*
X8019729Y-13413973D02*
X8029253Y-13375877D01*
X8029253Y-13375877D02*
X8038777Y-13356830D01*
X8038777Y-13356830D02*
X8048301Y-13347306D01*
X8048301Y-13347306D02*
X8067348Y-13337782D01*
X8324491Y-13537782D02*
X8210206Y-13537782D01*
X8267348Y-13537782D02*
X8267348Y-13337782D01*
X8267348Y-13337782D02*
X8248301Y-13366354D01*
X8248301Y-13366354D02*
X8229253Y-13385401D01*
X8229253Y-13385401D02*
X8210206Y-13394925D01*
X8505444Y-13337782D02*
X8410206Y-13337782D01*
X8410206Y-13337782D02*
X8400682Y-13433020D01*
X8400682Y-13433020D02*
X8410206Y-13423496D01*
X8410206Y-13423496D02*
X8429253Y-13413973D01*
X8429253Y-13413973D02*
X8476872Y-13413973D01*
X8476872Y-13413973D02*
X8495920Y-13423496D01*
X8495920Y-13423496D02*
X8505444Y-13433020D01*
X8505444Y-13433020D02*
X8514968Y-13452068D01*
X8514968Y-13452068D02*
X8514968Y-13499687D01*
X8514968Y-13499687D02*
X8505444Y-13518734D01*
X8505444Y-13518734D02*
X8495920Y-13528258D01*
X8495920Y-13528258D02*
X8476872Y-13537782D01*
X8476872Y-13537782D02*
X8429253Y-13537782D01*
X8429253Y-13537782D02*
X8410206Y-13528258D01*
X8410206Y-13528258D02*
X8400682Y-13518734D01*
X8581634Y-13337782D02*
X8714968Y-13337782D01*
X8714968Y-13337782D02*
X8629253Y-13537782D01*
X8781634Y-13337782D02*
X8781634Y-13375877D01*
X8857825Y-13337782D02*
X8857825Y-13375877D01*
X9153063Y-13613973D02*
X9143539Y-13604449D01*
X9143539Y-13604449D02*
X9124491Y-13575877D01*
X9124491Y-13575877D02*
X9114968Y-13556830D01*
X9114968Y-13556830D02*
X9105444Y-13528258D01*
X9105444Y-13528258D02*
X9095920Y-13480639D01*
X9095920Y-13480639D02*
X9095920Y-13442544D01*
X9095920Y-13442544D02*
X9105444Y-13394925D01*
X9105444Y-13394925D02*
X9114968Y-13366354D01*
X9114968Y-13366354D02*
X9124491Y-13347306D01*
X9124491Y-13347306D02*
X9143539Y-13318734D01*
X9143539Y-13318734D02*
X9153063Y-13309211D01*
X9257825Y-13423496D02*
X9238777Y-13413973D01*
X9238777Y-13413973D02*
X9229253Y-13404449D01*
X9229253Y-13404449D02*
X9219730Y-13385401D01*
X9219730Y-13385401D02*
X9219730Y-13375877D01*
X9219730Y-13375877D02*
X9229253Y-13356830D01*
X9229253Y-13356830D02*
X9238777Y-13347306D01*
X9238777Y-13347306D02*
X9257825Y-13337782D01*
X9257825Y-13337782D02*
X9295920Y-13337782D01*
X9295920Y-13337782D02*
X9314968Y-13347306D01*
X9314968Y-13347306D02*
X9324491Y-13356830D01*
X9324491Y-13356830D02*
X9334015Y-13375877D01*
X9334015Y-13375877D02*
X9334015Y-13385401D01*
X9334015Y-13385401D02*
X9324491Y-13404449D01*
X9324491Y-13404449D02*
X9314968Y-13413973D01*
X9314968Y-13413973D02*
X9295920Y-13423496D01*
X9295920Y-13423496D02*
X9257825Y-13423496D01*
X9257825Y-13423496D02*
X9238777Y-13433020D01*
X9238777Y-13433020D02*
X9229253Y-13442544D01*
X9229253Y-13442544D02*
X9219730Y-13461592D01*
X9219730Y-13461592D02*
X9219730Y-13499687D01*
X9219730Y-13499687D02*
X9229253Y-13518734D01*
X9229253Y-13518734D02*
X9238777Y-13528258D01*
X9238777Y-13528258D02*
X9257825Y-13537782D01*
X9257825Y-13537782D02*
X9295920Y-13537782D01*
X9295920Y-13537782D02*
X9314968Y-13528258D01*
X9314968Y-13528258D02*
X9324491Y-13518734D01*
X9324491Y-13518734D02*
X9334015Y-13499687D01*
X9334015Y-13499687D02*
X9334015Y-13461592D01*
X9334015Y-13461592D02*
X9324491Y-13442544D01*
X9324491Y-13442544D02*
X9314968Y-13433020D01*
X9314968Y-13433020D02*
X9295920Y-13423496D01*
X9572111Y-13537782D02*
X9572111Y-13337782D01*
X9657825Y-13537782D02*
X9657825Y-13433020D01*
X9657825Y-13433020D02*
X9648301Y-13413973D01*
X9648301Y-13413973D02*
X9629253Y-13404449D01*
X9629253Y-13404449D02*
X9600682Y-13404449D01*
X9600682Y-13404449D02*
X9581634Y-13413973D01*
X9581634Y-13413973D02*
X9572111Y-13423496D01*
X9781634Y-13537782D02*
X9762587Y-13528258D01*
X9762587Y-13528258D02*
X9753063Y-13518734D01*
X9753063Y-13518734D02*
X9743539Y-13499687D01*
X9743539Y-13499687D02*
X9743539Y-13442544D01*
X9743539Y-13442544D02*
X9753063Y-13423496D01*
X9753063Y-13423496D02*
X9762587Y-13413973D01*
X9762587Y-13413973D02*
X9781634Y-13404449D01*
X9781634Y-13404449D02*
X9810206Y-13404449D01*
X9810206Y-13404449D02*
X9829253Y-13413973D01*
X9829253Y-13413973D02*
X9838777Y-13423496D01*
X9838777Y-13423496D02*
X9848301Y-13442544D01*
X9848301Y-13442544D02*
X9848301Y-13499687D01*
X9848301Y-13499687D02*
X9838777Y-13518734D01*
X9838777Y-13518734D02*
X9829253Y-13528258D01*
X9829253Y-13528258D02*
X9810206Y-13537782D01*
X9810206Y-13537782D02*
X9781634Y-13537782D01*
X9962587Y-13537782D02*
X9943539Y-13528258D01*
X9943539Y-13528258D02*
X9934015Y-13509211D01*
X9934015Y-13509211D02*
X9934015Y-13337782D01*
X10114968Y-13528258D02*
X10095920Y-13537782D01*
X10095920Y-13537782D02*
X10057825Y-13537782D01*
X10057825Y-13537782D02*
X10038777Y-13528258D01*
X10038777Y-13528258D02*
X10029253Y-13509211D01*
X10029253Y-13509211D02*
X10029253Y-13433020D01*
X10029253Y-13433020D02*
X10038777Y-13413973D01*
X10038777Y-13413973D02*
X10057825Y-13404449D01*
X10057825Y-13404449D02*
X10095920Y-13404449D01*
X10095920Y-13404449D02*
X10114968Y-13413973D01*
X10114968Y-13413973D02*
X10124492Y-13433020D01*
X10124492Y-13433020D02*
X10124492Y-13452068D01*
X10124492Y-13452068D02*
X10029253Y-13471115D01*
X10200682Y-13528258D02*
X10219730Y-13537782D01*
X10219730Y-13537782D02*
X10257825Y-13537782D01*
X10257825Y-13537782D02*
X10276873Y-13528258D01*
X10276873Y-13528258D02*
X10286396Y-13509211D01*
X10286396Y-13509211D02*
X10286396Y-13499687D01*
X10286396Y-13499687D02*
X10276873Y-13480639D01*
X10276873Y-13480639D02*
X10257825Y-13471115D01*
X10257825Y-13471115D02*
X10229253Y-13471115D01*
X10229253Y-13471115D02*
X10210206Y-13461592D01*
X10210206Y-13461592D02*
X10200682Y-13442544D01*
X10200682Y-13442544D02*
X10200682Y-13433020D01*
X10200682Y-13433020D02*
X10210206Y-13413973D01*
X10210206Y-13413973D02*
X10229253Y-13404449D01*
X10229253Y-13404449D02*
X10257825Y-13404449D01*
X10257825Y-13404449D02*
X10276873Y-13413973D01*
X10353063Y-13613973D02*
X10362587Y-13604449D01*
X10362587Y-13604449D02*
X10381634Y-13575877D01*
X10381634Y-13575877D02*
X10391158Y-13556830D01*
X10391158Y-13556830D02*
X10400682Y-13528258D01*
X10400682Y-13528258D02*
X10410206Y-13480639D01*
X10410206Y-13480639D02*
X10410206Y-13442544D01*
X10410206Y-13442544D02*
X10400682Y-13394925D01*
X10400682Y-13394925D02*
X10391158Y-13366354D01*
X10391158Y-13366354D02*
X10381634Y-13347306D01*
X10381634Y-13347306D02*
X10362587Y-13318734D01*
X10362587Y-13318734D02*
X10353063Y-13309211D01*
D12*
X5553000Y-13685298D02*
X5553000Y-13735298D01*
X5528000Y-13710298D02*
X5578000Y-13710298D01*
D10*
X5876872Y-13601782D02*
X5895920Y-13601782D01*
X5895920Y-13601782D02*
X5914967Y-13611306D01*
X5914967Y-13611306D02*
X5924491Y-13620830D01*
X5924491Y-13620830D02*
X5934015Y-13639877D01*
X5934015Y-13639877D02*
X5943539Y-13677973D01*
X5943539Y-13677973D02*
X5943539Y-13725592D01*
X5943539Y-13725592D02*
X5934015Y-13763687D01*
X5934015Y-13763687D02*
X5924491Y-13782734D01*
X5924491Y-13782734D02*
X5914967Y-13792258D01*
X5914967Y-13792258D02*
X5895920Y-13801782D01*
X5895920Y-13801782D02*
X5876872Y-13801782D01*
X5876872Y-13801782D02*
X5857824Y-13792258D01*
X5857824Y-13792258D02*
X5848301Y-13782734D01*
X5848301Y-13782734D02*
X5838777Y-13763687D01*
X5838777Y-13763687D02*
X5829253Y-13725592D01*
X5829253Y-13725592D02*
X5829253Y-13677973D01*
X5829253Y-13677973D02*
X5838777Y-13639877D01*
X5838777Y-13639877D02*
X5848301Y-13620830D01*
X5848301Y-13620830D02*
X5857824Y-13611306D01*
X5857824Y-13611306D02*
X5876872Y-13601782D01*
X6029253Y-13782734D02*
X6038777Y-13792258D01*
X6038777Y-13792258D02*
X6029253Y-13801782D01*
X6029253Y-13801782D02*
X6019729Y-13792258D01*
X6019729Y-13792258D02*
X6029253Y-13782734D01*
X6029253Y-13782734D02*
X6029253Y-13801782D01*
X6219729Y-13601782D02*
X6124491Y-13601782D01*
X6124491Y-13601782D02*
X6114967Y-13697020D01*
X6114967Y-13697020D02*
X6124491Y-13687496D01*
X6124491Y-13687496D02*
X6143539Y-13677973D01*
X6143539Y-13677973D02*
X6191158Y-13677973D01*
X6191158Y-13677973D02*
X6210205Y-13687496D01*
X6210205Y-13687496D02*
X6219729Y-13697020D01*
X6219729Y-13697020D02*
X6229253Y-13716068D01*
X6229253Y-13716068D02*
X6229253Y-13763687D01*
X6229253Y-13763687D02*
X6219729Y-13782734D01*
X6219729Y-13782734D02*
X6210205Y-13792258D01*
X6210205Y-13792258D02*
X6191158Y-13801782D01*
X6191158Y-13801782D02*
X6143539Y-13801782D01*
X6143539Y-13801782D02*
X6124491Y-13792258D01*
X6124491Y-13792258D02*
X6114967Y-13782734D01*
X6353062Y-13601782D02*
X6372110Y-13601782D01*
X6372110Y-13601782D02*
X6391158Y-13611306D01*
X6391158Y-13611306D02*
X6400682Y-13620830D01*
X6400682Y-13620830D02*
X6410205Y-13639877D01*
X6410205Y-13639877D02*
X6419729Y-13677973D01*
X6419729Y-13677973D02*
X6419729Y-13725592D01*
X6419729Y-13725592D02*
X6410205Y-13763687D01*
X6410205Y-13763687D02*
X6400682Y-13782734D01*
X6400682Y-13782734D02*
X6391158Y-13792258D01*
X6391158Y-13792258D02*
X6372110Y-13801782D01*
X6372110Y-13801782D02*
X6353062Y-13801782D01*
X6353062Y-13801782D02*
X6334015Y-13792258D01*
X6334015Y-13792258D02*
X6324491Y-13782734D01*
X6324491Y-13782734D02*
X6314967Y-13763687D01*
X6314967Y-13763687D02*
X6305443Y-13725592D01*
X6305443Y-13725592D02*
X6305443Y-13677973D01*
X6305443Y-13677973D02*
X6314967Y-13639877D01*
X6314967Y-13639877D02*
X6324491Y-13620830D01*
X6324491Y-13620830D02*
X6334015Y-13611306D01*
X6334015Y-13611306D02*
X6353062Y-13601782D01*
X6543539Y-13601782D02*
X6562586Y-13601782D01*
X6562586Y-13601782D02*
X6581634Y-13611306D01*
X6581634Y-13611306D02*
X6591158Y-13620830D01*
X6591158Y-13620830D02*
X6600682Y-13639877D01*
X6600682Y-13639877D02*
X6610205Y-13677973D01*
X6610205Y-13677973D02*
X6610205Y-13725592D01*
X6610205Y-13725592D02*
X6600682Y-13763687D01*
X6600682Y-13763687D02*
X6591158Y-13782734D01*
X6591158Y-13782734D02*
X6581634Y-13792258D01*
X6581634Y-13792258D02*
X6562586Y-13801782D01*
X6562586Y-13801782D02*
X6543539Y-13801782D01*
X6543539Y-13801782D02*
X6524491Y-13792258D01*
X6524491Y-13792258D02*
X6514967Y-13782734D01*
X6514967Y-13782734D02*
X6505443Y-13763687D01*
X6505443Y-13763687D02*
X6495920Y-13725592D01*
X6495920Y-13725592D02*
X6495920Y-13677973D01*
X6495920Y-13677973D02*
X6505443Y-13639877D01*
X6505443Y-13639877D02*
X6514967Y-13620830D01*
X6514967Y-13620830D02*
X6524491Y-13611306D01*
X6524491Y-13611306D02*
X6543539Y-13601782D01*
X6695920Y-13801782D02*
X6695920Y-13668449D01*
X6695920Y-13687496D02*
X6705443Y-13677973D01*
X6705443Y-13677973D02*
X6724491Y-13668449D01*
X6724491Y-13668449D02*
X6753063Y-13668449D01*
X6753063Y-13668449D02*
X6772110Y-13677973D01*
X6772110Y-13677973D02*
X6781634Y-13697020D01*
X6781634Y-13697020D02*
X6781634Y-13801782D01*
X6781634Y-13697020D02*
X6791158Y-13677973D01*
X6791158Y-13677973D02*
X6810205Y-13668449D01*
X6810205Y-13668449D02*
X6838777Y-13668449D01*
X6838777Y-13668449D02*
X6857824Y-13677973D01*
X6857824Y-13677973D02*
X6867348Y-13697020D01*
X6867348Y-13697020D02*
X6867348Y-13801782D01*
X6962586Y-13801782D02*
X6962586Y-13668449D01*
X6962586Y-13687496D02*
X6972110Y-13677973D01*
X6972110Y-13677973D02*
X6991158Y-13668449D01*
X6991158Y-13668449D02*
X7019729Y-13668449D01*
X7019729Y-13668449D02*
X7038777Y-13677973D01*
X7038777Y-13677973D02*
X7048301Y-13697020D01*
X7048301Y-13697020D02*
X7048301Y-13801782D01*
X7048301Y-13697020D02*
X7057824Y-13677973D01*
X7057824Y-13677973D02*
X7076872Y-13668449D01*
X7076872Y-13668449D02*
X7105443Y-13668449D01*
X7105443Y-13668449D02*
X7124491Y-13677973D01*
X7124491Y-13677973D02*
X7134015Y-13697020D01*
X7134015Y-13697020D02*
X7134015Y-13801782D01*
X7524491Y-13592258D02*
X7353063Y-13849401D01*
X7781634Y-13601782D02*
X7800682Y-13601782D01*
X7800682Y-13601782D02*
X7819729Y-13611306D01*
X7819729Y-13611306D02*
X7829253Y-13620830D01*
X7829253Y-13620830D02*
X7838777Y-13639877D01*
X7838777Y-13639877D02*
X7848301Y-13677973D01*
X7848301Y-13677973D02*
X7848301Y-13725592D01*
X7848301Y-13725592D02*
X7838777Y-13763687D01*
X7838777Y-13763687D02*
X7829253Y-13782734D01*
X7829253Y-13782734D02*
X7819729Y-13792258D01*
X7819729Y-13792258D02*
X7800682Y-13801782D01*
X7800682Y-13801782D02*
X7781634Y-13801782D01*
X7781634Y-13801782D02*
X7762586Y-13792258D01*
X7762586Y-13792258D02*
X7753063Y-13782734D01*
X7753063Y-13782734D02*
X7743539Y-13763687D01*
X7743539Y-13763687D02*
X7734015Y-13725592D01*
X7734015Y-13725592D02*
X7734015Y-13677973D01*
X7734015Y-13677973D02*
X7743539Y-13639877D01*
X7743539Y-13639877D02*
X7753063Y-13620830D01*
X7753063Y-13620830D02*
X7762586Y-13611306D01*
X7762586Y-13611306D02*
X7781634Y-13601782D01*
X7934015Y-13782734D02*
X7943539Y-13792258D01*
X7943539Y-13792258D02*
X7934015Y-13801782D01*
X7934015Y-13801782D02*
X7924491Y-13792258D01*
X7924491Y-13792258D02*
X7934015Y-13782734D01*
X7934015Y-13782734D02*
X7934015Y-13801782D01*
X8067348Y-13601782D02*
X8086396Y-13601782D01*
X8086396Y-13601782D02*
X8105444Y-13611306D01*
X8105444Y-13611306D02*
X8114967Y-13620830D01*
X8114967Y-13620830D02*
X8124491Y-13639877D01*
X8124491Y-13639877D02*
X8134015Y-13677973D01*
X8134015Y-13677973D02*
X8134015Y-13725592D01*
X8134015Y-13725592D02*
X8124491Y-13763687D01*
X8124491Y-13763687D02*
X8114967Y-13782734D01*
X8114967Y-13782734D02*
X8105444Y-13792258D01*
X8105444Y-13792258D02*
X8086396Y-13801782D01*
X8086396Y-13801782D02*
X8067348Y-13801782D01*
X8067348Y-13801782D02*
X8048301Y-13792258D01*
X8048301Y-13792258D02*
X8038777Y-13782734D01*
X8038777Y-13782734D02*
X8029253Y-13763687D01*
X8029253Y-13763687D02*
X8019729Y-13725592D01*
X8019729Y-13725592D02*
X8019729Y-13677973D01*
X8019729Y-13677973D02*
X8029253Y-13639877D01*
X8029253Y-13639877D02*
X8038777Y-13620830D01*
X8038777Y-13620830D02*
X8048301Y-13611306D01*
X8048301Y-13611306D02*
X8067348Y-13601782D01*
X8324491Y-13801782D02*
X8210206Y-13801782D01*
X8267348Y-13801782D02*
X8267348Y-13601782D01*
X8267348Y-13601782D02*
X8248301Y-13630354D01*
X8248301Y-13630354D02*
X8229253Y-13649401D01*
X8229253Y-13649401D02*
X8210206Y-13658925D01*
X8419729Y-13801782D02*
X8457825Y-13801782D01*
X8457825Y-13801782D02*
X8476872Y-13792258D01*
X8476872Y-13792258D02*
X8486396Y-13782734D01*
X8486396Y-13782734D02*
X8505444Y-13754163D01*
X8505444Y-13754163D02*
X8514968Y-13716068D01*
X8514968Y-13716068D02*
X8514968Y-13639877D01*
X8514968Y-13639877D02*
X8505444Y-13620830D01*
X8505444Y-13620830D02*
X8495920Y-13611306D01*
X8495920Y-13611306D02*
X8476872Y-13601782D01*
X8476872Y-13601782D02*
X8438777Y-13601782D01*
X8438777Y-13601782D02*
X8419729Y-13611306D01*
X8419729Y-13611306D02*
X8410206Y-13620830D01*
X8410206Y-13620830D02*
X8400682Y-13639877D01*
X8400682Y-13639877D02*
X8400682Y-13687496D01*
X8400682Y-13687496D02*
X8410206Y-13706544D01*
X8410206Y-13706544D02*
X8419729Y-13716068D01*
X8419729Y-13716068D02*
X8438777Y-13725592D01*
X8438777Y-13725592D02*
X8476872Y-13725592D01*
X8476872Y-13725592D02*
X8495920Y-13716068D01*
X8495920Y-13716068D02*
X8505444Y-13706544D01*
X8505444Y-13706544D02*
X8514968Y-13687496D01*
X8581634Y-13601782D02*
X8714968Y-13601782D01*
X8714968Y-13601782D02*
X8629253Y-13801782D01*
X8781634Y-13601782D02*
X8781634Y-13639877D01*
X8857825Y-13601782D02*
X8857825Y-13639877D01*
X9153063Y-13877973D02*
X9143539Y-13868449D01*
X9143539Y-13868449D02*
X9124491Y-13839877D01*
X9124491Y-13839877D02*
X9114968Y-13820830D01*
X9114968Y-13820830D02*
X9105444Y-13792258D01*
X9105444Y-13792258D02*
X9095920Y-13744639D01*
X9095920Y-13744639D02*
X9095920Y-13706544D01*
X9095920Y-13706544D02*
X9105444Y-13658925D01*
X9105444Y-13658925D02*
X9114968Y-13630354D01*
X9114968Y-13630354D02*
X9124491Y-13611306D01*
X9124491Y-13611306D02*
X9143539Y-13582734D01*
X9143539Y-13582734D02*
X9153063Y-13573211D01*
X9219730Y-13620830D02*
X9229253Y-13611306D01*
X9229253Y-13611306D02*
X9248301Y-13601782D01*
X9248301Y-13601782D02*
X9295920Y-13601782D01*
X9295920Y-13601782D02*
X9314968Y-13611306D01*
X9314968Y-13611306D02*
X9324491Y-13620830D01*
X9324491Y-13620830D02*
X9334015Y-13639877D01*
X9334015Y-13639877D02*
X9334015Y-13658925D01*
X9334015Y-13658925D02*
X9324491Y-13687496D01*
X9324491Y-13687496D02*
X9210206Y-13801782D01*
X9210206Y-13801782D02*
X9334015Y-13801782D01*
X9524491Y-13801782D02*
X9410206Y-13801782D01*
X9467349Y-13801782D02*
X9467349Y-13601782D01*
X9467349Y-13601782D02*
X9448301Y-13630354D01*
X9448301Y-13630354D02*
X9429253Y-13649401D01*
X9429253Y-13649401D02*
X9410206Y-13658925D01*
X9638777Y-13687496D02*
X9619730Y-13677973D01*
X9619730Y-13677973D02*
X9610206Y-13668449D01*
X9610206Y-13668449D02*
X9600682Y-13649401D01*
X9600682Y-13649401D02*
X9600682Y-13639877D01*
X9600682Y-13639877D02*
X9610206Y-13620830D01*
X9610206Y-13620830D02*
X9619730Y-13611306D01*
X9619730Y-13611306D02*
X9638777Y-13601782D01*
X9638777Y-13601782D02*
X9676872Y-13601782D01*
X9676872Y-13601782D02*
X9695920Y-13611306D01*
X9695920Y-13611306D02*
X9705444Y-13620830D01*
X9705444Y-13620830D02*
X9714968Y-13639877D01*
X9714968Y-13639877D02*
X9714968Y-13649401D01*
X9714968Y-13649401D02*
X9705444Y-13668449D01*
X9705444Y-13668449D02*
X9695920Y-13677973D01*
X9695920Y-13677973D02*
X9676872Y-13687496D01*
X9676872Y-13687496D02*
X9638777Y-13687496D01*
X9638777Y-13687496D02*
X9619730Y-13697020D01*
X9619730Y-13697020D02*
X9610206Y-13706544D01*
X9610206Y-13706544D02*
X9600682Y-13725592D01*
X9600682Y-13725592D02*
X9600682Y-13763687D01*
X9600682Y-13763687D02*
X9610206Y-13782734D01*
X9610206Y-13782734D02*
X9619730Y-13792258D01*
X9619730Y-13792258D02*
X9638777Y-13801782D01*
X9638777Y-13801782D02*
X9676872Y-13801782D01*
X9676872Y-13801782D02*
X9695920Y-13792258D01*
X9695920Y-13792258D02*
X9705444Y-13782734D01*
X9705444Y-13782734D02*
X9714968Y-13763687D01*
X9714968Y-13763687D02*
X9714968Y-13725592D01*
X9714968Y-13725592D02*
X9705444Y-13706544D01*
X9705444Y-13706544D02*
X9695920Y-13697020D01*
X9695920Y-13697020D02*
X9676872Y-13687496D01*
X9953063Y-13801782D02*
X9953063Y-13601782D01*
X10038777Y-13801782D02*
X10038777Y-13697020D01*
X10038777Y-13697020D02*
X10029253Y-13677973D01*
X10029253Y-13677973D02*
X10010206Y-13668449D01*
X10010206Y-13668449D02*
X9981634Y-13668449D01*
X9981634Y-13668449D02*
X9962587Y-13677973D01*
X9962587Y-13677973D02*
X9953063Y-13687496D01*
X10162587Y-13801782D02*
X10143539Y-13792258D01*
X10143539Y-13792258D02*
X10134015Y-13782734D01*
X10134015Y-13782734D02*
X10124492Y-13763687D01*
X10124492Y-13763687D02*
X10124492Y-13706544D01*
X10124492Y-13706544D02*
X10134015Y-13687496D01*
X10134015Y-13687496D02*
X10143539Y-13677973D01*
X10143539Y-13677973D02*
X10162587Y-13668449D01*
X10162587Y-13668449D02*
X10191158Y-13668449D01*
X10191158Y-13668449D02*
X10210206Y-13677973D01*
X10210206Y-13677973D02*
X10219730Y-13687496D01*
X10219730Y-13687496D02*
X10229253Y-13706544D01*
X10229253Y-13706544D02*
X10229253Y-13763687D01*
X10229253Y-13763687D02*
X10219730Y-13782734D01*
X10219730Y-13782734D02*
X10210206Y-13792258D01*
X10210206Y-13792258D02*
X10191158Y-13801782D01*
X10191158Y-13801782D02*
X10162587Y-13801782D01*
X10343539Y-13801782D02*
X10324492Y-13792258D01*
X10324492Y-13792258D02*
X10314968Y-13773211D01*
X10314968Y-13773211D02*
X10314968Y-13601782D01*
X10495920Y-13792258D02*
X10476873Y-13801782D01*
X10476873Y-13801782D02*
X10438777Y-13801782D01*
X10438777Y-13801782D02*
X10419730Y-13792258D01*
X10419730Y-13792258D02*
X10410206Y-13773211D01*
X10410206Y-13773211D02*
X10410206Y-13697020D01*
X10410206Y-13697020D02*
X10419730Y-13677973D01*
X10419730Y-13677973D02*
X10438777Y-13668449D01*
X10438777Y-13668449D02*
X10476873Y-13668449D01*
X10476873Y-13668449D02*
X10495920Y-13677973D01*
X10495920Y-13677973D02*
X10505444Y-13697020D01*
X10505444Y-13697020D02*
X10505444Y-13716068D01*
X10505444Y-13716068D02*
X10410206Y-13735115D01*
X10581634Y-13792258D02*
X10600682Y-13801782D01*
X10600682Y-13801782D02*
X10638777Y-13801782D01*
X10638777Y-13801782D02*
X10657825Y-13792258D01*
X10657825Y-13792258D02*
X10667349Y-13773211D01*
X10667349Y-13773211D02*
X10667349Y-13763687D01*
X10667349Y-13763687D02*
X10657825Y-13744639D01*
X10657825Y-13744639D02*
X10638777Y-13735115D01*
X10638777Y-13735115D02*
X10610206Y-13735115D01*
X10610206Y-13735115D02*
X10591158Y-13725592D01*
X10591158Y-13725592D02*
X10581634Y-13706544D01*
X10581634Y-13706544D02*
X10581634Y-13697020D01*
X10581634Y-13697020D02*
X10591158Y-13677973D01*
X10591158Y-13677973D02*
X10610206Y-13668449D01*
X10610206Y-13668449D02*
X10638777Y-13668449D01*
X10638777Y-13668449D02*
X10657825Y-13677973D01*
X10734015Y-13877973D02*
X10743539Y-13868449D01*
X10743539Y-13868449D02*
X10762587Y-13839877D01*
X10762587Y-13839877D02*
X10772111Y-13820830D01*
X10772111Y-13820830D02*
X10781634Y-13792258D01*
X10781634Y-13792258D02*
X10791158Y-13744639D01*
X10791158Y-13744639D02*
X10791158Y-13706544D01*
X10791158Y-13706544D02*
X10781634Y-13658925D01*
X10781634Y-13658925D02*
X10772111Y-13630354D01*
X10772111Y-13630354D02*
X10762587Y-13611306D01*
X10762587Y-13611306D02*
X10743539Y-13582734D01*
X10743539Y-13582734D02*
X10734015Y-13573211D01*
D12*
X5570678Y-13991976D02*
X5570678Y-13956621D01*
X5535322Y-13956621D01*
X5535322Y-13991976D01*
X5570678Y-13991976D01*
D10*
X5876872Y-13865782D02*
X5895920Y-13865782D01*
X5895920Y-13865782D02*
X5914967Y-13875306D01*
X5914967Y-13875306D02*
X5924491Y-13884830D01*
X5924491Y-13884830D02*
X5934015Y-13903877D01*
X5934015Y-13903877D02*
X5943539Y-13941973D01*
X5943539Y-13941973D02*
X5943539Y-13989592D01*
X5943539Y-13989592D02*
X5934015Y-14027687D01*
X5934015Y-14027687D02*
X5924491Y-14046734D01*
X5924491Y-14046734D02*
X5914967Y-14056258D01*
X5914967Y-14056258D02*
X5895920Y-14065782D01*
X5895920Y-14065782D02*
X5876872Y-14065782D01*
X5876872Y-14065782D02*
X5857824Y-14056258D01*
X5857824Y-14056258D02*
X5848301Y-14046734D01*
X5848301Y-14046734D02*
X5838777Y-14027687D01*
X5838777Y-14027687D02*
X5829253Y-13989592D01*
X5829253Y-13989592D02*
X5829253Y-13941973D01*
X5829253Y-13941973D02*
X5838777Y-13903877D01*
X5838777Y-13903877D02*
X5848301Y-13884830D01*
X5848301Y-13884830D02*
X5857824Y-13875306D01*
X5857824Y-13875306D02*
X5876872Y-13865782D01*
X6029253Y-14046734D02*
X6038777Y-14056258D01*
X6038777Y-14056258D02*
X6029253Y-14065782D01*
X6029253Y-14065782D02*
X6019729Y-14056258D01*
X6019729Y-14056258D02*
X6029253Y-14046734D01*
X6029253Y-14046734D02*
X6029253Y-14065782D01*
X6219729Y-13865782D02*
X6124491Y-13865782D01*
X6124491Y-13865782D02*
X6114967Y-13961020D01*
X6114967Y-13961020D02*
X6124491Y-13951496D01*
X6124491Y-13951496D02*
X6143539Y-13941973D01*
X6143539Y-13941973D02*
X6191158Y-13941973D01*
X6191158Y-13941973D02*
X6210205Y-13951496D01*
X6210205Y-13951496D02*
X6219729Y-13961020D01*
X6219729Y-13961020D02*
X6229253Y-13980068D01*
X6229253Y-13980068D02*
X6229253Y-14027687D01*
X6229253Y-14027687D02*
X6219729Y-14046734D01*
X6219729Y-14046734D02*
X6210205Y-14056258D01*
X6210205Y-14056258D02*
X6191158Y-14065782D01*
X6191158Y-14065782D02*
X6143539Y-14065782D01*
X6143539Y-14065782D02*
X6124491Y-14056258D01*
X6124491Y-14056258D02*
X6114967Y-14046734D01*
X6353062Y-13865782D02*
X6372110Y-13865782D01*
X6372110Y-13865782D02*
X6391158Y-13875306D01*
X6391158Y-13875306D02*
X6400682Y-13884830D01*
X6400682Y-13884830D02*
X6410205Y-13903877D01*
X6410205Y-13903877D02*
X6419729Y-13941973D01*
X6419729Y-13941973D02*
X6419729Y-13989592D01*
X6419729Y-13989592D02*
X6410205Y-14027687D01*
X6410205Y-14027687D02*
X6400682Y-14046734D01*
X6400682Y-14046734D02*
X6391158Y-14056258D01*
X6391158Y-14056258D02*
X6372110Y-14065782D01*
X6372110Y-14065782D02*
X6353062Y-14065782D01*
X6353062Y-14065782D02*
X6334015Y-14056258D01*
X6334015Y-14056258D02*
X6324491Y-14046734D01*
X6324491Y-14046734D02*
X6314967Y-14027687D01*
X6314967Y-14027687D02*
X6305443Y-13989592D01*
X6305443Y-13989592D02*
X6305443Y-13941973D01*
X6305443Y-13941973D02*
X6314967Y-13903877D01*
X6314967Y-13903877D02*
X6324491Y-13884830D01*
X6324491Y-13884830D02*
X6334015Y-13875306D01*
X6334015Y-13875306D02*
X6353062Y-13865782D01*
X6543539Y-13865782D02*
X6562586Y-13865782D01*
X6562586Y-13865782D02*
X6581634Y-13875306D01*
X6581634Y-13875306D02*
X6591158Y-13884830D01*
X6591158Y-13884830D02*
X6600682Y-13903877D01*
X6600682Y-13903877D02*
X6610205Y-13941973D01*
X6610205Y-13941973D02*
X6610205Y-13989592D01*
X6610205Y-13989592D02*
X6600682Y-14027687D01*
X6600682Y-14027687D02*
X6591158Y-14046734D01*
X6591158Y-14046734D02*
X6581634Y-14056258D01*
X6581634Y-14056258D02*
X6562586Y-14065782D01*
X6562586Y-14065782D02*
X6543539Y-14065782D01*
X6543539Y-14065782D02*
X6524491Y-14056258D01*
X6524491Y-14056258D02*
X6514967Y-14046734D01*
X6514967Y-14046734D02*
X6505443Y-14027687D01*
X6505443Y-14027687D02*
X6495920Y-13989592D01*
X6495920Y-13989592D02*
X6495920Y-13941973D01*
X6495920Y-13941973D02*
X6505443Y-13903877D01*
X6505443Y-13903877D02*
X6514967Y-13884830D01*
X6514967Y-13884830D02*
X6524491Y-13875306D01*
X6524491Y-13875306D02*
X6543539Y-13865782D01*
X6695920Y-14065782D02*
X6695920Y-13932449D01*
X6695920Y-13951496D02*
X6705443Y-13941973D01*
X6705443Y-13941973D02*
X6724491Y-13932449D01*
X6724491Y-13932449D02*
X6753063Y-13932449D01*
X6753063Y-13932449D02*
X6772110Y-13941973D01*
X6772110Y-13941973D02*
X6781634Y-13961020D01*
X6781634Y-13961020D02*
X6781634Y-14065782D01*
X6781634Y-13961020D02*
X6791158Y-13941973D01*
X6791158Y-13941973D02*
X6810205Y-13932449D01*
X6810205Y-13932449D02*
X6838777Y-13932449D01*
X6838777Y-13932449D02*
X6857824Y-13941973D01*
X6857824Y-13941973D02*
X6867348Y-13961020D01*
X6867348Y-13961020D02*
X6867348Y-14065782D01*
X6962586Y-14065782D02*
X6962586Y-13932449D01*
X6962586Y-13951496D02*
X6972110Y-13941973D01*
X6972110Y-13941973D02*
X6991158Y-13932449D01*
X6991158Y-13932449D02*
X7019729Y-13932449D01*
X7019729Y-13932449D02*
X7038777Y-13941973D01*
X7038777Y-13941973D02*
X7048301Y-13961020D01*
X7048301Y-13961020D02*
X7048301Y-14065782D01*
X7048301Y-13961020D02*
X7057824Y-13941973D01*
X7057824Y-13941973D02*
X7076872Y-13932449D01*
X7076872Y-13932449D02*
X7105443Y-13932449D01*
X7105443Y-13932449D02*
X7124491Y-13941973D01*
X7124491Y-13941973D02*
X7134015Y-13961020D01*
X7134015Y-13961020D02*
X7134015Y-14065782D01*
X7524491Y-13856258D02*
X7353063Y-14113401D01*
X7781634Y-13865782D02*
X7800682Y-13865782D01*
X7800682Y-13865782D02*
X7819729Y-13875306D01*
X7819729Y-13875306D02*
X7829253Y-13884830D01*
X7829253Y-13884830D02*
X7838777Y-13903877D01*
X7838777Y-13903877D02*
X7848301Y-13941973D01*
X7848301Y-13941973D02*
X7848301Y-13989592D01*
X7848301Y-13989592D02*
X7838777Y-14027687D01*
X7838777Y-14027687D02*
X7829253Y-14046734D01*
X7829253Y-14046734D02*
X7819729Y-14056258D01*
X7819729Y-14056258D02*
X7800682Y-14065782D01*
X7800682Y-14065782D02*
X7781634Y-14065782D01*
X7781634Y-14065782D02*
X7762586Y-14056258D01*
X7762586Y-14056258D02*
X7753063Y-14046734D01*
X7753063Y-14046734D02*
X7743539Y-14027687D01*
X7743539Y-14027687D02*
X7734015Y-13989592D01*
X7734015Y-13989592D02*
X7734015Y-13941973D01*
X7734015Y-13941973D02*
X7743539Y-13903877D01*
X7743539Y-13903877D02*
X7753063Y-13884830D01*
X7753063Y-13884830D02*
X7762586Y-13875306D01*
X7762586Y-13875306D02*
X7781634Y-13865782D01*
X7934015Y-14046734D02*
X7943539Y-14056258D01*
X7943539Y-14056258D02*
X7934015Y-14065782D01*
X7934015Y-14065782D02*
X7924491Y-14056258D01*
X7924491Y-14056258D02*
X7934015Y-14046734D01*
X7934015Y-14046734D02*
X7934015Y-14065782D01*
X8067348Y-13865782D02*
X8086396Y-13865782D01*
X8086396Y-13865782D02*
X8105444Y-13875306D01*
X8105444Y-13875306D02*
X8114967Y-13884830D01*
X8114967Y-13884830D02*
X8124491Y-13903877D01*
X8124491Y-13903877D02*
X8134015Y-13941973D01*
X8134015Y-13941973D02*
X8134015Y-13989592D01*
X8134015Y-13989592D02*
X8124491Y-14027687D01*
X8124491Y-14027687D02*
X8114967Y-14046734D01*
X8114967Y-14046734D02*
X8105444Y-14056258D01*
X8105444Y-14056258D02*
X8086396Y-14065782D01*
X8086396Y-14065782D02*
X8067348Y-14065782D01*
X8067348Y-14065782D02*
X8048301Y-14056258D01*
X8048301Y-14056258D02*
X8038777Y-14046734D01*
X8038777Y-14046734D02*
X8029253Y-14027687D01*
X8029253Y-14027687D02*
X8019729Y-13989592D01*
X8019729Y-13989592D02*
X8019729Y-13941973D01*
X8019729Y-13941973D02*
X8029253Y-13903877D01*
X8029253Y-13903877D02*
X8038777Y-13884830D01*
X8038777Y-13884830D02*
X8048301Y-13875306D01*
X8048301Y-13875306D02*
X8067348Y-13865782D01*
X8324491Y-14065782D02*
X8210206Y-14065782D01*
X8267348Y-14065782D02*
X8267348Y-13865782D01*
X8267348Y-13865782D02*
X8248301Y-13894354D01*
X8248301Y-13894354D02*
X8229253Y-13913401D01*
X8229253Y-13913401D02*
X8210206Y-13922925D01*
X8419729Y-14065782D02*
X8457825Y-14065782D01*
X8457825Y-14065782D02*
X8476872Y-14056258D01*
X8476872Y-14056258D02*
X8486396Y-14046734D01*
X8486396Y-14046734D02*
X8505444Y-14018163D01*
X8505444Y-14018163D02*
X8514968Y-13980068D01*
X8514968Y-13980068D02*
X8514968Y-13903877D01*
X8514968Y-13903877D02*
X8505444Y-13884830D01*
X8505444Y-13884830D02*
X8495920Y-13875306D01*
X8495920Y-13875306D02*
X8476872Y-13865782D01*
X8476872Y-13865782D02*
X8438777Y-13865782D01*
X8438777Y-13865782D02*
X8419729Y-13875306D01*
X8419729Y-13875306D02*
X8410206Y-13884830D01*
X8410206Y-13884830D02*
X8400682Y-13903877D01*
X8400682Y-13903877D02*
X8400682Y-13951496D01*
X8400682Y-13951496D02*
X8410206Y-13970544D01*
X8410206Y-13970544D02*
X8419729Y-13980068D01*
X8419729Y-13980068D02*
X8438777Y-13989592D01*
X8438777Y-13989592D02*
X8476872Y-13989592D01*
X8476872Y-13989592D02*
X8495920Y-13980068D01*
X8495920Y-13980068D02*
X8505444Y-13970544D01*
X8505444Y-13970544D02*
X8514968Y-13951496D01*
X8581634Y-13865782D02*
X8714968Y-13865782D01*
X8714968Y-13865782D02*
X8629253Y-14065782D01*
X8781634Y-13865782D02*
X8781634Y-13903877D01*
X8857825Y-13865782D02*
X8857825Y-13903877D01*
X9153063Y-14141973D02*
X9143539Y-14132449D01*
X9143539Y-14132449D02*
X9124491Y-14103877D01*
X9124491Y-14103877D02*
X9114968Y-14084830D01*
X9114968Y-14084830D02*
X9105444Y-14056258D01*
X9105444Y-14056258D02*
X9095920Y-14008639D01*
X9095920Y-14008639D02*
X9095920Y-13970544D01*
X9095920Y-13970544D02*
X9105444Y-13922925D01*
X9105444Y-13922925D02*
X9114968Y-13894354D01*
X9114968Y-13894354D02*
X9124491Y-13875306D01*
X9124491Y-13875306D02*
X9143539Y-13846734D01*
X9143539Y-13846734D02*
X9153063Y-13837211D01*
X9267349Y-13865782D02*
X9286396Y-13865782D01*
X9286396Y-13865782D02*
X9305444Y-13875306D01*
X9305444Y-13875306D02*
X9314968Y-13884830D01*
X9314968Y-13884830D02*
X9324491Y-13903877D01*
X9324491Y-13903877D02*
X9334015Y-13941973D01*
X9334015Y-13941973D02*
X9334015Y-13989592D01*
X9334015Y-13989592D02*
X9324491Y-14027687D01*
X9324491Y-14027687D02*
X9314968Y-14046734D01*
X9314968Y-14046734D02*
X9305444Y-14056258D01*
X9305444Y-14056258D02*
X9286396Y-14065782D01*
X9286396Y-14065782D02*
X9267349Y-14065782D01*
X9267349Y-14065782D02*
X9248301Y-14056258D01*
X9248301Y-14056258D02*
X9238777Y-14046734D01*
X9238777Y-14046734D02*
X9229253Y-14027687D01*
X9229253Y-14027687D02*
X9219730Y-13989592D01*
X9219730Y-13989592D02*
X9219730Y-13941973D01*
X9219730Y-13941973D02*
X9229253Y-13903877D01*
X9229253Y-13903877D02*
X9238777Y-13884830D01*
X9238777Y-13884830D02*
X9248301Y-13875306D01*
X9248301Y-13875306D02*
X9267349Y-13865782D01*
X9572111Y-14065782D02*
X9572111Y-13865782D01*
X9657825Y-14065782D02*
X9657825Y-13961020D01*
X9657825Y-13961020D02*
X9648301Y-13941973D01*
X9648301Y-13941973D02*
X9629253Y-13932449D01*
X9629253Y-13932449D02*
X9600682Y-13932449D01*
X9600682Y-13932449D02*
X9581634Y-13941973D01*
X9581634Y-13941973D02*
X9572111Y-13951496D01*
X9781634Y-14065782D02*
X9762587Y-14056258D01*
X9762587Y-14056258D02*
X9753063Y-14046734D01*
X9753063Y-14046734D02*
X9743539Y-14027687D01*
X9743539Y-14027687D02*
X9743539Y-13970544D01*
X9743539Y-13970544D02*
X9753063Y-13951496D01*
X9753063Y-13951496D02*
X9762587Y-13941973D01*
X9762587Y-13941973D02*
X9781634Y-13932449D01*
X9781634Y-13932449D02*
X9810206Y-13932449D01*
X9810206Y-13932449D02*
X9829253Y-13941973D01*
X9829253Y-13941973D02*
X9838777Y-13951496D01*
X9838777Y-13951496D02*
X9848301Y-13970544D01*
X9848301Y-13970544D02*
X9848301Y-14027687D01*
X9848301Y-14027687D02*
X9838777Y-14046734D01*
X9838777Y-14046734D02*
X9829253Y-14056258D01*
X9829253Y-14056258D02*
X9810206Y-14065782D01*
X9810206Y-14065782D02*
X9781634Y-14065782D01*
X9962587Y-14065782D02*
X9943539Y-14056258D01*
X9943539Y-14056258D02*
X9934015Y-14037211D01*
X9934015Y-14037211D02*
X9934015Y-13865782D01*
X10114968Y-14056258D02*
X10095920Y-14065782D01*
X10095920Y-14065782D02*
X10057825Y-14065782D01*
X10057825Y-14065782D02*
X10038777Y-14056258D01*
X10038777Y-14056258D02*
X10029253Y-14037211D01*
X10029253Y-14037211D02*
X10029253Y-13961020D01*
X10029253Y-13961020D02*
X10038777Y-13941973D01*
X10038777Y-13941973D02*
X10057825Y-13932449D01*
X10057825Y-13932449D02*
X10095920Y-13932449D01*
X10095920Y-13932449D02*
X10114968Y-13941973D01*
X10114968Y-13941973D02*
X10124492Y-13961020D01*
X10124492Y-13961020D02*
X10124492Y-13980068D01*
X10124492Y-13980068D02*
X10029253Y-13999115D01*
X10200682Y-14056258D02*
X10219730Y-14065782D01*
X10219730Y-14065782D02*
X10257825Y-14065782D01*
X10257825Y-14065782D02*
X10276873Y-14056258D01*
X10276873Y-14056258D02*
X10286396Y-14037211D01*
X10286396Y-14037211D02*
X10286396Y-14027687D01*
X10286396Y-14027687D02*
X10276873Y-14008639D01*
X10276873Y-14008639D02*
X10257825Y-13999115D01*
X10257825Y-13999115D02*
X10229253Y-13999115D01*
X10229253Y-13999115D02*
X10210206Y-13989592D01*
X10210206Y-13989592D02*
X10200682Y-13970544D01*
X10200682Y-13970544D02*
X10200682Y-13961020D01*
X10200682Y-13961020D02*
X10210206Y-13941973D01*
X10210206Y-13941973D02*
X10229253Y-13932449D01*
X10229253Y-13932449D02*
X10257825Y-13932449D01*
X10257825Y-13932449D02*
X10276873Y-13941973D01*
X10524492Y-13989592D02*
X10676873Y-13989592D01*
X10600682Y-14065782D02*
X10600682Y-13913401D01*
X11010206Y-13865782D02*
X10972111Y-13865782D01*
X10972111Y-13865782D02*
X10953063Y-13875306D01*
X10953063Y-13875306D02*
X10943539Y-13884830D01*
X10943539Y-13884830D02*
X10924492Y-13913401D01*
X10924492Y-13913401D02*
X10914968Y-13951496D01*
X10914968Y-13951496D02*
X10914968Y-14027687D01*
X10914968Y-14027687D02*
X10924492Y-14046734D01*
X10924492Y-14046734D02*
X10934015Y-14056258D01*
X10934015Y-14056258D02*
X10953063Y-14065782D01*
X10953063Y-14065782D02*
X10991158Y-14065782D01*
X10991158Y-14065782D02*
X11010206Y-14056258D01*
X11010206Y-14056258D02*
X11019730Y-14046734D01*
X11019730Y-14046734D02*
X11029254Y-14027687D01*
X11029254Y-14027687D02*
X11029254Y-13980068D01*
X11029254Y-13980068D02*
X11019730Y-13961020D01*
X11019730Y-13961020D02*
X11010206Y-13951496D01*
X11010206Y-13951496D02*
X10991158Y-13941973D01*
X10991158Y-13941973D02*
X10953063Y-13941973D01*
X10953063Y-13941973D02*
X10934015Y-13951496D01*
X10934015Y-13951496D02*
X10924492Y-13961020D01*
X10924492Y-13961020D02*
X10914968Y-13980068D01*
X11257825Y-14056258D02*
X11276873Y-14065782D01*
X11276873Y-14065782D02*
X11314968Y-14065782D01*
X11314968Y-14065782D02*
X11334015Y-14056258D01*
X11334015Y-14056258D02*
X11343539Y-14037211D01*
X11343539Y-14037211D02*
X11343539Y-14027687D01*
X11343539Y-14027687D02*
X11334015Y-14008639D01*
X11334015Y-14008639D02*
X11314968Y-13999115D01*
X11314968Y-13999115D02*
X11286396Y-13999115D01*
X11286396Y-13999115D02*
X11267349Y-13989592D01*
X11267349Y-13989592D02*
X11257825Y-13970544D01*
X11257825Y-13970544D02*
X11257825Y-13961020D01*
X11257825Y-13961020D02*
X11267349Y-13941973D01*
X11267349Y-13941973D02*
X11286396Y-13932449D01*
X11286396Y-13932449D02*
X11314968Y-13932449D01*
X11314968Y-13932449D02*
X11334015Y-13941973D01*
X11457825Y-14065782D02*
X11438777Y-14056258D01*
X11438777Y-14056258D02*
X11429254Y-14037211D01*
X11429254Y-14037211D02*
X11429254Y-13865782D01*
X11562587Y-14065782D02*
X11543539Y-14056258D01*
X11543539Y-14056258D02*
X11534015Y-14046734D01*
X11534015Y-14046734D02*
X11524492Y-14027687D01*
X11524492Y-14027687D02*
X11524492Y-13970544D01*
X11524492Y-13970544D02*
X11534015Y-13951496D01*
X11534015Y-13951496D02*
X11543539Y-13941973D01*
X11543539Y-13941973D02*
X11562587Y-13932449D01*
X11562587Y-13932449D02*
X11591158Y-13932449D01*
X11591158Y-13932449D02*
X11610206Y-13941973D01*
X11610206Y-13941973D02*
X11619730Y-13951496D01*
X11619730Y-13951496D02*
X11629254Y-13970544D01*
X11629254Y-13970544D02*
X11629254Y-14027687D01*
X11629254Y-14027687D02*
X11619730Y-14046734D01*
X11619730Y-14046734D02*
X11610206Y-14056258D01*
X11610206Y-14056258D02*
X11591158Y-14065782D01*
X11591158Y-14065782D02*
X11562587Y-14065782D01*
X11686396Y-13932449D02*
X11762587Y-13932449D01*
X11714968Y-13865782D02*
X11714968Y-14037211D01*
X11714968Y-14037211D02*
X11724492Y-14056258D01*
X11724492Y-14056258D02*
X11743539Y-14065782D01*
X11743539Y-14065782D02*
X11762587Y-14065782D01*
X11819730Y-14056258D02*
X11838777Y-14065782D01*
X11838777Y-14065782D02*
X11876873Y-14065782D01*
X11876873Y-14065782D02*
X11895920Y-14056258D01*
X11895920Y-14056258D02*
X11905444Y-14037211D01*
X11905444Y-14037211D02*
X11905444Y-14027687D01*
X11905444Y-14027687D02*
X11895920Y-14008639D01*
X11895920Y-14008639D02*
X11876873Y-13999115D01*
X11876873Y-13999115D02*
X11848301Y-13999115D01*
X11848301Y-13999115D02*
X11829254Y-13989592D01*
X11829254Y-13989592D02*
X11819730Y-13970544D01*
X11819730Y-13970544D02*
X11819730Y-13961020D01*
X11819730Y-13961020D02*
X11829254Y-13941973D01*
X11829254Y-13941973D02*
X11848301Y-13932449D01*
X11848301Y-13932449D02*
X11876873Y-13932449D01*
X11876873Y-13932449D02*
X11895920Y-13941973D01*
X11972111Y-14141973D02*
X11981635Y-14132449D01*
X11981635Y-14132449D02*
X12000682Y-14103877D01*
X12000682Y-14103877D02*
X12010206Y-14084830D01*
X12010206Y-14084830D02*
X12019730Y-14056258D01*
X12019730Y-14056258D02*
X12029254Y-14008639D01*
X12029254Y-14008639D02*
X12029254Y-13970544D01*
X12029254Y-13970544D02*
X12019730Y-13922925D01*
X12019730Y-13922925D02*
X12010206Y-13894354D01*
X12010206Y-13894354D02*
X12000682Y-13875306D01*
X12000682Y-13875306D02*
X11981635Y-13846734D01*
X11981635Y-13846734D02*
X11972111Y-13837211D01*
D12*
X5538000Y-14278298D02*
X5578000Y-14238298D01*
X5538000Y-14198298D01*
X5498000Y-14238298D01*
X5538000Y-14278298D01*
D10*
X5876872Y-14129782D02*
X5895920Y-14129782D01*
X5895920Y-14129782D02*
X5914967Y-14139306D01*
X5914967Y-14139306D02*
X5924491Y-14148830D01*
X5924491Y-14148830D02*
X5934015Y-14167877D01*
X5934015Y-14167877D02*
X5943539Y-14205973D01*
X5943539Y-14205973D02*
X5943539Y-14253592D01*
X5943539Y-14253592D02*
X5934015Y-14291687D01*
X5934015Y-14291687D02*
X5924491Y-14310734D01*
X5924491Y-14310734D02*
X5914967Y-14320258D01*
X5914967Y-14320258D02*
X5895920Y-14329782D01*
X5895920Y-14329782D02*
X5876872Y-14329782D01*
X5876872Y-14329782D02*
X5857824Y-14320258D01*
X5857824Y-14320258D02*
X5848301Y-14310734D01*
X5848301Y-14310734D02*
X5838777Y-14291687D01*
X5838777Y-14291687D02*
X5829253Y-14253592D01*
X5829253Y-14253592D02*
X5829253Y-14205973D01*
X5829253Y-14205973D02*
X5838777Y-14167877D01*
X5838777Y-14167877D02*
X5848301Y-14148830D01*
X5848301Y-14148830D02*
X5857824Y-14139306D01*
X5857824Y-14139306D02*
X5876872Y-14129782D01*
X6029253Y-14310734D02*
X6038777Y-14320258D01*
X6038777Y-14320258D02*
X6029253Y-14329782D01*
X6029253Y-14329782D02*
X6019729Y-14320258D01*
X6019729Y-14320258D02*
X6029253Y-14310734D01*
X6029253Y-14310734D02*
X6029253Y-14329782D01*
X6153062Y-14215496D02*
X6134015Y-14205973D01*
X6134015Y-14205973D02*
X6124491Y-14196449D01*
X6124491Y-14196449D02*
X6114967Y-14177401D01*
X6114967Y-14177401D02*
X6114967Y-14167877D01*
X6114967Y-14167877D02*
X6124491Y-14148830D01*
X6124491Y-14148830D02*
X6134015Y-14139306D01*
X6134015Y-14139306D02*
X6153062Y-14129782D01*
X6153062Y-14129782D02*
X6191158Y-14129782D01*
X6191158Y-14129782D02*
X6210205Y-14139306D01*
X6210205Y-14139306D02*
X6219729Y-14148830D01*
X6219729Y-14148830D02*
X6229253Y-14167877D01*
X6229253Y-14167877D02*
X6229253Y-14177401D01*
X6229253Y-14177401D02*
X6219729Y-14196449D01*
X6219729Y-14196449D02*
X6210205Y-14205973D01*
X6210205Y-14205973D02*
X6191158Y-14215496D01*
X6191158Y-14215496D02*
X6153062Y-14215496D01*
X6153062Y-14215496D02*
X6134015Y-14225020D01*
X6134015Y-14225020D02*
X6124491Y-14234544D01*
X6124491Y-14234544D02*
X6114967Y-14253592D01*
X6114967Y-14253592D02*
X6114967Y-14291687D01*
X6114967Y-14291687D02*
X6124491Y-14310734D01*
X6124491Y-14310734D02*
X6134015Y-14320258D01*
X6134015Y-14320258D02*
X6153062Y-14329782D01*
X6153062Y-14329782D02*
X6191158Y-14329782D01*
X6191158Y-14329782D02*
X6210205Y-14320258D01*
X6210205Y-14320258D02*
X6219729Y-14310734D01*
X6219729Y-14310734D02*
X6229253Y-14291687D01*
X6229253Y-14291687D02*
X6229253Y-14253592D01*
X6229253Y-14253592D02*
X6219729Y-14234544D01*
X6219729Y-14234544D02*
X6210205Y-14225020D01*
X6210205Y-14225020D02*
X6191158Y-14215496D01*
X6353062Y-14129782D02*
X6372110Y-14129782D01*
X6372110Y-14129782D02*
X6391158Y-14139306D01*
X6391158Y-14139306D02*
X6400682Y-14148830D01*
X6400682Y-14148830D02*
X6410205Y-14167877D01*
X6410205Y-14167877D02*
X6419729Y-14205973D01*
X6419729Y-14205973D02*
X6419729Y-14253592D01*
X6419729Y-14253592D02*
X6410205Y-14291687D01*
X6410205Y-14291687D02*
X6400682Y-14310734D01*
X6400682Y-14310734D02*
X6391158Y-14320258D01*
X6391158Y-14320258D02*
X6372110Y-14329782D01*
X6372110Y-14329782D02*
X6353062Y-14329782D01*
X6353062Y-14329782D02*
X6334015Y-14320258D01*
X6334015Y-14320258D02*
X6324491Y-14310734D01*
X6324491Y-14310734D02*
X6314967Y-14291687D01*
X6314967Y-14291687D02*
X6305443Y-14253592D01*
X6305443Y-14253592D02*
X6305443Y-14205973D01*
X6305443Y-14205973D02*
X6314967Y-14167877D01*
X6314967Y-14167877D02*
X6324491Y-14148830D01*
X6324491Y-14148830D02*
X6334015Y-14139306D01*
X6334015Y-14139306D02*
X6353062Y-14129782D01*
X6543539Y-14129782D02*
X6562586Y-14129782D01*
X6562586Y-14129782D02*
X6581634Y-14139306D01*
X6581634Y-14139306D02*
X6591158Y-14148830D01*
X6591158Y-14148830D02*
X6600682Y-14167877D01*
X6600682Y-14167877D02*
X6610205Y-14205973D01*
X6610205Y-14205973D02*
X6610205Y-14253592D01*
X6610205Y-14253592D02*
X6600682Y-14291687D01*
X6600682Y-14291687D02*
X6591158Y-14310734D01*
X6591158Y-14310734D02*
X6581634Y-14320258D01*
X6581634Y-14320258D02*
X6562586Y-14329782D01*
X6562586Y-14329782D02*
X6543539Y-14329782D01*
X6543539Y-14329782D02*
X6524491Y-14320258D01*
X6524491Y-14320258D02*
X6514967Y-14310734D01*
X6514967Y-14310734D02*
X6505443Y-14291687D01*
X6505443Y-14291687D02*
X6495920Y-14253592D01*
X6495920Y-14253592D02*
X6495920Y-14205973D01*
X6495920Y-14205973D02*
X6505443Y-14167877D01*
X6505443Y-14167877D02*
X6514967Y-14148830D01*
X6514967Y-14148830D02*
X6524491Y-14139306D01*
X6524491Y-14139306D02*
X6543539Y-14129782D01*
X6695920Y-14329782D02*
X6695920Y-14196449D01*
X6695920Y-14215496D02*
X6705443Y-14205973D01*
X6705443Y-14205973D02*
X6724491Y-14196449D01*
X6724491Y-14196449D02*
X6753063Y-14196449D01*
X6753063Y-14196449D02*
X6772110Y-14205973D01*
X6772110Y-14205973D02*
X6781634Y-14225020D01*
X6781634Y-14225020D02*
X6781634Y-14329782D01*
X6781634Y-14225020D02*
X6791158Y-14205973D01*
X6791158Y-14205973D02*
X6810205Y-14196449D01*
X6810205Y-14196449D02*
X6838777Y-14196449D01*
X6838777Y-14196449D02*
X6857824Y-14205973D01*
X6857824Y-14205973D02*
X6867348Y-14225020D01*
X6867348Y-14225020D02*
X6867348Y-14329782D01*
X6962586Y-14329782D02*
X6962586Y-14196449D01*
X6962586Y-14215496D02*
X6972110Y-14205973D01*
X6972110Y-14205973D02*
X6991158Y-14196449D01*
X6991158Y-14196449D02*
X7019729Y-14196449D01*
X7019729Y-14196449D02*
X7038777Y-14205973D01*
X7038777Y-14205973D02*
X7048301Y-14225020D01*
X7048301Y-14225020D02*
X7048301Y-14329782D01*
X7048301Y-14225020D02*
X7057824Y-14205973D01*
X7057824Y-14205973D02*
X7076872Y-14196449D01*
X7076872Y-14196449D02*
X7105443Y-14196449D01*
X7105443Y-14196449D02*
X7124491Y-14205973D01*
X7124491Y-14205973D02*
X7134015Y-14225020D01*
X7134015Y-14225020D02*
X7134015Y-14329782D01*
X7524491Y-14120258D02*
X7353063Y-14377401D01*
X7781634Y-14129782D02*
X7800682Y-14129782D01*
X7800682Y-14129782D02*
X7819729Y-14139306D01*
X7819729Y-14139306D02*
X7829253Y-14148830D01*
X7829253Y-14148830D02*
X7838777Y-14167877D01*
X7838777Y-14167877D02*
X7848301Y-14205973D01*
X7848301Y-14205973D02*
X7848301Y-14253592D01*
X7848301Y-14253592D02*
X7838777Y-14291687D01*
X7838777Y-14291687D02*
X7829253Y-14310734D01*
X7829253Y-14310734D02*
X7819729Y-14320258D01*
X7819729Y-14320258D02*
X7800682Y-14329782D01*
X7800682Y-14329782D02*
X7781634Y-14329782D01*
X7781634Y-14329782D02*
X7762586Y-14320258D01*
X7762586Y-14320258D02*
X7753063Y-14310734D01*
X7753063Y-14310734D02*
X7743539Y-14291687D01*
X7743539Y-14291687D02*
X7734015Y-14253592D01*
X7734015Y-14253592D02*
X7734015Y-14205973D01*
X7734015Y-14205973D02*
X7743539Y-14167877D01*
X7743539Y-14167877D02*
X7753063Y-14148830D01*
X7753063Y-14148830D02*
X7762586Y-14139306D01*
X7762586Y-14139306D02*
X7781634Y-14129782D01*
X7934015Y-14310734D02*
X7943539Y-14320258D01*
X7943539Y-14320258D02*
X7934015Y-14329782D01*
X7934015Y-14329782D02*
X7924491Y-14320258D01*
X7924491Y-14320258D02*
X7934015Y-14310734D01*
X7934015Y-14310734D02*
X7934015Y-14329782D01*
X8067348Y-14129782D02*
X8086396Y-14129782D01*
X8086396Y-14129782D02*
X8105444Y-14139306D01*
X8105444Y-14139306D02*
X8114967Y-14148830D01*
X8114967Y-14148830D02*
X8124491Y-14167877D01*
X8124491Y-14167877D02*
X8134015Y-14205973D01*
X8134015Y-14205973D02*
X8134015Y-14253592D01*
X8134015Y-14253592D02*
X8124491Y-14291687D01*
X8124491Y-14291687D02*
X8114967Y-14310734D01*
X8114967Y-14310734D02*
X8105444Y-14320258D01*
X8105444Y-14320258D02*
X8086396Y-14329782D01*
X8086396Y-14329782D02*
X8067348Y-14329782D01*
X8067348Y-14329782D02*
X8048301Y-14320258D01*
X8048301Y-14320258D02*
X8038777Y-14310734D01*
X8038777Y-14310734D02*
X8029253Y-14291687D01*
X8029253Y-14291687D02*
X8019729Y-14253592D01*
X8019729Y-14253592D02*
X8019729Y-14205973D01*
X8019729Y-14205973D02*
X8029253Y-14167877D01*
X8029253Y-14167877D02*
X8038777Y-14148830D01*
X8038777Y-14148830D02*
X8048301Y-14139306D01*
X8048301Y-14139306D02*
X8067348Y-14129782D01*
X8200682Y-14129782D02*
X8324491Y-14129782D01*
X8324491Y-14129782D02*
X8257825Y-14205973D01*
X8257825Y-14205973D02*
X8286396Y-14205973D01*
X8286396Y-14205973D02*
X8305444Y-14215496D01*
X8305444Y-14215496D02*
X8314967Y-14225020D01*
X8314967Y-14225020D02*
X8324491Y-14244068D01*
X8324491Y-14244068D02*
X8324491Y-14291687D01*
X8324491Y-14291687D02*
X8314967Y-14310734D01*
X8314967Y-14310734D02*
X8305444Y-14320258D01*
X8305444Y-14320258D02*
X8286396Y-14329782D01*
X8286396Y-14329782D02*
X8229253Y-14329782D01*
X8229253Y-14329782D02*
X8210206Y-14320258D01*
X8210206Y-14320258D02*
X8200682Y-14310734D01*
X8514968Y-14329782D02*
X8400682Y-14329782D01*
X8457825Y-14329782D02*
X8457825Y-14129782D01*
X8457825Y-14129782D02*
X8438777Y-14158354D01*
X8438777Y-14158354D02*
X8419729Y-14177401D01*
X8419729Y-14177401D02*
X8400682Y-14186925D01*
X8695920Y-14129782D02*
X8600682Y-14129782D01*
X8600682Y-14129782D02*
X8591158Y-14225020D01*
X8591158Y-14225020D02*
X8600682Y-14215496D01*
X8600682Y-14215496D02*
X8619729Y-14205973D01*
X8619729Y-14205973D02*
X8667349Y-14205973D01*
X8667349Y-14205973D02*
X8686396Y-14215496D01*
X8686396Y-14215496D02*
X8695920Y-14225020D01*
X8695920Y-14225020D02*
X8705444Y-14244068D01*
X8705444Y-14244068D02*
X8705444Y-14291687D01*
X8705444Y-14291687D02*
X8695920Y-14310734D01*
X8695920Y-14310734D02*
X8686396Y-14320258D01*
X8686396Y-14320258D02*
X8667349Y-14329782D01*
X8667349Y-14329782D02*
X8619729Y-14329782D01*
X8619729Y-14329782D02*
X8600682Y-14320258D01*
X8600682Y-14320258D02*
X8591158Y-14310734D01*
X8781634Y-14129782D02*
X8781634Y-14167877D01*
X8857825Y-14129782D02*
X8857825Y-14167877D01*
X9153063Y-14405973D02*
X9143539Y-14396449D01*
X9143539Y-14396449D02*
X9124491Y-14367877D01*
X9124491Y-14367877D02*
X9114968Y-14348830D01*
X9114968Y-14348830D02*
X9105444Y-14320258D01*
X9105444Y-14320258D02*
X9095920Y-14272639D01*
X9095920Y-14272639D02*
X9095920Y-14234544D01*
X9095920Y-14234544D02*
X9105444Y-14186925D01*
X9105444Y-14186925D02*
X9114968Y-14158354D01*
X9114968Y-14158354D02*
X9124491Y-14139306D01*
X9124491Y-14139306D02*
X9143539Y-14110734D01*
X9143539Y-14110734D02*
X9153063Y-14101211D01*
X9219730Y-14148830D02*
X9229253Y-14139306D01*
X9229253Y-14139306D02*
X9248301Y-14129782D01*
X9248301Y-14129782D02*
X9295920Y-14129782D01*
X9295920Y-14129782D02*
X9314968Y-14139306D01*
X9314968Y-14139306D02*
X9324491Y-14148830D01*
X9324491Y-14148830D02*
X9334015Y-14167877D01*
X9334015Y-14167877D02*
X9334015Y-14186925D01*
X9334015Y-14186925D02*
X9324491Y-14215496D01*
X9324491Y-14215496D02*
X9210206Y-14329782D01*
X9210206Y-14329782D02*
X9334015Y-14329782D01*
X9572111Y-14329782D02*
X9572111Y-14129782D01*
X9657825Y-14329782D02*
X9657825Y-14225020D01*
X9657825Y-14225020D02*
X9648301Y-14205973D01*
X9648301Y-14205973D02*
X9629253Y-14196449D01*
X9629253Y-14196449D02*
X9600682Y-14196449D01*
X9600682Y-14196449D02*
X9581634Y-14205973D01*
X9581634Y-14205973D02*
X9572111Y-14215496D01*
X9781634Y-14329782D02*
X9762587Y-14320258D01*
X9762587Y-14320258D02*
X9753063Y-14310734D01*
X9753063Y-14310734D02*
X9743539Y-14291687D01*
X9743539Y-14291687D02*
X9743539Y-14234544D01*
X9743539Y-14234544D02*
X9753063Y-14215496D01*
X9753063Y-14215496D02*
X9762587Y-14205973D01*
X9762587Y-14205973D02*
X9781634Y-14196449D01*
X9781634Y-14196449D02*
X9810206Y-14196449D01*
X9810206Y-14196449D02*
X9829253Y-14205973D01*
X9829253Y-14205973D02*
X9838777Y-14215496D01*
X9838777Y-14215496D02*
X9848301Y-14234544D01*
X9848301Y-14234544D02*
X9848301Y-14291687D01*
X9848301Y-14291687D02*
X9838777Y-14310734D01*
X9838777Y-14310734D02*
X9829253Y-14320258D01*
X9829253Y-14320258D02*
X9810206Y-14329782D01*
X9810206Y-14329782D02*
X9781634Y-14329782D01*
X9962587Y-14329782D02*
X9943539Y-14320258D01*
X9943539Y-14320258D02*
X9934015Y-14301211D01*
X9934015Y-14301211D02*
X9934015Y-14129782D01*
X10114968Y-14320258D02*
X10095920Y-14329782D01*
X10095920Y-14329782D02*
X10057825Y-14329782D01*
X10057825Y-14329782D02*
X10038777Y-14320258D01*
X10038777Y-14320258D02*
X10029253Y-14301211D01*
X10029253Y-14301211D02*
X10029253Y-14225020D01*
X10029253Y-14225020D02*
X10038777Y-14205973D01*
X10038777Y-14205973D02*
X10057825Y-14196449D01*
X10057825Y-14196449D02*
X10095920Y-14196449D01*
X10095920Y-14196449D02*
X10114968Y-14205973D01*
X10114968Y-14205973D02*
X10124492Y-14225020D01*
X10124492Y-14225020D02*
X10124492Y-14244068D01*
X10124492Y-14244068D02*
X10029253Y-14263115D01*
X10200682Y-14320258D02*
X10219730Y-14329782D01*
X10219730Y-14329782D02*
X10257825Y-14329782D01*
X10257825Y-14329782D02*
X10276873Y-14320258D01*
X10276873Y-14320258D02*
X10286396Y-14301211D01*
X10286396Y-14301211D02*
X10286396Y-14291687D01*
X10286396Y-14291687D02*
X10276873Y-14272639D01*
X10276873Y-14272639D02*
X10257825Y-14263115D01*
X10257825Y-14263115D02*
X10229253Y-14263115D01*
X10229253Y-14263115D02*
X10210206Y-14253592D01*
X10210206Y-14253592D02*
X10200682Y-14234544D01*
X10200682Y-14234544D02*
X10200682Y-14225020D01*
X10200682Y-14225020D02*
X10210206Y-14205973D01*
X10210206Y-14205973D02*
X10229253Y-14196449D01*
X10229253Y-14196449D02*
X10257825Y-14196449D01*
X10257825Y-14196449D02*
X10276873Y-14205973D01*
X10353063Y-14405973D02*
X10362587Y-14396449D01*
X10362587Y-14396449D02*
X10381634Y-14367877D01*
X10381634Y-14367877D02*
X10391158Y-14348830D01*
X10391158Y-14348830D02*
X10400682Y-14320258D01*
X10400682Y-14320258D02*
X10410206Y-14272639D01*
X10410206Y-14272639D02*
X10410206Y-14234544D01*
X10410206Y-14234544D02*
X10400682Y-14186925D01*
X10400682Y-14186925D02*
X10391158Y-14158354D01*
X10391158Y-14158354D02*
X10381634Y-14139306D01*
X10381634Y-14139306D02*
X10362587Y-14110734D01*
X10362587Y-14110734D02*
X10353063Y-14101211D01*
D12*
X5478000Y-14452298D02*
X5578000Y-14552298D01*
X5578000Y-14452298D02*
X5478000Y-14552298D01*
X5578000Y-14502298D02*
G75*
G02*
X5478000Y-14502298I-50000J0D01*
G01*
X5478000Y-14502298D02*
G75*
G02*
X5578000Y-14502298I50000J0D01*
G01*
D10*
X5943539Y-14593782D02*
X5829253Y-14593782D01*
X5886396Y-14593782D02*
X5886396Y-14393782D01*
X5886396Y-14393782D02*
X5867348Y-14422354D01*
X5867348Y-14422354D02*
X5848301Y-14441401D01*
X5848301Y-14441401D02*
X5829253Y-14450925D01*
X6029253Y-14574734D02*
X6038777Y-14584258D01*
X6038777Y-14584258D02*
X6029253Y-14593782D01*
X6029253Y-14593782D02*
X6019729Y-14584258D01*
X6019729Y-14584258D02*
X6029253Y-14574734D01*
X6029253Y-14574734D02*
X6029253Y-14593782D01*
X6162586Y-14393782D02*
X6181634Y-14393782D01*
X6181634Y-14393782D02*
X6200682Y-14403306D01*
X6200682Y-14403306D02*
X6210205Y-14412830D01*
X6210205Y-14412830D02*
X6219729Y-14431877D01*
X6219729Y-14431877D02*
X6229253Y-14469973D01*
X6229253Y-14469973D02*
X6229253Y-14517592D01*
X6229253Y-14517592D02*
X6219729Y-14555687D01*
X6219729Y-14555687D02*
X6210205Y-14574734D01*
X6210205Y-14574734D02*
X6200682Y-14584258D01*
X6200682Y-14584258D02*
X6181634Y-14593782D01*
X6181634Y-14593782D02*
X6162586Y-14593782D01*
X6162586Y-14593782D02*
X6143539Y-14584258D01*
X6143539Y-14584258D02*
X6134015Y-14574734D01*
X6134015Y-14574734D02*
X6124491Y-14555687D01*
X6124491Y-14555687D02*
X6114967Y-14517592D01*
X6114967Y-14517592D02*
X6114967Y-14469973D01*
X6114967Y-14469973D02*
X6124491Y-14431877D01*
X6124491Y-14431877D02*
X6134015Y-14412830D01*
X6134015Y-14412830D02*
X6143539Y-14403306D01*
X6143539Y-14403306D02*
X6162586Y-14393782D01*
X6353062Y-14393782D02*
X6372110Y-14393782D01*
X6372110Y-14393782D02*
X6391158Y-14403306D01*
X6391158Y-14403306D02*
X6400682Y-14412830D01*
X6400682Y-14412830D02*
X6410205Y-14431877D01*
X6410205Y-14431877D02*
X6419729Y-14469973D01*
X6419729Y-14469973D02*
X6419729Y-14517592D01*
X6419729Y-14517592D02*
X6410205Y-14555687D01*
X6410205Y-14555687D02*
X6400682Y-14574734D01*
X6400682Y-14574734D02*
X6391158Y-14584258D01*
X6391158Y-14584258D02*
X6372110Y-14593782D01*
X6372110Y-14593782D02*
X6353062Y-14593782D01*
X6353062Y-14593782D02*
X6334015Y-14584258D01*
X6334015Y-14584258D02*
X6324491Y-14574734D01*
X6324491Y-14574734D02*
X6314967Y-14555687D01*
X6314967Y-14555687D02*
X6305443Y-14517592D01*
X6305443Y-14517592D02*
X6305443Y-14469973D01*
X6305443Y-14469973D02*
X6314967Y-14431877D01*
X6314967Y-14431877D02*
X6324491Y-14412830D01*
X6324491Y-14412830D02*
X6334015Y-14403306D01*
X6334015Y-14403306D02*
X6353062Y-14393782D01*
X6543539Y-14393782D02*
X6562586Y-14393782D01*
X6562586Y-14393782D02*
X6581634Y-14403306D01*
X6581634Y-14403306D02*
X6591158Y-14412830D01*
X6591158Y-14412830D02*
X6600682Y-14431877D01*
X6600682Y-14431877D02*
X6610205Y-14469973D01*
X6610205Y-14469973D02*
X6610205Y-14517592D01*
X6610205Y-14517592D02*
X6600682Y-14555687D01*
X6600682Y-14555687D02*
X6591158Y-14574734D01*
X6591158Y-14574734D02*
X6581634Y-14584258D01*
X6581634Y-14584258D02*
X6562586Y-14593782D01*
X6562586Y-14593782D02*
X6543539Y-14593782D01*
X6543539Y-14593782D02*
X6524491Y-14584258D01*
X6524491Y-14584258D02*
X6514967Y-14574734D01*
X6514967Y-14574734D02*
X6505443Y-14555687D01*
X6505443Y-14555687D02*
X6495920Y-14517592D01*
X6495920Y-14517592D02*
X6495920Y-14469973D01*
X6495920Y-14469973D02*
X6505443Y-14431877D01*
X6505443Y-14431877D02*
X6514967Y-14412830D01*
X6514967Y-14412830D02*
X6524491Y-14403306D01*
X6524491Y-14403306D02*
X6543539Y-14393782D01*
X6695920Y-14593782D02*
X6695920Y-14460449D01*
X6695920Y-14479496D02*
X6705443Y-14469973D01*
X6705443Y-14469973D02*
X6724491Y-14460449D01*
X6724491Y-14460449D02*
X6753063Y-14460449D01*
X6753063Y-14460449D02*
X6772110Y-14469973D01*
X6772110Y-14469973D02*
X6781634Y-14489020D01*
X6781634Y-14489020D02*
X6781634Y-14593782D01*
X6781634Y-14489020D02*
X6791158Y-14469973D01*
X6791158Y-14469973D02*
X6810205Y-14460449D01*
X6810205Y-14460449D02*
X6838777Y-14460449D01*
X6838777Y-14460449D02*
X6857824Y-14469973D01*
X6857824Y-14469973D02*
X6867348Y-14489020D01*
X6867348Y-14489020D02*
X6867348Y-14593782D01*
X6962586Y-14593782D02*
X6962586Y-14460449D01*
X6962586Y-14479496D02*
X6972110Y-14469973D01*
X6972110Y-14469973D02*
X6991158Y-14460449D01*
X6991158Y-14460449D02*
X7019729Y-14460449D01*
X7019729Y-14460449D02*
X7038777Y-14469973D01*
X7038777Y-14469973D02*
X7048301Y-14489020D01*
X7048301Y-14489020D02*
X7048301Y-14593782D01*
X7048301Y-14489020D02*
X7057824Y-14469973D01*
X7057824Y-14469973D02*
X7076872Y-14460449D01*
X7076872Y-14460449D02*
X7105443Y-14460449D01*
X7105443Y-14460449D02*
X7124491Y-14469973D01*
X7124491Y-14469973D02*
X7134015Y-14489020D01*
X7134015Y-14489020D02*
X7134015Y-14593782D01*
X7524491Y-14384258D02*
X7353063Y-14641401D01*
X7781634Y-14393782D02*
X7800682Y-14393782D01*
X7800682Y-14393782D02*
X7819729Y-14403306D01*
X7819729Y-14403306D02*
X7829253Y-14412830D01*
X7829253Y-14412830D02*
X7838777Y-14431877D01*
X7838777Y-14431877D02*
X7848301Y-14469973D01*
X7848301Y-14469973D02*
X7848301Y-14517592D01*
X7848301Y-14517592D02*
X7838777Y-14555687D01*
X7838777Y-14555687D02*
X7829253Y-14574734D01*
X7829253Y-14574734D02*
X7819729Y-14584258D01*
X7819729Y-14584258D02*
X7800682Y-14593782D01*
X7800682Y-14593782D02*
X7781634Y-14593782D01*
X7781634Y-14593782D02*
X7762586Y-14584258D01*
X7762586Y-14584258D02*
X7753063Y-14574734D01*
X7753063Y-14574734D02*
X7743539Y-14555687D01*
X7743539Y-14555687D02*
X7734015Y-14517592D01*
X7734015Y-14517592D02*
X7734015Y-14469973D01*
X7734015Y-14469973D02*
X7743539Y-14431877D01*
X7743539Y-14431877D02*
X7753063Y-14412830D01*
X7753063Y-14412830D02*
X7762586Y-14403306D01*
X7762586Y-14403306D02*
X7781634Y-14393782D01*
X7934015Y-14574734D02*
X7943539Y-14584258D01*
X7943539Y-14584258D02*
X7934015Y-14593782D01*
X7934015Y-14593782D02*
X7924491Y-14584258D01*
X7924491Y-14584258D02*
X7934015Y-14574734D01*
X7934015Y-14574734D02*
X7934015Y-14593782D01*
X8067348Y-14393782D02*
X8086396Y-14393782D01*
X8086396Y-14393782D02*
X8105444Y-14403306D01*
X8105444Y-14403306D02*
X8114967Y-14412830D01*
X8114967Y-14412830D02*
X8124491Y-14431877D01*
X8124491Y-14431877D02*
X8134015Y-14469973D01*
X8134015Y-14469973D02*
X8134015Y-14517592D01*
X8134015Y-14517592D02*
X8124491Y-14555687D01*
X8124491Y-14555687D02*
X8114967Y-14574734D01*
X8114967Y-14574734D02*
X8105444Y-14584258D01*
X8105444Y-14584258D02*
X8086396Y-14593782D01*
X8086396Y-14593782D02*
X8067348Y-14593782D01*
X8067348Y-14593782D02*
X8048301Y-14584258D01*
X8048301Y-14584258D02*
X8038777Y-14574734D01*
X8038777Y-14574734D02*
X8029253Y-14555687D01*
X8029253Y-14555687D02*
X8019729Y-14517592D01*
X8019729Y-14517592D02*
X8019729Y-14469973D01*
X8019729Y-14469973D02*
X8029253Y-14431877D01*
X8029253Y-14431877D02*
X8038777Y-14412830D01*
X8038777Y-14412830D02*
X8048301Y-14403306D01*
X8048301Y-14403306D02*
X8067348Y-14393782D01*
X8200682Y-14393782D02*
X8324491Y-14393782D01*
X8324491Y-14393782D02*
X8257825Y-14469973D01*
X8257825Y-14469973D02*
X8286396Y-14469973D01*
X8286396Y-14469973D02*
X8305444Y-14479496D01*
X8305444Y-14479496D02*
X8314967Y-14489020D01*
X8314967Y-14489020D02*
X8324491Y-14508068D01*
X8324491Y-14508068D02*
X8324491Y-14555687D01*
X8324491Y-14555687D02*
X8314967Y-14574734D01*
X8314967Y-14574734D02*
X8305444Y-14584258D01*
X8305444Y-14584258D02*
X8286396Y-14593782D01*
X8286396Y-14593782D02*
X8229253Y-14593782D01*
X8229253Y-14593782D02*
X8210206Y-14584258D01*
X8210206Y-14584258D02*
X8200682Y-14574734D01*
X8419729Y-14593782D02*
X8457825Y-14593782D01*
X8457825Y-14593782D02*
X8476872Y-14584258D01*
X8476872Y-14584258D02*
X8486396Y-14574734D01*
X8486396Y-14574734D02*
X8505444Y-14546163D01*
X8505444Y-14546163D02*
X8514968Y-14508068D01*
X8514968Y-14508068D02*
X8514968Y-14431877D01*
X8514968Y-14431877D02*
X8505444Y-14412830D01*
X8505444Y-14412830D02*
X8495920Y-14403306D01*
X8495920Y-14403306D02*
X8476872Y-14393782D01*
X8476872Y-14393782D02*
X8438777Y-14393782D01*
X8438777Y-14393782D02*
X8419729Y-14403306D01*
X8419729Y-14403306D02*
X8410206Y-14412830D01*
X8410206Y-14412830D02*
X8400682Y-14431877D01*
X8400682Y-14431877D02*
X8400682Y-14479496D01*
X8400682Y-14479496D02*
X8410206Y-14498544D01*
X8410206Y-14498544D02*
X8419729Y-14508068D01*
X8419729Y-14508068D02*
X8438777Y-14517592D01*
X8438777Y-14517592D02*
X8476872Y-14517592D01*
X8476872Y-14517592D02*
X8495920Y-14508068D01*
X8495920Y-14508068D02*
X8505444Y-14498544D01*
X8505444Y-14498544D02*
X8514968Y-14479496D01*
X8686396Y-14460449D02*
X8686396Y-14593782D01*
X8638777Y-14384258D02*
X8591158Y-14527115D01*
X8591158Y-14527115D02*
X8714968Y-14527115D01*
X8781634Y-14393782D02*
X8781634Y-14431877D01*
X8857825Y-14393782D02*
X8857825Y-14431877D01*
X9153063Y-14669973D02*
X9143539Y-14660449D01*
X9143539Y-14660449D02*
X9124491Y-14631877D01*
X9124491Y-14631877D02*
X9114968Y-14612830D01*
X9114968Y-14612830D02*
X9105444Y-14584258D01*
X9105444Y-14584258D02*
X9095920Y-14536639D01*
X9095920Y-14536639D02*
X9095920Y-14498544D01*
X9095920Y-14498544D02*
X9105444Y-14450925D01*
X9105444Y-14450925D02*
X9114968Y-14422354D01*
X9114968Y-14422354D02*
X9124491Y-14403306D01*
X9124491Y-14403306D02*
X9143539Y-14374734D01*
X9143539Y-14374734D02*
X9153063Y-14365211D01*
X9210206Y-14393782D02*
X9343539Y-14393782D01*
X9343539Y-14393782D02*
X9257825Y-14593782D01*
X9572111Y-14593782D02*
X9572111Y-14393782D01*
X9657825Y-14593782D02*
X9657825Y-14489020D01*
X9657825Y-14489020D02*
X9648301Y-14469973D01*
X9648301Y-14469973D02*
X9629253Y-14460449D01*
X9629253Y-14460449D02*
X9600682Y-14460449D01*
X9600682Y-14460449D02*
X9581634Y-14469973D01*
X9581634Y-14469973D02*
X9572111Y-14479496D01*
X9781634Y-14593782D02*
X9762587Y-14584258D01*
X9762587Y-14584258D02*
X9753063Y-14574734D01*
X9753063Y-14574734D02*
X9743539Y-14555687D01*
X9743539Y-14555687D02*
X9743539Y-14498544D01*
X9743539Y-14498544D02*
X9753063Y-14479496D01*
X9753063Y-14479496D02*
X9762587Y-14469973D01*
X9762587Y-14469973D02*
X9781634Y-14460449D01*
X9781634Y-14460449D02*
X9810206Y-14460449D01*
X9810206Y-14460449D02*
X9829253Y-14469973D01*
X9829253Y-14469973D02*
X9838777Y-14479496D01*
X9838777Y-14479496D02*
X9848301Y-14498544D01*
X9848301Y-14498544D02*
X9848301Y-14555687D01*
X9848301Y-14555687D02*
X9838777Y-14574734D01*
X9838777Y-14574734D02*
X9829253Y-14584258D01*
X9829253Y-14584258D02*
X9810206Y-14593782D01*
X9810206Y-14593782D02*
X9781634Y-14593782D01*
X9962587Y-14593782D02*
X9943539Y-14584258D01*
X9943539Y-14584258D02*
X9934015Y-14565211D01*
X9934015Y-14565211D02*
X9934015Y-14393782D01*
X10114968Y-14584258D02*
X10095920Y-14593782D01*
X10095920Y-14593782D02*
X10057825Y-14593782D01*
X10057825Y-14593782D02*
X10038777Y-14584258D01*
X10038777Y-14584258D02*
X10029253Y-14565211D01*
X10029253Y-14565211D02*
X10029253Y-14489020D01*
X10029253Y-14489020D02*
X10038777Y-14469973D01*
X10038777Y-14469973D02*
X10057825Y-14460449D01*
X10057825Y-14460449D02*
X10095920Y-14460449D01*
X10095920Y-14460449D02*
X10114968Y-14469973D01*
X10114968Y-14469973D02*
X10124492Y-14489020D01*
X10124492Y-14489020D02*
X10124492Y-14508068D01*
X10124492Y-14508068D02*
X10029253Y-14527115D01*
X10200682Y-14584258D02*
X10219730Y-14593782D01*
X10219730Y-14593782D02*
X10257825Y-14593782D01*
X10257825Y-14593782D02*
X10276873Y-14584258D01*
X10276873Y-14584258D02*
X10286396Y-14565211D01*
X10286396Y-14565211D02*
X10286396Y-14555687D01*
X10286396Y-14555687D02*
X10276873Y-14536639D01*
X10276873Y-14536639D02*
X10257825Y-14527115D01*
X10257825Y-14527115D02*
X10229253Y-14527115D01*
X10229253Y-14527115D02*
X10210206Y-14517592D01*
X10210206Y-14517592D02*
X10200682Y-14498544D01*
X10200682Y-14498544D02*
X10200682Y-14489020D01*
X10200682Y-14489020D02*
X10210206Y-14469973D01*
X10210206Y-14469973D02*
X10229253Y-14460449D01*
X10229253Y-14460449D02*
X10257825Y-14460449D01*
X10257825Y-14460449D02*
X10276873Y-14469973D01*
X10353063Y-14669973D02*
X10362587Y-14660449D01*
X10362587Y-14660449D02*
X10381634Y-14631877D01*
X10381634Y-14631877D02*
X10391158Y-14612830D01*
X10391158Y-14612830D02*
X10400682Y-14584258D01*
X10400682Y-14584258D02*
X10410206Y-14536639D01*
X10410206Y-14536639D02*
X10410206Y-14498544D01*
X10410206Y-14498544D02*
X10400682Y-14450925D01*
X10400682Y-14450925D02*
X10391158Y-14422354D01*
X10391158Y-14422354D02*
X10381634Y-14403306D01*
X10381634Y-14403306D02*
X10362587Y-14374734D01*
X10362587Y-14374734D02*
X10353063Y-14365211D01*
M02*
