M48
; DRILL file {KiCad 9.0.1} date 2025-04-08T19:44:55-0300
; FORMAT={-:-/ absolute / inch / decimal}
; #@! TF.CreationDate,2025-04-08T19:44:55-03:00
; #@! TF.GenerationSoftware,Kicad,Pcbnew,9.0.1
; #@! TF.FileFunction,Plated,1,2,PTH
FMAT,2
INCH
; #@! TA.AperFunction,Plated,PTH,ComponentDrill
T1C0.0138
; #@! TA.AperFunction,Plated,PTH,ComponentDrill
T2C0.0157
; #@! TA.AperFunction,Plated,PTH,ViaDrill
T3C0.0197
; #@! TA.AperFunction,Plated,PTH,ComponentDrill
T4C0.0197
; #@! TA.AperFunction,Plated,PTH,ComponentDrill
T5C0.0315
; #@! TA.AperFunction,Plated,PTH,ComponentDrill
T6C0.0394
%
G90
G05
T1
X3.5541Y-2.3391
X3.5541Y-2.3893
X3.5541Y-2.4395
X3.6043Y-2.3391
X3.6043Y-2.3893
X3.6043Y-2.4395
X3.6545Y-2.3391
X3.6545Y-2.3893
X3.6545Y-2.4395
T2
X3.9283Y-1.6925
X3.9913Y-1.6925
X4.0071Y-1.665
X4.0228Y-1.6925
X4.0543Y-1.6925
X4.0701Y-1.665
X4.0858Y-1.6925
X4.1488Y-1.6925
T3
X2.3748Y-2.1289
X2.4376Y-3.1742
X2.462Y-2.6192
X2.4756Y-2.8989
X2.4815Y-2.2742
X2.5291Y-2.4186
X2.5949Y-2.8989
X2.7476Y-1.9359
X2.8343Y-1.8474
X2.8354Y-3.0001
X2.8354Y-3.1379
X2.8354Y-3.2757
X2.8354Y-3.4135
X2.8354Y-3.5513
X2.8354Y-3.6891
X2.8354Y-3.8269
X2.8354Y-3.9647
X2.8354Y-4.1025
X2.8354Y-4.2403
X2.8354Y-4.3781
X2.8354Y-4.5159
X2.8354Y-4.6537
X2.8354Y-4.7915
X2.9732Y-3.0001
X2.9732Y-3.1379
X2.9732Y-3.2757
X2.9732Y-3.4135
X2.9732Y-3.5513
X2.9732Y-3.6891
X2.9732Y-3.8269
X2.9732Y-3.9647
X2.9732Y-4.1025
X2.9732Y-4.2403
X2.9732Y-4.3781
X2.9732Y-4.5159
X2.9732Y-4.6537
X2.9732Y-4.7915
X2.9877Y-2.4461
X3.0158Y-2.1257
X3.0193Y-2.6647
X3.111Y-3.0001
X3.111Y-3.1379
X3.111Y-3.2757
X3.111Y-3.4135
X3.111Y-3.5513
X3.111Y-3.6891
X3.111Y-3.8269
X3.111Y-3.9647
X3.111Y-4.1025
X3.111Y-4.2403
X3.111Y-4.3781
X3.111Y-4.5159
X3.111Y-4.6537
X3.111Y-4.7915
X3.2165Y-3.8178
X3.2488Y-3.0001
X3.2488Y-3.1379
X3.2488Y-3.2757
X3.2488Y-3.4135
X3.2488Y-3.5513
X3.2488Y-3.6891
X3.2488Y-3.9647
X3.2488Y-4.1025
X3.2488Y-4.2403
X3.2488Y-4.3781
X3.2488Y-4.5159
X3.2488Y-4.6537
X3.2488Y-4.7915
X3.3866Y-3.0001
X3.3866Y-3.1379
X3.3866Y-3.2757
X3.3866Y-3.4135
X3.3866Y-3.5513
X3.3866Y-3.6891
X3.3866Y-3.9647
X3.3866Y-4.1025
X3.3866Y-4.2403
X3.3866Y-4.5159
X3.3866Y-4.6537
X3.3866Y-4.7915
X3.4571Y-2.7005
X3.5169Y-2.0796
X3.5209Y-2.808
X3.5244Y-3.0001
X3.5244Y-3.1379
X3.5244Y-3.2757
X3.5244Y-3.4135
X3.5244Y-3.5513
X3.5244Y-4.2403
X3.5244Y-4.5159
X3.5244Y-4.6537
X3.5244Y-4.7915
X3.552Y-1.9261
X3.5811Y-3.7678
X3.5811Y-3.9056
X3.5811Y-4.0434
X3.6368Y-1.5586
X3.6429Y-2.8375
X3.6465Y-4.4237
X3.6622Y-3.4135
X3.6622Y-3.5513
X3.6622Y-4.5159
X3.6622Y-4.6537
X3.6622Y-4.7915
X3.676Y-3.0004
X3.6815Y-3.1461
X3.6835Y-3.2602
X3.7098Y-2.8572
X3.7189Y-3.7678
X3.7189Y-3.9056
X3.7189Y-4.0434
X3.7434Y-4.4233
X3.7713Y-2.6041
X3.8Y-3.0001
X3.8Y-3.1379
X3.8Y-3.2757
X3.8Y-4.5159
X3.8Y-4.6537
X3.8Y-4.7915
X3.8063Y-2.2745
X3.8098Y-3.4391
X3.8339Y-2.6702
X3.8567Y-3.7678
X3.8567Y-3.9056
X3.8567Y-4.0434
X3.9315Y-2.1356
X3.9378Y-3.0001
X3.9378Y-3.1379
X3.9378Y-3.2757
X3.9378Y-3.4135
X3.9378Y-3.5513
X3.9378Y-4.2403
X3.9378Y-4.3781
X3.9378Y-4.5159
X3.9378Y-4.6537
X3.9378Y-4.7915
X3.9677Y-2.5442
X3.9992Y-2.8232
X4.0012Y-2.3966
X4.0709Y-3.0091
X4.0756Y-3.1379
X4.0756Y-3.2757
X4.0756Y-3.4135
X4.0756Y-3.5513
X4.0756Y-3.6891
X4.0756Y-3.9647
X4.0756Y-4.1025
X4.0756Y-4.2403
X4.0756Y-4.3781
X4.0756Y-4.5159
X4.0756Y-4.6537
X4.0756Y-4.7915
X4.1425Y-3.7383
X4.2011Y-2.3879
X4.2134Y-3.0001
X4.2134Y-3.1379
X4.2134Y-3.2757
X4.2134Y-3.4135
X4.2134Y-3.5513
X4.2134Y-3.6891
X4.2134Y-3.8269
X4.2134Y-3.9647
X4.2134Y-4.1025
X4.2134Y-4.2403
X4.2134Y-4.3781
X4.2134Y-4.5159
X4.2134Y-4.6537
X4.2134Y-4.7915
X4.2939Y-1.7822
X4.3492Y-2.2304
X4.3512Y-3.0001
X4.3512Y-3.1379
X4.3512Y-3.2757
X4.3512Y-3.4135
X4.3512Y-3.5513
X4.3512Y-3.6891
X4.3512Y-3.8269
X4.3512Y-3.9647
X4.3512Y-4.1025
X4.3512Y-4.2403
X4.3512Y-4.3781
X4.3512Y-4.5159
X4.3512Y-4.6537
X4.3512Y-4.7915
X4.4669Y-2.2293
X4.489Y-3.0001
X4.489Y-3.1379
X4.489Y-3.2757
X4.489Y-3.4135
X4.489Y-3.5513
X4.489Y-3.6891
X4.489Y-3.8269
X4.489Y-3.9647
X4.489Y-4.1025
X4.489Y-4.2403
X4.489Y-4.3781
X4.489Y-4.5159
X4.489Y-4.6537
X4.489Y-4.7915
X4.5594Y-2.4037
X4.6268Y-3.0001
X4.6268Y-3.1379
X4.6268Y-3.2757
X4.6268Y-3.4135
X4.6268Y-3.5513
X4.6268Y-3.6891
X4.6268Y-3.8269
X4.6268Y-3.9647
X4.6268Y-4.1025
X4.6268Y-4.2403
X4.6268Y-4.3781
X4.6268Y-4.5159
X4.6268Y-4.6537
X4.6268Y-4.7915
X4.6947Y-2.6453
X4.6947Y-2.7096
X5.0764Y-2.8611
X5.0783Y-1.9226
X5.1736Y-2.0623
X5.2724Y-2.3304
T5
X3.1335Y-2.7907
X3.3256Y-2.7907
T6
X2.7476Y-1.5944
X2.7476Y-1.6944
X3.0524Y-1.5859
X3.2492Y-1.5859
X3.4461Y-1.5859
X4.476Y-1.6001
X4.676Y-1.6001
X5.1878Y-2.4836
X5.1878Y-2.5836
X5.1878Y-2.6836
T4
G00X3.8614Y-1.5854
M15
G01X3.8614Y-1.5539
M16
G05
G00X3.8703Y-1.6807
M15
G01X3.8703Y-1.6571
M16
G05
G00X3.8921Y-1.7791
M15
G01X3.8823Y-1.7791
M16
G05
G00X4.1949Y-1.7791
M15
G01X4.185Y-1.7791
M16
G05
G00X4.2069Y-1.6807
M15
G01X4.2069Y-1.6571
M16
G05
G00X4.2157Y-1.5854
M15
G01X4.2157Y-1.5539
M16
G05
M30
